<svg xmlns="http://www.w3.org/2000/svg" xmlns:xlink="http://www.w3.org/1999/xlink" viewBox="0 0 500 500"><defs><clipPath id="freepik--clip-path--inject-4"><rect x="82.74" y="111.77" width="160.62" height="259.87" style="fill:#263238;stroke:#263238;stroke-linecap:round;stroke-linejoin:round"></rect></clipPath><clipPath id="freepik--clip-path-2--inject-4"><path d="M292,301.65s-1.36,6.11,1.19,16.14,6.28,23.11,6.11,24.3-.85,18.36,0,21.76,5.61,4.75,11.22,4.24,7.48-2.38,8.5-5.94,2.72-28.38,2.72-28.38,11,21.41,12.23,25,8.33,5.61,13.77,4.42,7.3-8.16,7.14-12.58-12.41-25.83-12.41-25.83l4.25-23.11-36-18.53Z" style="fill:#fff;stroke:#263238;stroke-linecap:round;stroke-linejoin:round"></path></clipPath><clipPath id="freepik--clip-path-3--inject-4"><path d="M312.94,173.34s-6.63,1.36-9.69,5.27-24.3,33-24.3,33a2.18,2.18,0,0,0-2.38,0l-1,.85s-25.15-18.53-26.17-18.19S238.5,207.5,238.84,209s31.61,26,36,26.34,5.44,0,6.29-.68,15-10.54,15-10.54l1,13.43s-14.78,31.27-14.95,61c0,0,3.23,8.66,22.43,12.23a9.57,9.57,0,0,0,1.87-2.89c.68-1.69,2.72-9.34,2.72-9.34s1,11.72,2.38,12.74,16.65-.51,31.27-3.74,17.5-6.11,17.5-8.83-5.43-42.66-12.23-59.31l5.1-7.31s6.62,10.37,10,11.56,37.22-5.95,40.28-7.31,2.72-1.53,2.72-2.72-.85-16-3.06-16.48-25.32,3.05-26.17,3.05-2.55-1.36-3.06-1.36h-.51s0-23.45-3.74-31.43-12.07-13.09-22.77-15.81S312.94,173.34,312.94,173.34Z" style="fill:#FDE047;stroke:#263238;stroke-linecap:round;stroke-linejoin:round"></path></clipPath><clipPath id="freepik--clip-path-4--inject-4"><path d="M324.33,190.5s-6.46,3.4-14.62-5.77-1.53-24.81,6.46-30.42,21.41-7.65,29.57-6.46,11.72,8.5,11.21,20.22-10.19,12.24-20.05,14.79S324.33,190.5,324.33,190.5Z" style="fill:#fff;stroke:#263238;stroke-linecap:round;stroke-linejoin:round"></path></clipPath><clipPath id="freepik--clip-path-5--inject-4"><path d="M347.61,162.12s3.06,3.4-5.78,8.67-15.3,6-18.18,14.62,5.94,9.85,17.84,8.32,24.3-4.58,30.25-15.29,2.38-24.13-6.29-27.36S350.5,155.33,347.61,162.12Z" style="fill:#fff;stroke:#263238;stroke-linecap:round;stroke-linejoin:round"></path></clipPath></defs><g id="freepik--background-simple--inject-4"><path d="M50.23,279.56s11,69.58,74.91,108.08,144.86,30.64,210.6,26S446.91,365,447.45,307.93s-51.31-66.56-86.3-126.55S325.94,100.1,263.86,68.84s-148.52,5.26-187,78.95S50.23,279.56,50.23,279.56Z" style="fill:#FDE047"></path><path d="M50.23,279.56s11,69.58,74.91,108.08,144.86,30.64,210.6,26S446.91,365,447.45,307.93s-51.31-66.56-86.3-126.55S325.94,100.1,263.86,68.84s-148.52,5.26-187,78.95S50.23,279.56,50.23,279.56Z" style="fill:#fff;opacity:0.7000000000000001"></path></g><g id="freepik--Floor--inject-4"><path d="M51.83,435s-13.07,7.31,94.07-4.57,187.27-21.92,235.18-11,56.62,17.36,56.62,17.36" style="fill:none;stroke:#263238;stroke-linecap:round;stroke-miterlimit:10"></path></g><g id="freepik--Mountain--inject-4"><path d="M53.72,336.25s196.75-164.14,211.5-160.64,145.67,123,145.67,123l46.9-11.71" style="fill:none;stroke:#263238;stroke-linecap:round;stroke-miterlimit:10"></path></g><g id="freepik--Device--inject-4"><rect x="74.91" y="75.2" width="176.29" height="333" rx="7.67" style="fill:#fff;stroke:#263238;stroke-linecap:round;stroke-linejoin:round"></rect><rect x="82.74" y="111.77" width="160.62" height="259.87" style="fill:#263238"></rect><g style="clip-path:url(#freepik--clip-path--inject-4)"><polygon points="243.37 284.32 93.63 371.63 243.37 371.63 243.37 284.32" style="fill:#fff;opacity:0.30000000000000004"></polygon></g><rect x="82.74" y="111.77" width="160.62" height="259.87" style="fill:none;stroke:#263238;stroke-linecap:round;stroke-linejoin:round"></rect><path d="M180.52,93.58H145.59a2.39,2.39,0,0,1-2.38-2.38h0a2.39,2.39,0,0,1,2.38-2.39h34.93a2.39,2.39,0,0,1,2.38,2.39h0A2.39,2.39,0,0,1,180.52,93.58Z" style="fill:#263238"></path><path d="M172.58,386.31a9.53,9.53,0,1,0-9.53,9.52A9.53,9.53,0,0,0,172.58,386.31Z" style="fill:#fff;stroke:#263238;stroke-linecap:round;stroke-miterlimit:10;stroke-width:0.704333px"></path><rect x="158.23" y="381.48" width="9.65" height="9.65" style="fill:#263238"></rect><path d="M189,169.39a3,3,0,0,0,3-2.4,15.65,15.65,0,0,0,.28-2.93,16,16,0,0,0-15.09-15.92A16,16,0,0,0,146,153.05c0,.44,0,.86.07,1.29H146a12.11,12.11,0,0,0-12.11,12.11v0a3,3,0,0,0,3,2.91Z" style="fill:none;stroke:#fff;stroke-linecap:round;stroke-miterlimit:10"></path><line x1="152.59" y1="172.32" x2="152.59" y2="186.28" style="fill:none;stroke:#fff;stroke-linecap:round;stroke-miterlimit:10"></line><line x1="159.57" y1="179.3" x2="145.62" y2="179.3" style="fill:none;stroke:#fff;stroke-linecap:round;stroke-miterlimit:10"></line><line x1="156.26" y1="175.63" x2="148.92" y2="182.97" style="fill:none;stroke:#fff;stroke-linecap:round;stroke-miterlimit:10"></line><line x1="156.26" y1="182.97" x2="148.92" y2="175.63" style="fill:none;stroke:#fff;stroke-linecap:round;stroke-miterlimit:10"></line><line x1="166.54" y1="185.91" x2="166.54" y2="195.45" style="fill:none;stroke:#fff;stroke-linecap:round;stroke-miterlimit:10"></line><line x1="171.31" y1="190.68" x2="161.77" y2="190.68" style="fill:none;stroke:#fff;stroke-linecap:round;stroke-miterlimit:10"></line><line x1="169.05" y1="188.17" x2="164.03" y2="193.19" style="fill:none;stroke:#fff;stroke-linecap:round;stroke-miterlimit:10"></line><line x1="169.05" y1="193.19" x2="164.03" y2="188.17" style="fill:none;stroke:#fff;stroke-linecap:round;stroke-miterlimit:10"></line><line x1="176.09" y1="171.59" x2="176.09" y2="181.14" style="fill:none;stroke:#fff;stroke-linecap:round;stroke-miterlimit:10"></line><line x1="180.86" y1="176.36" x2="171.31" y2="176.36" style="fill:none;stroke:#fff;stroke-linecap:round;stroke-miterlimit:10"></line><line x1="178.6" y1="173.85" x2="173.58" y2="178.87" style="fill:none;stroke:#fff;stroke-linecap:round;stroke-miterlimit:10"></line><line x1="178.6" y1="178.87" x2="173.58" y2="173.85" style="fill:none;stroke:#fff;stroke-linecap:round;stroke-miterlimit:10"></line><path d="M139.74,215.45q0-9.25,1.94-11.39a7.73,7.73,0,0,1,1.5-1.31,7.53,7.53,0,0,1,4.09-.94q6.49,0,6.5,10.95A22.75,22.75,0,0,1,151,223.5c-.82,1.53-1.66,3-2.49,4.5a30.53,30.53,0,0,0-4,10.34h8.65v3.48H140v-2.2q0-4.47,4.5-13.19l1.46-2.82c1-1.85,1.54-2.92,1.73-3.19a12.84,12.84,0,0,0,1.2-3.66,23.38,23.38,0,0,0,.46-4.66,18.52,18.52,0,0,0-.33-3.86,4.22,4.22,0,0,0-.83-2,1.65,1.65,0,0,0-1.18-.48,2.09,2.09,0,0,0-1.12.27c-1.08.65-1.62,2.89-1.62,6.69v5.15h-4.54Z" style="fill:#FDE047"></path><path d="M158.42,212.24c0-3.51.56-6.13,1.66-7.86s3.2-2.59,6.29-2.59,5.21.86,6.33,2.58,1.68,4.35,1.68,7.87v18.91q0,5.46-1.62,8.3t-6.37,2.85c-3.15,0-5.27-1-6.35-2.83s-1.62-4.65-1.62-8.32Zm11.33-.25c0-3.83-.81-5.89-2.45-6.18a7.26,7.26,0,0,0-1.1-.07,3.61,3.61,0,0,0-1.38.27,2.72,2.72,0,0,0-1.21,1.6,12.3,12.3,0,0,0-.55,4.36v19.47c0,3.57.44,5.69,1.32,6.38a2.52,2.52,0,0,0,1.63.54,7.07,7.07,0,0,0,1.36-.09,1.78,1.78,0,0,0,.92-.45c1-.75,1.46-2.88,1.46-6.4V212Z" style="fill:#FDE047"></path><path d="M178.24,210.29q0-4.46,2-5.56a4.07,4.07,0,0,1,1.93-.44q2.86,0,3.66,2.31a11.94,11.94,0,0,1,.49,3.69v6.48q0,3.85-1,5.07a3.75,3.75,0,0,1-3,1.2,3.41,3.41,0,0,1-3.65-2.44,13,13,0,0,1-.44-3.83Zm5.61-.5c0-1.74-.25-2.8-.74-3.18a1.33,1.33,0,0,0-.8-.23,1.21,1.21,0,0,0-1.27.89,8.64,8.64,0,0,0-.29,2.52v7.67c0,1.8.25,2.89.76,3.26a1.16,1.16,0,0,0,.75.24h.05a1.2,1.2,0,0,0,1.25-.91,8.74,8.74,0,0,0,.29-2.59Z" style="fill:#FDE047"></path><line x1="91.5" y1="257.83" x2="234" y2="257.83" style="fill:none;stroke:#fff;stroke-linecap:round;stroke-miterlimit:10"></line><line x1="91.5" y1="299.83" x2="234" y2="299.83" style="fill:none;stroke:#fff;stroke-linecap:round;stroke-miterlimit:10"></line><path d="M98.75,125.1h1.82v12.33H99.28v-5l.12-4.61-1.67,9.54H96.42l-1.75-9.54.12,4.61v5H93.51V125.1h1.81l1.76,10.14Z" style="fill:#fff"></path><path d="M102.45,130.23q0-2.55,1.17-3.18a2.33,2.33,0,0,1,1.11-.25,2,2,0,0,1,2.1,1.32,6.61,6.61,0,0,1,.28,2.11V134a4.87,4.87,0,0,1-.59,2.91,2.17,2.17,0,0,1-1.73.69,2,2,0,0,1-2.09-1.4,7.55,7.55,0,0,1-.25-2.2Zm3.22-.28c0-1-.14-1.61-.43-1.82a.73.73,0,0,0-.45-.14.7.7,0,0,0-.74.51,5,5,0,0,0-.16,1.45v4.4c0,1,.14,1.66.43,1.87a.72.72,0,0,0,.44.14h0a.69.69,0,0,0,.71-.53,5.08,5.08,0,0,0,.17-1.48Z" style="fill:#fff"></path><path d="M110.44,128a1.65,1.65,0,0,1,.62-.87,1.82,1.82,0,0,1,1.17-.37,1.4,1.4,0,0,1,1.15.57,2.75,2.75,0,0,1,.43,1.69v8.38h-1.43v-8.37a1.11,1.11,0,0,0-.25-.8.87.87,0,0,0-.68-.27,1,1,0,0,0-.72.3,1.29,1.29,0,0,0-.29.91v8.23H109V126.92h1.43Z" style="fill:#fff"></path><path d="M116,136h1.23v1.39H116Z" style="fill:#fff"></path><path d="M92.63,263.75h2.65v.78h-.83v7.25h-.94v-7.25h-.88Z" style="fill:#fff"></path><path d="M98.22,264.93h.94v6.85h-.94v-.7a1.25,1.25,0,0,1-.38.57,1.14,1.14,0,0,1-.72.22,1,1,0,0,1-.77-.37,1.75,1.75,0,0,1-.32-1.15v-5.42H97v5.32c0,.54.19.81.58.81a.59.59,0,0,0,.5-.23,1,1,0,0,0,.17-.6Z" style="fill:#fff"></path><path d="M100.39,267.06a2.7,2.7,0,0,1,.46-1.81,1.43,1.43,0,0,1,1.08-.4,1.21,1.21,0,0,1,1.3.89,5.45,5.45,0,0,1,.14,1.36v1.29h-2v1.36a2.52,2.52,0,0,0,.14,1.11.48.48,0,0,0,.45.22.39.39,0,0,0,.4-.26,1.42,1.42,0,0,0,.11-.55c0-.2,0-.37,0-.51v-.55h.91v.3a5.28,5.28,0,0,1-.15,1.52,1.18,1.18,0,0,1-.46.64,1.54,1.54,0,0,1-.77.19,1.91,1.91,0,0,1-.74-.12,1,1,0,0,1-.43-.31,1.57,1.57,0,0,1-.29-.61,5.41,5.41,0,0,1-.12-1.35Zm2-.18a3.5,3.5,0,0,0-.06-.88.9.9,0,0,0-.13-.26.34.34,0,0,0-.3-.12.49.49,0,0,0-.52.35,3.31,3.31,0,0,0-.11.94v.84h1.12Z" style="fill:#fff"></path><path d="M107.29,270.21c0,1.1-.49,1.66-1.46,1.66a1.34,1.34,0,0,1-1.11-.47,2.5,2.5,0,0,1-.37-1.51v-.52h.91v.51c0,.79.18,1.19.54,1.19a.45.45,0,0,0,.42-.19,1.23,1.23,0,0,0,.13-.67,2,2,0,0,0-.68-1.41,3,3,0,0,0-.24-.23l-.24-.23a2.53,2.53,0,0,1-.89-1.88,1.67,1.67,0,0,1,.38-1.21,1.43,1.43,0,0,1,1.09-.4,1.41,1.41,0,0,1,.78.2c.42.27.63.92.63,1.94v.32h-.89v-.47a2.46,2.46,0,0,0-.12-.89.4.4,0,0,0-.4-.3.5.5,0,0,0-.42.18,1,1,0,0,0-.14.6,1.83,1.83,0,0,0,.62,1.29l.5.46A2.78,2.78,0,0,1,107.29,270.21Z" style="fill:#fff"></path><path d="M108.35,270.87h.8v.91h-.8Z" style="fill:#fff"></path><path d="M97.55,305.75h.86l-1,8h-.93l-.86-5.93-.91,5.93h-.91l-1.06-8h.87l.69,6.15.91-6.15H96L97,311.9Z" style="fill:#fff"></path><path d="M99.24,309.06a2.7,2.7,0,0,1,.46-1.81,1.43,1.43,0,0,1,1.08-.4,1.21,1.21,0,0,1,1.3.89,5.45,5.45,0,0,1,.14,1.36v1.29h-2v1.36a2.52,2.52,0,0,0,.14,1.11.48.48,0,0,0,.45.22.39.39,0,0,0,.4-.26,1.42,1.42,0,0,0,.11-.55c0-.2,0-.37,0-.51v-.55h.91v.3a5.28,5.28,0,0,1-.15,1.52,1.18,1.18,0,0,1-.46.64,1.54,1.54,0,0,1-.77.19,1.91,1.91,0,0,1-.74-.12,1,1,0,0,1-.43-.31,1.57,1.57,0,0,1-.29-.61,5.41,5.41,0,0,1-.12-1.35Zm2.05-.18a3.5,3.5,0,0,0-.06-.88.9.9,0,0,0-.13-.26.34.34,0,0,0-.3-.12.49.49,0,0,0-.52.35,3.31,3.31,0,0,0-.11.94v.84h1.12Z" style="fill:#fff"></path><path d="M105.42,305.66h.94v8.12h-.94v-.58a1,1,0,0,1-1,.64c-.62,0-1-.42-1.1-1.25a7.15,7.15,0,0,1-.06-1V309a2.89,2.89,0,0,1,.4-1.75,1.13,1.13,0,0,1,.91-.4.82.82,0,0,1,.47.15,1,1,0,0,1,.33.39Zm0,3.33a3.22,3.22,0,0,0-.12-1,.45.45,0,0,0-.46-.31.46.46,0,0,0-.47.31,3.36,3.36,0,0,0-.12,1.06v2.76c0,.67.09,1.08.27,1.22a.46.46,0,0,0,.31.08.47.47,0,0,0,.32-.1c.18-.16.27-.57.27-1.24Z" style="fill:#fff"></path><path d="M107.81,312.87h.79v.91h-.79Z" style="fill:#fff"></path><path d="M151.43,286.84a1.63,1.63,0,0,0,1.61-1.31,8.43,8.43,0,0,0,.15-1.6,8.72,8.72,0,0,0-8.25-8.71,8.74,8.74,0,0,0-17,2.69c0,.23,0,.47,0,.7h0a6.63,6.63,0,0,0-6.62,6.62v0a1.62,1.62,0,0,0,1.64,1.59Z" style="fill:none;stroke:#fff;stroke-linecap:round;stroke-miterlimit:10"></path><path d="M123.88,280a6.43,6.43,0,1,1,7.92-9.37" style="fill:none;stroke:#fff;stroke-linecap:round;stroke-miterlimit:10"></path><line x1="126.38" y1="261.95" x2="126.38" y2="266.06" style="fill:none;stroke:#fff;stroke-linecap:round;stroke-miterlimit:10"></line><line x1="114.56" y1="273.52" x2="118.41" y2="273.52" style="fill:none;stroke:#fff;stroke-linecap:round;stroke-miterlimit:10"></line><line x1="120.47" y1="279.94" x2="117.64" y2="282.26" style="fill:none;stroke:#fff;stroke-linecap:round;stroke-miterlimit:10"></line><line x1="117.9" y1="265.29" x2="120.72" y2="268.12" style="fill:none;stroke:#fff;stroke-linecap:round;stroke-miterlimit:10"></line><path d="M151.43,327.2a1.63,1.63,0,0,0,1.61-1.31,8.43,8.43,0,0,0,.15-1.6,8.72,8.72,0,0,0-8.25-8.71,8.74,8.74,0,0,0-17,2.69c0,.23,0,.47,0,.7h0a6.62,6.62,0,0,0-6.62,6.62v0a1.62,1.62,0,0,0,1.64,1.59Z" style="fill:none;stroke:#fff;stroke-linecap:round;stroke-miterlimit:10"></path><path d="M123.88,320.31a6.43,6.43,0,1,1,7.92-9.37" style="fill:none;stroke:#fff;stroke-linecap:round;stroke-miterlimit:10"></path><line x1="126.38" y1="302.31" x2="126.38" y2="306.42" style="fill:none;stroke:#fff;stroke-linecap:round;stroke-miterlimit:10"></line><line x1="114.56" y1="313.88" x2="118.41" y2="313.88" style="fill:none;stroke:#fff;stroke-linecap:round;stroke-miterlimit:10"></line><line x1="120.47" y1="320.3" x2="117.64" y2="322.62" style="fill:none;stroke:#fff;stroke-linecap:round;stroke-miterlimit:10"></line><line x1="117.9" y1="305.65" x2="120.72" y2="308.48" style="fill:none;stroke:#fff;stroke-linecap:round;stroke-miterlimit:10"></line></g><g id="freepik--Character--inject-4"><ellipse cx="335" cy="436" rx="51" ry="10" style="fill:#FDE047"></ellipse><ellipse cx="335" cy="436" rx="51" ry="10" style="fill:#fff;opacity:0.5"></ellipse><path d="M296.63,360.28a52.1,52.1,0,0,1,13.93-3.57c8.33-1,10.88,1.87,10.88,1.87S308.69,372,296.63,360.28Z" style="fill:#fff;stroke:#263238;stroke-linecap:round;stroke-linejoin:round"></path><path d="M330.44,356.2s8.67-7,15.81-10.54,8.83-1.19,8.83-1.19,0,4.59-5.09,10-9.69,4.76-13.09,4.42A14.53,14.53,0,0,1,330.44,356.2Z" style="fill:#fff;stroke:#263238;stroke-linecap:round;stroke-linejoin:round"></path><path d="M292,301.65s-1.36,6.11,1.19,16.14,6.28,23.11,6.11,24.3-.85,18.36,0,21.76,5.61,4.75,11.22,4.24,7.48-2.38,8.5-5.94,2.72-28.38,2.72-28.38,11,21.41,12.23,25,8.33,5.61,13.77,4.42,7.3-8.16,7.14-12.58-12.41-25.83-12.41-25.83l4.25-23.11-36-18.53Z" style="fill:#fff"></path><g style="clip-path:url(#freepik--clip-path-2--inject-4)"><path d="M343.79,317.78l3-16.13-36-18.53L292,301.65s-1.2,5.4.77,14.38a43.45,43.45,0,0,0,7.84,1.29c11.22,1,16,.64,16,.64S323.22,323.07,343.79,317.78Z" style="fill:#FDE047"></path><path d="M343.79,317.78l3-16.13-36-18.53L292,301.65s-1.2,5.4.77,14.38a43.45,43.45,0,0,0,7.84,1.29c11.22,1,16,.64,16,.64S323.22,323.07,343.79,317.78Z" style="fill:#fff;opacity:0.5"></path></g><path d="M292,301.65s-1.36,6.11,1.19,16.14,6.28,23.11,6.11,24.3-.85,18.36,0,21.76,5.61,4.75,11.22,4.24,7.48-2.38,8.5-5.94,2.72-28.38,2.72-28.38,11,21.41,12.23,25,8.33,5.61,13.77,4.42,7.3-8.16,7.14-12.58-12.41-25.83-12.41-25.83l4.25-23.11-36-18.53Z" style="fill:none;stroke:#263238;stroke-linecap:round;stroke-linejoin:round"></path><path d="M320.76,331.05s-3.4-11.05-3.23-16.49" style="fill:#fff;stroke:#263238;stroke-linecap:round;stroke-linejoin:round"></path><path d="M296.63,360.28s3.9,3.23,11.89,2.55a27.65,27.65,0,0,0,12.92-4.25s-3.91,50.3-3.91,52.51-.51,10-.51,11.73.68,1.69.68,4.24,0,4.25-.85,5.27-4.08.68-7.14.68-5.1,2.55-9.52,3.74-13.76.51-14.44-1.36,6.46-5.61,10-9.52,6.11-9.51,6.11-11.89S296.63,360.28,296.63,360.28Z" style="fill:#263238;stroke:#263238;stroke-linecap:round;stroke-linejoin:round"></path><path d="M330.44,356.2s28,49.79,28,50.47-.51,6.8-1.36,11.9-3.39,12.57-1.36,12.57,10-4.93,12.75-9.51,3.06-10.2,3.74-11.9,2.21-1.7,3.23-4.76.51-6.12-1.19-7.48-8.33-3.57-8.33-3.57l-10.88-49.45S351.52,357.05,330.44,356.2Z" style="fill:#263238;stroke:#263238;stroke-linecap:round;stroke-linejoin:round"></path><circle cx="370.55" cy="127.46" r="10.37" transform="translate(18.41 299.35) rotate(-45)" style="fill:#FDE047;stroke:#263238;stroke-linecap:round;stroke-linejoin:round"></circle><path d="M402.84,218s4.76-5.61,6.63-6.46,7.13-.51,9-1.87,3.91,1,3.23,3.4-3.23,3.74-4.25,4.08,6.29,1,6.29,1,4.42-7.14,6.29-5.27-1.7,11.89-3.57,13.76-4.59,3.23-12.24,3.06a81.44,81.44,0,0,1-11.38-.85Z" style="fill:#fff;stroke:#263238;stroke-linecap:round;stroke-linejoin:round"></path><path d="M248,198c-.51-.68-2.72-4.93-7.14-6.8s-9.34-.68-11.38-1-4.08.85-3.57,2.72,2.72,2,3.91,2.72-3.74,2.38-5.1,2.38-3.91-6.46-7-4.25,1.53,8.33,4.08,11.39,8,3.4,11.56,3.06,10.7-.51,10.7-.51Z" style="fill:#fff;stroke:#263238;stroke-linecap:round;stroke-linejoin:round"></path><path d="M312.94,173.34s-6.63,1.36-9.69,5.27-24.3,33-24.3,33a2.18,2.18,0,0,0-2.38,0l-1,.85s-25.15-18.53-26.17-18.19S238.5,207.5,238.84,209s31.61,26,36,26.34,5.44,0,6.29-.68,15-10.54,15-10.54l1,13.43s-14.78,31.27-14.95,61c0,0,3.23,8.66,22.43,12.23a9.57,9.57,0,0,0,1.87-2.89c.68-1.69,2.72-9.34,2.72-9.34s1,11.72,2.38,12.74,16.65-.51,31.27-3.74,17.5-6.11,17.5-8.83-5.43-42.66-12.23-59.31l5.1-7.31s6.62,10.37,10,11.56,37.22-5.95,40.28-7.31,2.72-1.53,2.72-2.72-.85-16-3.06-16.48-25.32,3.05-26.17,3.05-2.55-1.36-3.06-1.36h-.51s0-23.45-3.74-31.43-12.07-13.09-22.77-15.81S312.94,173.34,312.94,173.34Z" style="fill:#FDE047"></path><g style="clip-path:url(#freepik--clip-path-3--inject-4)"><g style="opacity:0.2"><path d="M294.92,219.78l-.36-6.35s-2.47,4.24-5.64,6-6,4.23-9.17,4.23S242,208.85,244.12,213.08,264.93,235,272.69,236a25.26,25.26,0,0,0,13.06-1.41L296,226.48Z"></path><path d="M406.23,234.52c-7,1.57-18.54,4.08-25.6,5-10.58,1.41-19.4-1.42-22.22-3.18s-8.47-10.23-8.47-12,2.12-7.41,0-1.77a69.55,69.55,0,0,1-8.81,16.23c-2.83,3.53,2.11,9.52,6,25,3.07,12.28,2.39,33.36,2,42.17,9.23-2.61,11.26-5,11.26-7.28,0-2.72-5.43-42.66-12.23-59.31l5.1-7.31s6.62,10.37,10,11.56,37.22-5.95,40.28-7.31C405.66,235.44,406.14,235.07,406.23,234.52Z"></path><path d="M346.06,195.44c11.29-.7,18.35-6.35,19.76-2.47s2.47,13.05,2.82,18.7.35,9.52.35,9.52a2.27,2.27,0,0,1,3.18,1.41l1.06,2.47,31.52-4.59c-.42-1.83-.94-3.15-1.57-3.29-2.21-.51-25.32,3.05-26.17,3.05s-2.55-1.36-3.06-1.36h-.51s0-23.45-3.74-31.43-12.07-13.09-22.77-15.81a25.63,25.63,0,0,0-2.6-.49,33.63,33.63,0,0,0-15.2,22.18S334.78,196.15,346.06,195.44Z"></path></g></g><path d="M312.94,173.34s-6.63,1.36-9.69,5.27-24.3,33-24.3,33a2.18,2.18,0,0,0-2.38,0l-1,.85s-25.15-18.53-26.17-18.19S238.5,207.5,238.84,209s31.61,26,36,26.34,5.44,0,6.29-.68,15-10.54,15-10.54l1,13.43s-14.78,31.27-14.95,61c0,0,3.23,8.66,22.43,12.23a9.57,9.57,0,0,0,1.87-2.89c.68-1.69,2.72-9.34,2.72-9.34s1,11.72,2.38,12.74,16.65-.51,31.27-3.74,17.5-6.11,17.5-8.83-5.43-42.66-12.23-59.31l5.1-7.31s6.62,10.37,10,11.56,37.22-5.95,40.28-7.31,2.72-1.53,2.72-2.72-.85-16-3.06-16.48-25.32,3.05-26.17,3.05-2.55-1.36-3.06-1.36h-.51s0-23.45-3.74-31.43-12.07-13.09-22.77-15.81S312.94,173.34,312.94,173.34Z" style="fill:none;stroke:#263238;stroke-linecap:round;stroke-linejoin:round"></path><path d="M323.65,187.11s-11.56,20.56-13.77,31.44-.68,80-.68,80" style="fill:none;stroke:#263238;stroke-linecap:round;stroke-linejoin:round"></path><path d="M296.12,224.15s-3.4-17.33-.34-24.47" style="fill:none;stroke:#263238;stroke-linecap:round;stroke-linejoin:round"></path><path d="M298.83,240s20.4,4.59,36.54,1.53" style="fill:none;stroke:#263238;stroke-linecap:round;stroke-linejoin:round"></path><path d="M353.22,232.14s-4.93-8.67-5.27-17.5" style="fill:none;stroke:#263238;stroke-linecap:round;stroke-linejoin:round"></path><path d="M349.65,207.84S359.16,190.5,368,192" style="fill:none;stroke:#263238;stroke-linecap:round;stroke-linejoin:round"></path><path d="M373.44,218.88s-6.12.51-8.84,9" style="fill:none;stroke:#263238;stroke-linecap:round;stroke-linejoin:round"></path><path d="M279,211.58s4.93,2.89,4.08,10.87" style="fill:none;stroke:#263238;stroke-linecap:round;stroke-linejoin:round"></path><polygon points="298.66 257.29 286.77 269.87 286.6 272.93 299.51 261.03 298.66 257.29" style="fill:#263238;stroke:#263238;stroke-linecap:round;stroke-linejoin:round"></polygon><polygon points="331.46 259.16 328.23 262.39 345.06 285.16 348.97 281.25 331.46 259.16" style="fill:#263238;stroke:#263238;stroke-linecap:round;stroke-linejoin:round"></polygon><path d="M291.7,271.91a120.72,120.72,0,0,0,13.76,1" style="fill:none;stroke:#263238;stroke-linecap:round;stroke-linejoin:round"></path><path d="M313.79,273.44a95.65,95.65,0,0,0,18.18-1" style="fill:none;stroke:#263238;stroke-linecap:round;stroke-linejoin:round"></path><path d="M285.92,286.18s7,6.46,20.73,7.65" style="fill:none;stroke:#263238;stroke-linecap:round;stroke-linejoin:round"></path><path d="M314,294.17s15.63.34,27.53-3.4" style="fill:none;stroke:#263238;stroke-linecap:round;stroke-linejoin:round"></path><path d="M324.33,190.5s-6.46,3.4-14.62-5.77-1.53-24.81,6.46-30.42,21.41-7.65,29.57-6.46,11.72,8.5,11.21,20.22-10.19,12.24-20.05,14.79S324.33,190.5,324.33,190.5Z" style="fill:#fff"></path><g style="clip-path:url(#freepik--clip-path-4--inject-4)"><path d="M319,163.31,320.4,169l-3.26-1.9,1.36,2.44-2.72.27,3.81,3-3.27,1.09,3,2.72L318,178.26l6,3.53L328,184s20.66-7.34,22.83-8.7,6.52-10.87,5.71-13.59-6.8-7.07-10.33-8.15S325.84,147.55,319,163.31Z" style="fill:#FDE047"></path><path d="M319,163.31,320.4,169l-3.26-1.9,1.36,2.44-2.72.27,3.81,3-3.27,1.09,3,2.72L318,178.26l6,3.53L328,184s20.66-7.34,22.83-8.7,6.52-10.87,5.71-13.59-6.8-7.07-10.33-8.15S325.84,147.55,319,163.31Z" style="fill:#fff;opacity:0.5"></path></g><path d="M324.33,190.5s-6.46,3.4-14.62-5.77-1.53-24.81,6.46-30.42,21.41-7.65,29.57-6.46,11.72,8.5,11.21,20.22-10.19,12.24-20.05,14.79S324.33,190.5,324.33,190.5Z" style="fill:none;stroke:#263238;stroke-linecap:round;stroke-linejoin:round"></path><path d="M326.53,170.62s0,3.91-.51,9.69a32.59,32.59,0,0,1-1.86,9s13.93-8,17.5-12.58,2.72-16.82,2.72-16.82a77.17,77.17,0,0,1-9.86,6.28Z" style="fill:#fff;stroke:#263238;stroke-linecap:round;stroke-linejoin:round"></path><path d="M347.61,162.12s3.06,3.4-5.78,8.67-15.3,6-18.18,14.62,5.94,9.85,17.84,8.32,24.3-4.58,30.25-15.29,2.38-24.13-6.29-27.36S350.5,155.33,347.61,162.12Z" style="fill:#fff"></path><g style="clip-path:url(#freepik--clip-path-5--inject-4)"><path d="M365.45,151.08c-4.69-1.75-8.68-.36-11.82,2.37-1.47,1.69-2.83,3.33-4,4.73a27,27,0,0,0-1.81,3.38,38.66,38.66,0,0,1,4.88-2.05c1.91-.55,3.26-.55,4.7-1.26s5.36.71,7,.71a28.66,28.66,0,0,1,4.89.82l2.72,4.07a2.86,2.86,0,0,0-.82,1.63c0,.82,0,4.08-1.08,5.44l-.55,5.16-1.63-.54s-3,4.08-3.8,4.35-1.63-1.36-1.63-1.36l-2.72,3.53L359,180.7a85.84,85.84,0,0,0-6,6.53c-1.36,1.9-.28-2.45-.28-2.45L347.58,188v-3l-5.44,3.81-.81-1.63-6.8,3.8-.27-3.26-7.34,1.9-.27-1.9-3.5,1.4c.68,5.22,8.45,5.84,18.34,4.56,11.9-1.53,24.3-4.58,30.25-15.29S374.12,154.31,365.45,151.08Z" style="fill:#FDE047"></path><path d="M365.45,151.08c-4.69-1.75-8.68-.36-11.82,2.37-1.47,1.69-2.83,3.33-4,4.73a27,27,0,0,0-1.81,3.38,38.66,38.66,0,0,1,4.88-2.05c1.91-.55,3.26-.55,4.7-1.26s5.36.71,7,.71a28.66,28.66,0,0,1,4.89.82l2.72,4.07a2.86,2.86,0,0,0-.82,1.63c0,.82,0,4.08-1.08,5.44l-.55,5.16-1.63-.54s-3,4.08-3.8,4.35-1.63-1.36-1.63-1.36l-2.72,3.53L359,180.7a85.84,85.84,0,0,0-6,6.53c-1.36,1.9-.28-2.45-.28-2.45L347.58,188v-3l-5.44,3.81-.81-1.63-6.8,3.8-.27-3.26-7.34,1.9-.27-1.9-3.5,1.4c.68,5.22,8.45,5.84,18.34,4.56,11.9-1.53,24.3-4.58,30.25-15.29S374.12,154.31,365.45,151.08Z" style="fill:#fff;opacity:0.5"></path></g><path d="M347.61,162.12s3.06,3.4-5.78,8.67-15.3,6-18.18,14.62,5.94,9.85,17.84,8.32,24.3-4.58,30.25-15.29,2.38-24.13-6.29-27.36S350.5,155.33,347.61,162.12Z" style="fill:none;stroke:#263238;stroke-linecap:round;stroke-linejoin:round"></path><path d="M357,155.16s7.48-6.29,9.69-15.13-3.23-17-9.35-18.52-16.65-1.36-24.3,3.57-8,6.79-8,6.79,18.18-5.94,24.47,5.1S357,155.16,357,155.16Z" style="fill:#263238;stroke:#263238;stroke-linecap:round;stroke-linejoin:round"></path><path d="M322.8,141.73c-1.19-.34-3.91-.34-4.08-3.4s5.27-9.34,10-10.87,17.17-.34,23.12,7.13A30.13,30.13,0,0,1,358,155.33c-.51,3.91-4.75,7.13-8.66,8a6.43,6.43,0,0,1-6.63-2.38c-.51-.67,4.59-2.54,2-9.17s-9.52-12.41-14.79-13.09S322.8,141.73,322.8,141.73Z" style="fill:#FDE047;stroke:#263238;stroke-linecap:round;stroke-linejoin:round"></path><path d="M324.16,136s-4.76,7.31-5.27,15-.51,20.39,5.61,21.07a19.75,19.75,0,0,0,14.95-4.93,40.8,40.8,0,0,0,5.61-5.78,3.32,3.32,0,0,0,3.74-1.18c1.7-2,1.19-3.74.85-6.29S343.87,131.53,324.16,136Z" style="fill:#fff;stroke:#263238;stroke-linecap:round;stroke-linejoin:round"></path><path d="M349.65,153.85v0a25.6,25.6,0,0,0-2.64-7.23c-.9,1.5-1.95,4-.39,6A2.93,2.93,0,0,0,349.65,153.85Z" style="fill:#263238"></path><path d="M346.36,145.41c-3-5.1-8.46-10.46-17.67-10.06-.27,1.78,0,5.15,4.83,7.57A26.83,26.83,0,0,0,346.36,145.41Z" style="fill:#263238"></path><path d="M328.91,143.94s-1.36,2.38-2.72,2.72-4.75,1.87-3.22,3.4,4.92.17,4.92.17" style="fill:none;stroke:#263238;stroke-linecap:round;stroke-linejoin:round"></path><path d="M322.29,153.29s2.38,2.72,7.47.85" style="fill:none;stroke:#263238;stroke-linecap:round;stroke-linejoin:round"></path><path d="M332.14,147s3.57-2,5.27,1.19" style="fill:none;stroke:#263238;stroke-linecap:round;stroke-linejoin:round"></path><path d="M326,145.3a2.5,2.5,0,0,0-3.56.34" style="fill:none;stroke:#263238;stroke-linecap:round;stroke-linejoin:round"></path></g><g id="freepik--Snow--inject-4"><path d="M283.15,193.48c-.85.77-2.66.14-4-1.39s-1.8-3.39-.95-4.15,2.66-.15,4,1.38S284,192.72,283.15,193.48Z" style="fill:#fff;stroke:#263238;stroke-linecap:round;stroke-miterlimit:10;stroke-width:0.5px"></path><path d="M357.36,225.38c-.85.76-2.66.14-4-1.39s-1.8-3.39-.95-4.16,2.66-.14,4,1.39S358.21,224.61,357.36,225.38Z" style="fill:#fff;stroke:#263238;stroke-linecap:round;stroke-miterlimit:10;stroke-width:0.5px"></path><path d="M231.11,187.09c-.85.77-2.65.15-4-1.38s-1.8-3.4-1-4.16,2.65-.15,4,1.39S232,186.33,231.11,187.09Z" style="fill:#fff;stroke:#263238;stroke-linecap:round;stroke-miterlimit:10;stroke-width:0.5px"></path><path d="M201.79,192c-.85.76-2.65.14-4-1.39s-1.8-3.4-.95-4.16,2.65-.14,4,1.39S202.64,191.26,201.79,192Z" style="fill:#fff;stroke:#263238;stroke-linecap:round;stroke-miterlimit:10;stroke-width:0.5px"></path><path d="M253.36,219.22c-.42.38-1.33.07-2-.69s-.91-1.7-.48-2.08,1.33-.07,2,.69S253.79,218.84,253.36,219.22Z" style="fill:#fff;stroke:#263238;stroke-linecap:round;stroke-miterlimit:10;stroke-width:0.5px"></path><path d="M267.4,173c-.43.38-1.33.07-2-.7s-.9-1.69-.47-2.07,1.32-.08,2,.69S267.82,172.6,267.4,173Z" style="fill:#fff;stroke:#263238;stroke-linecap:round;stroke-miterlimit:10;stroke-width:0.5px"></path><path d="M293.44,229.25c-.43.38-1.33.07-2-.69s-.9-1.7-.48-2.08,1.33-.07,2,.69S293.86,228.87,293.44,229.25Z" style="fill:#fff;stroke:#263238;stroke-linecap:round;stroke-miterlimit:10;stroke-width:0.5px"></path><path d="M282.11,129c-.85.77-2.66.15-4-1.39s-1.8-3.39-.95-4.15,2.66-.15,4,1.38S283,128.22,282.11,129Z" style="fill:#fff;stroke:#263238;stroke-linecap:round;stroke-miterlimit:10;stroke-width:0.5px"></path><path d="M236.06,113.25c-.85.77-2.65.14-4-1.39s-1.8-3.39-.95-4.15,2.66-.15,4,1.38S236.92,112.49,236.06,113.25Z" style="fill:#fff;stroke:#263238;stroke-linecap:round;stroke-miterlimit:10;stroke-width:0.5px"></path><path d="M252.32,154.72c-.42.38-1.33.07-2-.69s-.91-1.7-.48-2.08,1.33-.07,2,.69S252.75,154.34,252.32,154.72Z" style="fill:#fff;stroke:#263238;stroke-linecap:round;stroke-miterlimit:10;stroke-width:0.5px"></path><path d="M266.36,108.48c-.43.38-1.33.07-2-.69s-.9-1.7-.47-2.08,1.32-.08,2,.69S266.78,108.1,266.36,108.48Z" style="fill:#fff;stroke:#263238;stroke-linecap:round;stroke-miterlimit:10;stroke-width:0.5px"></path><path d="M223.52,141.09c-.42.39-1.32.08-2-.69s-.9-1.7-.48-2.08,1.33-.07,2,.69S224,140.71,223.52,141.09Z" style="fill:#fff;stroke:#263238;stroke-linecap:round;stroke-miterlimit:10;stroke-width:0.5px"></path><path d="M292.4,164.75c-.43.38-1.33.07-2-.69s-.9-1.7-.48-2.08,1.33-.07,2,.69S292.82,164.37,292.4,164.75Z" style="fill:#fff;stroke:#263238;stroke-linecap:round;stroke-miterlimit:10;stroke-width:0.5px"></path><path d="M347.15,122.48c-.85.77-2.66.14-4-1.39s-1.8-3.39-.95-4.15,2.66-.15,4,1.38S348,121.72,347.15,122.48Z" style="fill:#fff;stroke:#263238;stroke-linecap:round;stroke-miterlimit:10;stroke-width:0.5px"></path><path d="M315.15,69.48c-.85.77-2.66.14-4-1.39s-1.8-3.39-.95-4.15,2.66-.15,4,1.38S316,68.72,315.15,69.48Z" style="fill:#fff;stroke:#263238;stroke-linecap:round;stroke-miterlimit:10;stroke-width:0.5px"></path><path d="M317.36,148.22c-.42.38-1.33.07-2-.69s-.91-1.7-.48-2.08,1.33-.07,2,.69S317.79,147.84,317.36,148.22Z" style="fill:#fff;stroke:#263238;stroke-linecap:round;stroke-miterlimit:10;stroke-width:0.5px"></path><path d="M331.4,102c-.43.38-1.33.07-2-.7s-.9-1.69-.47-2.07,1.32-.08,2,.69S331.82,101.6,331.4,102Z" style="fill:#fff;stroke:#263238;stroke-linecap:round;stroke-miterlimit:10;stroke-width:0.5px"></path><path d="M357.44,158.25c-.43.38-1.33.07-2-.69s-.9-1.7-.48-2.08,1.33-.07,2,.69S357.86,157.87,357.44,158.25Z" style="fill:#fff;stroke:#263238;stroke-linecap:round;stroke-miterlimit:10;stroke-width:0.5px"></path><path d="M399.61,96.87c-.86.76-2.66.14-4-1.39s-1.8-3.39-.95-4.16,2.66-.14,4,1.39S400.46,96.1,399.61,96.87Z" style="fill:#fff;stroke:#263238;stroke-linecap:round;stroke-miterlimit:10;stroke-width:0.5px"></path><path d="M373.11,92.75c-.86.77-2.66.14-4-1.39s-1.8-3.39-.95-4.16,2.66-.14,4,1.39S374,92,373.11,92.75Z" style="fill:#fff;stroke:#263238;stroke-linecap:round;stroke-miterlimit:10;stroke-width:0.5px"></path><path d="M369.82,122.61c-.42.38-1.33.07-2-.7s-.91-1.69-.48-2.08,1.33-.07,2,.7S370.25,122.22,369.82,122.61Z" style="fill:#fff;stroke:#263238;stroke-linecap:round;stroke-miterlimit:10;stroke-width:0.5px"></path><path d="M383.86,76.36c-.43.39-1.33.08-2-.69s-.9-1.7-.47-2.08,1.32-.07,2,.69S384.28,76,383.86,76.36Z" style="fill:#fff;stroke:#263238;stroke-linecap:round;stroke-miterlimit:10;stroke-width:0.5px"></path><path d="M409.9,132.64c-.43.38-1.33.07-2-.7s-.9-1.69-.48-2.08,1.33-.07,2,.7S410.32,132.25,409.9,132.64Z" style="fill:#fff;stroke:#263238;stroke-linecap:round;stroke-miterlimit:10;stroke-width:0.5px"></path><path d="M413.61,198.87c-.86.76-2.66.14-4-1.39s-1.8-3.39-.95-4.16,2.66-.14,4,1.39S414.46,198.1,413.61,198.87Z" style="fill:#fff;stroke:#263238;stroke-linecap:round;stroke-miterlimit:10;stroke-width:0.5px"></path><path d="M371.07,179.25c-.86.77-2.66.14-4-1.39s-1.8-3.39-.95-4.15,2.66-.15,4,1.38S371.92,178.49,371.07,179.25Z" style="fill:#fff;stroke:#263238;stroke-linecap:round;stroke-miterlimit:10;stroke-width:0.5px"></path><path d="M383.82,224.61c-.42.38-1.33.07-2-.7s-.91-1.69-.48-2.08,1.33-.07,2,.7S384.25,224.22,383.82,224.61Z" style="fill:#fff;stroke:#263238;stroke-linecap:round;stroke-miterlimit:10;stroke-width:0.5px"></path><path d="M397.86,178.36c-.43.39-1.33.08-2-.69s-.9-1.7-.47-2.08,1.32-.07,2,.69S398.28,178,397.86,178.36Z" style="fill:#fff;stroke:#263238;stroke-linecap:round;stroke-miterlimit:10;stroke-width:0.5px"></path><path d="M302.13,81.79c-.43.38-1.33.07-2-.7s-.9-1.69-.47-2.08,1.32-.07,2,.7S302.55,81.4,302.13,81.79Z" style="fill:#fff;stroke:#263238;stroke-linecap:round;stroke-miterlimit:10;stroke-width:0.5px"></path><path d="M423.9,234.64c-.43.38-1.33.07-2-.7s-.9-1.69-.48-2.08,1.33-.07,2,.7S424.32,234.25,423.9,234.64Z" style="fill:#fff;stroke:#263238;stroke-linecap:round;stroke-miterlimit:10;stroke-width:0.5px"></path><path d="M430.07,253.25c-.86.77-2.66.14-4-1.39s-1.8-3.39-.95-4.15,2.66-.15,4,1.38S430.92,252.49,430.07,253.25Z" style="fill:#fff;stroke:#263238;stroke-linecap:round;stroke-miterlimit:10;stroke-width:0.5px"></path><path d="M403.56,249.14c-.85.76-2.65.14-4-1.39s-1.8-3.4-.95-4.16,2.66-.14,4,1.39S404.42,248.37,403.56,249.14Z" style="fill:#fff;stroke:#263238;stroke-linecap:round;stroke-miterlimit:10;stroke-width:0.5px"></path><path d="M400.28,279c-.42.38-1.33.07-2-.69s-.9-1.7-.47-2.08,1.33-.07,2,.69S400.71,278.61,400.28,279Z" style="fill:#fff;stroke:#263238;stroke-linecap:round;stroke-miterlimit:10;stroke-width:0.5px"></path><path d="M234.49,73.5c-.43.38-1.33.07-2-.69s-.9-1.7-.48-2.08,1.33-.07,2,.69S234.91,73.12,234.49,73.5Z" style="fill:#fff;stroke:#263238;stroke-linecap:round;stroke-miterlimit:10;stroke-width:0.5px"></path><path d="M414.32,232.75c-.43.38-1.33.07-2-.69s-.9-1.7-.47-2.08,1.32-.08,2,.69S414.74,232.37,414.32,232.75Z" style="fill:#fff;stroke:#263238;stroke-linecap:round;stroke-miterlimit:10;stroke-width:0.5px"></path><path d="M440.36,289c-.43.38-1.33.07-2-.69s-.9-1.7-.48-2.08,1.33-.07,2,.69S440.78,288.64,440.36,289Z" style="fill:#fff;stroke:#263238;stroke-linecap:round;stroke-miterlimit:10;stroke-width:0.5px"></path><path d="M330.58,330.86c-.85.77-2.65.15-4-1.38s-1.8-3.4-.95-4.16,2.65-.15,4,1.39S331.43,330.1,330.58,330.86Z" style="fill:#fff;stroke:#263238;stroke-linecap:round;stroke-miterlimit:10;stroke-width:0.5px"></path><path d="M318.11,255.75c-.86.77-2.66.14-4-1.39s-1.8-3.39-.95-4.16,2.66-.14,4,1.39S319,255,318.11,255.75Z" style="fill:#fff;stroke:#263238;stroke-linecap:round;stroke-miterlimit:10;stroke-width:0.5px"></path><path d="M314.82,285.61c-.42.38-1.33.07-2-.7s-.91-1.69-.48-2.08,1.33-.07,2,.7S315.25,285.22,314.82,285.61Z" style="fill:#fff;stroke:#263238;stroke-linecap:round;stroke-miterlimit:10;stroke-width:0.5px"></path><path d="M328.86,239.36c-.43.39-1.33.08-2-.69s-.9-1.7-.47-2.08,1.32-.07,2,.69S329.28,239,328.86,239.36Z" style="fill:#fff;stroke:#263238;stroke-linecap:round;stroke-miterlimit:10;stroke-width:0.5px"></path><path d="M354.9,295.64c-.43.38-1.33.07-2-.7s-.9-1.69-.48-2.08,1.33-.07,2,.7S355.32,295.25,354.9,295.64Z" style="fill:#fff;stroke:#263238;stroke-linecap:round;stroke-miterlimit:10;stroke-width:0.5px"></path><path d="M206.38,263.72c.69-.91,2.58-.64,4.22.61s2.41,3,1.72,3.9-2.59.64-4.23-.6S205.69,264.63,206.38,263.72Z" style="fill:#fff;stroke:#263238;stroke-linecap:round;stroke-miterlimit:10;stroke-width:0.5px"></path><path d="M273.33,277c.69-.91,2.58-.64,4.22.61s2.41,3,1.72,3.9-2.58.64-4.22-.6S272.64,277.9,273.33,277Z" style="fill:#fff;stroke:#263238;stroke-linecap:round;stroke-miterlimit:10;stroke-width:0.5px"></path><path d="M238,286.38c.69-.91,2.58-.64,4.22.61s2.41,3,1.72,3.9-2.59.64-4.23-.6S237.32,287.29,238,286.38Z" style="fill:#fff;stroke:#263238;stroke-linecap:round;stroke-miterlimit:10;stroke-width:0.5px"></path><path d="M271,247.05c.34-.45,1.29-.32,2.11.31s1.2,1.49.86,1.95-1.3.32-2.12-.3S270.6,247.51,271,247.05Z" style="fill:#fff;stroke:#263238;stroke-linecap:round;stroke-miterlimit:10;stroke-width:0.5px"></path><path d="M265.85,295.11c.34-.46,1.29-.32,2.11.3s1.2,1.5.86,1.95-1.29.32-2.11-.3S265.5,295.56,265.85,295.11Z" style="fill:#fff;stroke:#263238;stroke-linecap:round;stroke-miterlimit:10;stroke-width:0.5px"></path><path d="M229.7,244.73c.35-.45,1.29-.32,2.11.3s1.21,1.5.86,2-1.29.32-2.11-.31S229.35,245.19,229.7,244.73Z" style="fill:#fff;stroke:#263238;stroke-linecap:round;stroke-miterlimit:10;stroke-width:0.5px"></path><path d="M221.09,353.43c.69-.92,2.58-.64,4.22.6s2.41,3,1.72,3.91-2.58.64-4.22-.61S220.4,354.34,221.09,353.43Z" style="fill:#fff;stroke:#263238;stroke-linecap:round;stroke-miterlimit:10;stroke-width:0.5px"></path><path d="M247.89,352.49c.69-.91,2.58-.64,4.22.6s2.41,3,1.72,3.91-2.58.64-4.22-.61S247.2,353.4,247.89,352.49Z" style="fill:#fff;stroke:#263238;stroke-linecap:round;stroke-miterlimit:10;stroke-width:0.5px"></path><path d="M245.5,322.55c.35-.46,1.3-.32,2.12.3s1.2,1.5.85,1.95-1.29.32-2.11-.3S245.16,323,245.5,322.55Z" style="fill:#fff;stroke:#263238;stroke-linecap:round;stroke-miterlimit:10;stroke-width:0.5px"></path><path d="M185.6,110.7c.34-.46,1.29-.32,2.11.3s1.2,1.5.86,2-1.29.32-2.11-.3S185.25,111.15,185.6,110.7Z" style="fill:#fff;stroke:#263238;stroke-linecap:round;stroke-miterlimit:10;stroke-width:0.5px"></path><path d="M240.41,370.6c.34-.45,1.29-.32,2.11.31s1.2,1.49.86,1.95-1.29.32-2.11-.3S240.06,371.06,240.41,370.6Z" style="fill:#fff;stroke:#263238;stroke-linecap:round;stroke-miterlimit:10;stroke-width:0.5px"></path><path d="M204.26,320.23c.35-.46,1.29-.32,2.11.3s1.2,1.5.86,2-1.29.32-2.11-.3S203.91,320.68,204.26,320.23Z" style="fill:#fff;stroke:#263238;stroke-linecap:round;stroke-miterlimit:10;stroke-width:0.5px"></path><path d="M368.37,338.52c.69-.91,2.58-.64,4.22.61s2.41,3,1.72,3.9-2.58.64-4.22-.6S367.68,339.43,368.37,338.52Z" style="fill:#fff;stroke:#263238;stroke-linecap:round;stroke-miterlimit:10;stroke-width:0.5px"></path><path d="M395.17,337.58c.7-.91,2.59-.64,4.23.61s2.4,3,1.71,3.9-2.58.64-4.22-.6S394.48,338.49,395.17,337.58Z" style="fill:#fff;stroke:#263238;stroke-linecap:round;stroke-miterlimit:10;stroke-width:0.5px"></path><path d="M392.79,307.64c.34-.45,1.29-.32,2.11.31s1.2,1.49.86,1.95-1.29.32-2.11-.3S392.44,308.1,392.79,307.64Z" style="fill:#fff;stroke:#263238;stroke-linecap:round;stroke-miterlimit:10;stroke-width:0.5px"></path><path d="M439.3,335c.34-.46,1.29-.32,2.11.3s1.2,1.5.86,2-1.29.32-2.11-.3S439,335.42,439.3,335Z" style="fill:#fff;stroke:#263238;stroke-linecap:round;stroke-miterlimit:10;stroke-width:0.5px"></path><path d="M387.69,355.7c.35-.46,1.29-.32,2.11.3s1.21,1.5.86,1.95-1.29.32-2.11-.3S387.34,356.15,387.69,355.7Z" style="fill:#fff;stroke:#263238;stroke-linecap:round;stroke-miterlimit:10;stroke-width:0.5px"></path><path d="M351.54,305.32c.35-.45,1.29-.32,2.11.3s1.21,1.5.86,2-1.29.32-2.11-.31S351.2,305.78,351.54,305.32Z" style="fill:#fff;stroke:#263238;stroke-linecap:round;stroke-miterlimit:10;stroke-width:0.5px"></path><path d="M309.58,395.67c.7-.91,2.59-.64,4.23.6s2.41,3,1.71,3.91-2.58.64-4.22-.61S308.89,396.58,309.58,395.67Z" style="fill:#fff;stroke:#263238;stroke-linecap:round;stroke-miterlimit:10;stroke-width:0.5px"></path><path d="M336.39,394.73c.69-.91,2.58-.64,4.22.61s2.41,3,1.72,3.9-2.59.64-4.23-.6S335.69,395.64,336.39,394.73Z" style="fill:#fff;stroke:#263238;stroke-linecap:round;stroke-miterlimit:10;stroke-width:0.5px"></path><path d="M334,364.79c.35-.46,1.29-.32,2.11.3s1.21,1.5.86,2-1.29.32-2.11-.31S333.66,365.25,334,364.79Z" style="fill:#fff;stroke:#263238;stroke-linecap:round;stroke-miterlimit:10;stroke-width:0.5px"></path><path d="M328.9,412.85c.35-.46,1.3-.32,2.12.3s1.2,1.5.85,2-1.29.32-2.11-.3S328.56,413.3,328.9,412.85Z" style="fill:#fff;stroke:#263238;stroke-linecap:round;stroke-miterlimit:10;stroke-width:0.5px"></path><path d="M292.76,362.47c.34-.46,1.29-.32,2.11.3s1.2,1.5.86,2-1.3.32-2.12-.3S292.41,362.92,292.76,362.47Z" style="fill:#fff;stroke:#263238;stroke-linecap:round;stroke-miterlimit:10;stroke-width:0.5px"></path></g></svg>
