<svg xmlns="http://www.w3.org/2000/svg" viewBox="0 0 500 500"><g id="freepik--background-complete--inject-6"><path d="M112.35,404.72c-.1.1-3.83-3.3-8.34-7.6s-8.08-7.87-8-8,3.83,3.29,8.34,7.59S112.45,404.61,112.35,404.72Z" style="fill:#ebebeb"></path><path d="M174.73,461c8.53-14.83,3.68-32.63-3.77-47.19-1.24-2.43-2.19-5.16-4.38-6.77s-5.63-1.81-7.35.27c-1.43,1.72-1.23,4.23-1.43,6.48a16,16,0,0,1-3.19,8.25c-1.19,1.55-2.9,3-4.85,2.83-2.69-.17-4.32-3-5.46-5.46l-6.36-13.77a25.51,25.51,0,0,0-4.16-6.94c-1.86-2-4.57-3.35-7.21-2.9s-4.9,3.14-4.26,5.78a24.79,24.79,0,0,0,1.36,3.09,2.84,2.84,0,0,1-.37,3.14c-.84.75-2.15.51-3.22.14-3.7-1.29-6.92-3.68-10-6.1s-6.19-4.94-9.76-6.56-7.75-2.28-11.36-.82-6.34,5.38-5.61,9.25,4.41,6.44,7.92,8.21a60.54,60.54,0,0,0,16.52,5.52,5,5,0,0,1,2.87,1.16c1.31,1.38.52,3.74-.85,5-1.54,1.47-3.62,2.22-5.42,3.34s-3.49,2.94-3.36,5.09c.17,3,3.5,4.63,6.38,5.38a51.83,51.83,0,0,0,17.66,1.5c2.12-.19,4.29-.5,6.34.08s4,2.38,3.9,4.53-2.06,3.76-4.12,4.29-4.23.31-6.36.48c-4,.31-8.22,2.59-9,6.52a8.6,8.6,0,0,0,2.4,7.26,19.91,19.91,0,0,0,6.57,4.32,52.25,52.25,0,0,0,26.82,4.7c9.1-1,16.7-3.64,23.14-10.13" style="fill:#ebebeb"></path><path d="M173.41,462.93c-3.29-5.6-1.16-3-6.85-9.41a241.66,241.66,0,0,0-19.86-19.59l-5.47-4.87c-1.8-1.59-3.58-3.17-5.42-4.61a121.62,121.62,0,0,0-11-7.65c-3.63-2.27-7.16-4.29-10.47-6.15s-6.45-3.52-9.36-4.93a96.56,96.56,0,0,0-14.23-5.58c-1.72-.53-3.07-.89-4-1.13l-1-.26-.36-.07a1.63,1.63,0,0,0,.35.12l1,.31c.91.27,2.25.66,4,1.22A101.67,101.67,0,0,1,104.78,406c2.9,1.42,6,3.11,9.31,5s6.82,3.9,10.43,6.17a122.21,122.21,0,0,1,11,7.65c1.83,1.43,3.59,3,5.4,4.6l5.46,4.86a251.1,251.1,0,0,1,19.85,19.52c5.69,6.4,3.57,3.73,6.89,9.29" style="fill:#ebebeb"></path><path d="M135.67,424.49a6.07,6.07,0,0,0-.25-1.16c-.19-.73-.5-1.79-.9-3.1-.8-2.61-2-6.17-3.4-10.09s-2.55-7.5-3.31-10.11c-.38-1.31-.68-2.37-.88-3.1a5.48,5.48,0,0,0-.36-1.13,5.6,5.6,0,0,0,.18,1.17c.14.75.38,1.83.73,3.15.67,2.64,1.8,6.25,3.17,10.18l3.53,10,1,3.05A5.4,5.4,0,0,0,135.67,424.49Z" style="fill:#ebebeb"></path><path d="M101.33,433.42a7.79,7.79,0,0,0,1.33-.44c.85-.31,2.06-.76,3.59-1.27,3-1,7.28-2.35,12-3.57s9.1-2.14,12.26-2.71c1.59-.3,2.87-.51,3.76-.66a6.1,6.1,0,0,0,1.37-.28,8.12,8.12,0,0,0-1.4.09c-.9.09-2.19.24-3.79.49-3.19.49-7.56,1.36-12.33,2.58a123.89,123.89,0,0,0-12,3.72c-1.52.56-2.72,1.06-3.54,1.43A8.28,8.28,0,0,0,101.33,433.42Z" style="fill:#ebebeb"></path><path d="M165.9,453.12a1.56,1.56,0,0,0,0-.49c0-.38,0-.84,0-1.39,0-1.22-.05-3-.14-5.14-.18-4.33-.61-10.3-1.17-16.89s-1-12.56-1.32-16.88c-.12-2.1-.22-3.83-.3-5.12,0-.56-.06-1-.09-1.39a1.61,1.61,0,0,0-.06-.49,1.72,1.72,0,0,0,0,.49v1.4c0,1.21.05,3,.14,5.13.18,4.33.61,10.3,1.17,16.9s1.05,12.55,1.31,16.87c.13,2.1.23,3.83.3,5.12,0,.56.07,1,.09,1.39A1.78,1.78,0,0,0,165.9,453.12Z" style="fill:#ebebeb"></path><path d="M117.6,459.3a1.52,1.52,0,0,0,.49,0l1.41-.16,5.18-.65c4.37-.55,10.42-1.25,17.1-2s12.73-1.51,17.09-2.15c2.18-.32,3.94-.59,5.15-.81l1.4-.26a1.62,1.62,0,0,0,.48-.12,1.73,1.73,0,0,0-.5,0l-1.41.17-5.17.65c-4.37.55-10.42,1.24-17.1,2s-12.73,1.5-17.09,2.14c-2.18.32-3.94.6-5.16.82l-1.39.25A1.79,1.79,0,0,0,117.6,459.3Z" style="fill:#ebebeb"></path><path d="M32.64,201.22l31,31" style="fill:#ebebeb"></path><path d="M63.68,232.26c-.1.1-7.13-6.77-15.7-15.34s-15.44-15.6-15.34-15.7,7.13,6.76,15.71,15.34S63.79,232.16,63.68,232.26Z" style="fill:#ebebeb"></path><path d="M432.45,105c-.09.11-3.82-2.89-8.33-6.7a105.22,105.22,0,0,1-8-7.09c.09-.11,3.82,2.89,8.33,6.7S432.54,104.93,432.45,105Z" style="fill:#ebebeb"></path><path d="M261.52,128.19c-.1.11-3.84-3.29-8.35-7.59s-8.08-7.87-8-8,3.84,3.3,8.34,7.6S261.61,128.09,261.52,128.19Z" style="fill:#ebebeb"></path><path d="M301.07,243c-.1.1-3.83-3.3-8.34-7.6s-8.08-7.87-8-8,3.83,3.29,8.34,7.59S301.17,242.9,301.07,243Z" style="fill:#ebebeb"></path><path d="M475.52,386.84c-.1.11-3.84-3.29-8.34-7.59s-8.08-7.87-8-8,3.84,3.3,8.35,7.6S475.62,386.74,475.52,386.84Z" style="fill:#ebebeb"></path><path d="M453.94,199c-.1.1-3.84-3.3-8.34-7.6s-8.09-7.87-8-8,3.84,3.29,8.35,7.59S454,198.92,453.94,199Z" style="fill:#ebebeb"></path><path d="M168.13,49.07h61.74s-5.46-9.93-21.36-8.49c-15.17,1.38-15.95-4.88-23.66-5.66S170.7,40.07,168.13,49.07Z" style="fill:#ebebeb"></path><path d="M77.74,82.65h76.6s-6.77-12.33-26.49-10.54c-18.83,1.72-19.79-6.06-29.37-7S80.93,71.47,77.74,82.65Z" style="fill:#ebebeb"></path><path d="M334.57,73.83H460.08S449,53.63,416.68,56.57c-30.86,2.8-32.43-9.94-48.12-11.51S339.8,55.52,334.57,73.83Z" style="fill:#f5f5f5"></path><path d="M46,74q15.52,15.52,31,31" style="fill:#e0e0e0"></path><path d="M77,105c-.1.1-7.13-6.77-15.7-15.34S45.85,74.1,46,74s7.13,6.76,15.71,15.34S77.1,104.94,77,105Z" style="fill:#e0e0e0"></path><path d="M44.71,414.17l31,31" style="fill:#e0e0e0"></path><path d="M75.75,445.21c-.1.11-7.13-6.76-15.7-15.33s-15.44-15.61-15.34-15.71,7.13,6.77,15.71,15.34S75.85,445.11,75.75,445.21Z" style="fill:#e0e0e0"></path><path d="M282.54,428.31l31,31" style="fill:#e0e0e0"></path><path d="M313.58,459.35c-.1.1-7.13-6.77-15.7-15.34s-15.44-15.6-15.34-15.7,7.13,6.76,15.7,15.33S313.68,459.25,313.58,459.35Z" style="fill:#e0e0e0"></path><path d="M185.07,77.19q15.51,15.53,31,31" style="fill:#e0e0e0"></path><path d="M216.11,108.23c-.1.1-7.13-6.76-15.71-15.33S185,77.29,185.07,77.19s7.13,6.77,15.7,15.34S216.21,108.13,216.11,108.23Z" style="fill:#e0e0e0"></path><path d="M262.63,43.85l31,31.05" style="fill:#e0e0e0"></path><path d="M293.67,74.9c-.1.1-7.14-6.77-15.71-15.34S262.53,44,262.63,43.85s7.13,6.77,15.7,15.34S293.77,74.79,293.67,74.9Z" style="fill:#e0e0e0"></path><path d="M162.35,117.94c-.1.1-3.83-3.3-8.34-7.6s-8.08-7.87-8-8,3.83,3.29,8.34,7.59S162.45,117.83,162.35,117.94Z" style="fill:#e0e0e0"></path><path d="M379.74,117.94c-.1.1-3.84-3.3-8.34-7.6s-8.08-7.87-8-8,3.84,3.29,8.35,7.59S379.84,117.83,379.74,117.94Z" style="fill:#e0e0e0"></path><path d="M299.07,197.88c-.1.1-3.83-3.3-8.34-7.6s-8.08-7.87-8-8,3.83,3.29,8.34,7.59S299.17,197.77,299.07,197.88Z" style="fill:#e0e0e0"></path><path d="M466.36,300.65c-.1.11-3.83-3.29-8.34-7.59s-8.08-7.87-8-8,3.83,3.3,8.34,7.6S466.46,300.55,466.36,300.65Z" style="fill:#e0e0e0"></path><path d="M388.68,456.61a67.09,67.09,0,0,1-6.19-5.55,64.43,64.43,0,0,1-5.83-5.92,67.09,67.09,0,0,1,6.19,5.55A64.43,64.43,0,0,1,388.68,456.61Z" style="fill:#e0e0e0"></path><path d="M56.32,382.54c-.1.1-3.83-3.3-8.34-7.6s-8.08-7.87-8-8,3.83,3.29,8.34,7.59S56.42,382.43,56.32,382.54Z" style="fill:#e0e0e0"></path><path d="M35.86,303.76c-.1.1-3.83-3.3-8.34-7.6s-8.08-7.87-8-8,3.83,3.3,8.34,7.6S36,303.66,35.86,303.76Z" style="fill:#e0e0e0"></path><path d="M68.62,169.56c-.1.1-3.83-3.3-8.34-7.6s-8.08-7.87-8-8,3.83,3.3,8.34,7.6S68.72,169.46,68.62,169.56Z" style="fill:#e0e0e0"></path></g><g id="freepik--Screen--inject-6"><path d="M430.7,137.07l-21.43,0a5.33,5.33,0,0,0-5.2,5.44v3.89a5.31,5.31,0,0,1-5.21,5.43l-41.76,0a5.32,5.32,0,0,1-5.2-5.44v-3.89a5.33,5.33,0,0,0-5.21-5.44H320.4a16.87,16.87,0,0,0-16.87,16.86l0,270.43a16.87,16.87,0,0,0,16.85,16.87l110.3.06a16.86,16.86,0,0,0,16.87-16.85l.05-270.44A16.85,16.85,0,0,0,430.7,137.07Z" style="fill:#fff"></path><path d="M430.7,137.07h.58a13.32,13.32,0,0,1,1.71.13,15.82,15.82,0,0,1,6.32,2.19,17,17,0,0,1,7.06,8.15,17.42,17.42,0,0,1,1.27,6.85c0,2.49,0,5.14,0,7.94,0,22.47,0,55,.06,95.13s0,88,0,141.09v25.27a18.37,18.37,0,0,1-.64,5.15,17,17,0,0,1-2.16,4.75,18.16,18.16,0,0,1-3.52,3.91,17,17,0,0,1-9.75,3.78c-3.53.1-7,0-10.59.05H399.6l-44.06,0H321.61a17.89,17.89,0,0,1-11-3,17.24,17.24,0,0,1-6.69-9.24,18.46,18.46,0,0,1-.71-5.71v-5.69q0-11.34,0-22.54,0-22.4,0-44.08c0-28.9,0-56.78,0-83.33s0-51.79,0-75.4q0-17.71,0-34.18v-4.09c0-.67.05-1.36.09-2s.17-1.36.35-2a17.18,17.18,0,0,1,3.55-7.16,17.16,17.16,0,0,1,13.76-6.09l14.69,0h10.54a5.41,5.41,0,0,1,3.33.93,5.55,5.55,0,0,1,2.06,2.72,9,9,0,0,1,.35,3.33c0,1.09-.06,2.21.05,3.25a5.3,5.3,0,0,0,1.25,2.81,5,5,0,0,0,2.57,1.6,15.61,15.61,0,0,0,3.07.15h6.09l22.23,0,9.8,0c.78,0,1.56,0,2.3,0a5,5,0,0,0,2.06-.72,5.39,5.39,0,0,0,2.36-3.39,10,10,0,0,0,.13-2.05v-2a11.65,11.65,0,0,1,.09-2,5.58,5.58,0,0,1,.64-1.81,5.35,5.35,0,0,1,2.69-2.38,8.3,8.3,0,0,1,3.36-.36l10.93,0,6.73,0,2.29,0-2.29,0-6.73,0-10.93,0a8.39,8.39,0,0,0-3.29.36,5.16,5.16,0,0,0-2.6,2.31,5.59,5.59,0,0,0-.62,1.76,12.26,12.26,0,0,0-.08,1.93c0,.67,0,1.34,0,2a9.89,9.89,0,0,1-.14,2.09,5.52,5.52,0,0,1-2.44,3.53,5.23,5.23,0,0,1-2.15.76c-.78.07-1.53,0-2.32,0H357.45a6.13,6.13,0,0,1-1.59-.15,5.3,5.3,0,0,1-2.73-1.69,5.68,5.68,0,0,1-1.34-3c-.11-1.12,0-2.18-.05-3.29a8.87,8.87,0,0,0-.33-3.22,5.26,5.26,0,0,0-2-2.56,5.08,5.08,0,0,0-3.14-.86H321.09a16.74,16.74,0,0,0-13.47,6,16.84,16.84,0,0,0-3.46,7c-.17.64-.22,1.31-.34,2s-.08,1.33-.09,2v4.09q0,16.46,0,34.18c0,23.61,0,48.85,0,75.4V395.2q0,11.19,0,22.54v5.69a17.94,17.94,0,0,0,.69,5.56,16.68,16.68,0,0,0,6.49,9,17.23,17.23,0,0,0,10.69,2.95h33.93l44.06,0,21.48,0c3.53,0,7.09,0,10.56-.05a16.57,16.57,0,0,0,9.47-3.67,17.61,17.61,0,0,0,3.42-3.79,16.33,16.33,0,0,0,2.09-4.62,17.62,17.62,0,0,0,.63-5v-5.11q0-10.2,0-20.16c0-53.1.06-100.92.08-141.09s.08-72.66.11-95.13c0-2.8,0-5.45,0-7.94a17.3,17.3,0,0,0-1.23-6.79,16.83,16.83,0,0,0-7-8.12,15.9,15.9,0,0,0-6.28-2.22,12.64,12.64,0,0,0-1.7-.16Z" style="fill:#263238"></path><path d="M433.41,164.37c0,.08-2.79.16-6.22.19s-6.23,0-6.23-.08,2.79-.16,6.22-.19S433.41,164.3,433.41,164.37Z" style="fill:#263238"></path><path d="M433.44,167.56c0,.07-2.79.15-6.23.18s-6.22,0-6.22-.08,2.78-.15,6.22-.18S433.43,167.49,433.44,167.56Z" style="fill:#263238"></path><path d="M433.46,170.74c0,.08-2.78.16-6.22.19s-6.23,0-6.23-.08,2.79-.16,6.23-.19S433.46,170.67,433.46,170.74Z" style="fill:#263238"></path><path d="M320.19,174.38l.26,0,.72,0,2.66-.06-.08.07c0-.59,0-1.23,0-1.93,0-.36,0-.69,0-1.11a1,1,0,0,1,.9-.82c.42,0,.8,0,1.27,0a1,1,0,0,1,.87,1q0,1.35,0,2.82l-.12-.13,3.35,0-.13.13c0-1.35,0-2.75,0-4.18v-1.06a1.11,1.11,0,0,0-.48-.79l-1.46-1.45c-.48-.47-1-.94-1.42-1.39-.23-.23-.45-.46-.68-.68s-.42-.46-.69-.52a.91.91,0,0,0-.77.15c-.21.17-.42.41-.63.61l-1.2,1.21c-.76.79-1.55,1.51-2.12,2.19a2.4,2.4,0,0,0-.17,1.25v1.18c0,.73,0,1.36,0,1.9s0,.89,0,1.22,0,.43,0,.44a1.63,1.63,0,0,1,0-.4c0-.33,0-.72,0-1.2s0-1.19,0-1.92c0-.38,0-.78,0-1.2,0-.22,0-.44,0-.66a1.39,1.39,0,0,1,.18-.71c.62-.76,1.36-1.43,2.12-2.24l1.2-1.22c.21-.21.39-.42.64-.64a1.14,1.14,0,0,1,1-.19,1.83,1.83,0,0,1,.8.57l.69.68c.46.45.94.91,1.42,1.39l1.47,1.44a2.4,2.4,0,0,1,.37.4,1.16,1.16,0,0,1,.18.57c0,.35,0,.71,0,1.07,0,1.43,0,2.83,0,4.18v.13H330l-3.35,0h-.12v-.12c0-1,0-1.92,0-2.81a.81.81,0,0,0-.68-.82c-.38,0-.84,0-1.21,0a.84.84,0,0,0-.73.65c0,.34,0,.73,0,1.07v2h-.07l-2.71,0h-.93Z" style="fill:#263238"></path><path d="M324.17,195.28H322.8v-.5h3.32v.5h-1.38v3.52h-.57Z"></path><path d="M326.07,197.28a1.58,1.58,0,1,1,1.58,1.55A1.51,1.51,0,0,1,326.07,197.28Zm2.61,0a1,1,0,1,0-1,1.07A1,1,0,0,0,328.68,197.28Z"></path><path d="M332.87,194.54v4.26h-.53v-.49a1.28,1.28,0,0,1-1.08.52,1.55,1.55,0,0,1,0-3.1,1.3,1.3,0,0,1,1.06.48v-1.67Zm-.55,2.74a1,1,0,1,0-1,1.07A1,1,0,0,0,332.32,197.28Z"></path><path d="M336.33,197v1.84h-.52v-.41a1.14,1.14,0,0,1-1,.44c-.69,0-1.13-.37-1.13-.89s.32-.89,1.22-.89h.88v-.11c0-.47-.27-.74-.82-.74a1.53,1.53,0,0,0-1,.33l-.23-.41a2,2,0,0,1,1.26-.39C335.86,195.73,336.33,196.13,336.33,197Zm-.55.91v-.43h-.85c-.55,0-.7.21-.7.47s.25.5.67.5A.89.89,0,0,0,335.78,197.87Z"></path><path d="M340,195.76l-1.48,3.34c-.27.64-.62.84-1.08.84a1.12,1.12,0,0,1-.78-.28l.23-.41a.8.8,0,0,0,.55.22c.26,0,.43-.12.58-.47l.1-.21-1.35-3h.58l1.06,2.43,1.05-2.43Z"></path><path d="M413.56,196v2.82h-.39v-2.47h-.64V196Z" style="fill:#FDE047"></path><path d="M414.18,197.39c0-.92.49-1.45,1.15-1.45s1.15.53,1.15,1.45-.49,1.44-1.15,1.44S414.18,198.31,414.18,197.39Zm1.9,0c0-.72-.31-1.09-.75-1.09s-.75.37-.75,1.09.31,1.08.75,1.08S416.08,198.11,416.08,197.39Z" style="fill:#FDE047"></path><path d="M416.86,196.91a.27.27,0,1,1,.27.28A.26.26,0,0,1,416.86,196.91Zm0,1.63a.27.27,0,1,1,.53,0,.27.27,0,1,1-.53,0Z" style="fill:#FDE047"></path><path d="M417.78,197.39c0-.92.49-1.45,1.15-1.45s1.15.53,1.15,1.45-.5,1.44-1.15,1.44S417.78,198.31,417.78,197.39Zm1.89,0c0-.72-.3-1.09-.74-1.09s-.75.37-.75,1.09.3,1.08.75,1.08S419.67,198.11,419.67,197.39Z" style="fill:#FDE047"></path><path d="M420.46,197.39c0-.92.49-1.45,1.15-1.45s1.15.53,1.15,1.45-.49,1.44-1.15,1.44S420.46,198.31,420.46,197.39Zm1.9,0c0-.72-.31-1.09-.75-1.09s-.75.37-.75,1.09.31,1.08.75,1.08S422.36,198.11,422.36,197.39Z" style="fill:#FDE047"></path><path d="M426.61,197.73a1,1,0,0,1-1.08,1.09.9.9,0,0,1-.74-.35v1.11h-.39v-2.92h.37V197a.9.9,0,0,1,.76-.36A1,1,0,0,1,426.61,197.73Zm-.39,0a.72.72,0,1,0-.72.75A.71.71,0,0,0,426.22,197.73Z" style="fill:#FDE047"></path><path d="M430.69,197.57v1.23h-.39v-1.19c0-.42-.2-.62-.55-.62s-.64.24-.64.71v1.1h-.39v-1.19c0-.42-.2-.62-.55-.62s-.64.24-.64.71v1.1h-.39v-2.14h.38V197a.85.85,0,0,1,.73-.34.78.78,0,0,1,.74.4,1,1,0,0,1,.83-.4A.82.82,0,0,1,430.69,197.57Z" style="fill:#FDE047"></path><path d="M400.48,279.41a21.55,21.55,0,0,0,2.79-.12,14.57,14.57,0,0,0,7.15-3.13A13.89,13.89,0,0,0,414,271.9a12.81,12.81,0,0,0,1.18-2.95,13.4,13.4,0,0,0,.39-3.39A14.74,14.74,0,0,0,415,262a15.82,15.82,0,0,0-1.52-3.54,13.87,13.87,0,0,0-6-5.52l-.13-.07v-.15a10,10,0,0,0-17-7.42l-.33.34-.1-.46a19.27,19.27,0,0,0-11.81-13.52,18.21,18.21,0,0,0-4.78-1.19,7.06,7.06,0,0,0-1.21-.1c-.41,0-.82,0-1.22,0a17.28,17.28,0,0,0-2.4.28,18.06,18.06,0,0,0-8.4,4,20.58,20.58,0,0,0-5.38,7.13,18.2,18.2,0,0,0-1.57,8.24l0,.31-.31-.07a13.82,13.82,0,0,0-9.29,1.1,16.38,16.38,0,0,0-3.68,2.48,15.87,15.87,0,0,0-2.65,3.25,13.53,13.53,0,0,0-1.46,3.66,12,12,0,0,0-.26,3.65,14.42,14.42,0,0,0,1.92,6.18,14.89,14.89,0,0,0,6.65,6.15,20,20,0,0,0,3.11,1l-.21,0-.62-.12a5.59,5.59,0,0,1-1-.25,9.35,9.35,0,0,1-1.34-.49,14.83,14.83,0,0,1-6.83-6.15,14.6,14.6,0,0,1-2-6.28,13,13,0,0,1,.24-3.76,14,14,0,0,1,1.49-3.77,15.87,15.87,0,0,1,2.71-3.36,17,17,0,0,1,3.76-2.57,14.29,14.29,0,0,1,9.59-1.16l-.28.24a18.62,18.62,0,0,1,1.59-8.47,21.2,21.2,0,0,1,5.49-7.32,18.61,18.61,0,0,1,8.64-4.16,17,17,0,0,1,2.47-.28c.42,0,.84,0,1.26,0a6.58,6.58,0,0,1,1.25.09,18.72,18.72,0,0,1,4.91,1.23A19.76,19.76,0,0,1,390.39,245l-.43-.12a10.43,10.43,0,0,1,17.84,7.79l-.13-.21a14.22,14.22,0,0,1,6.2,5.73,16.16,16.16,0,0,1,1.54,3.64,15,15,0,0,1,.53,3.7,14,14,0,0,1-.42,3.47,13.36,13.36,0,0,1-1.23,3,14.2,14.2,0,0,1-3.71,4.32,14.4,14.4,0,0,1-7.29,3.05,10.48,10.48,0,0,1-2.1.06C400.72,279.45,400.48,279.41,400.48,279.41Z" style="fill:#FDE047"></path><path d="M374.35,270a56.5,56.5,0,0,1-3.66,6.6,56.38,56.38,0,0,1-4.11,6.33,52.32,52.32,0,0,1,3.66-6.6A52.25,52.25,0,0,1,374.35,270Z" style="fill:#FDE047"></path><path d="M386.52,270a53.12,53.12,0,0,1-3.66,6.6,56.38,56.38,0,0,1-4.11,6.33,55.58,55.58,0,0,1,3.66-6.6A55.26,55.26,0,0,1,386.52,270Z" style="fill:#FDE047"></path><path d="M398.7,270a56.5,56.5,0,0,1-3.66,6.6,56.38,56.38,0,0,1-4.11,6.33,52.32,52.32,0,0,1,3.66-6.6A55.26,55.26,0,0,1,398.7,270Z" style="fill:#FDE047"></path><path d="M360.25,288.09a52.32,52.32,0,0,1-3.66,6.6,55.26,55.26,0,0,1-4.11,6.33,108.54,108.54,0,0,1,7.77-12.93Z" style="fill:#FDE047"></path><path d="M372.43,288.09a55.58,55.58,0,0,1-3.66,6.6,55.26,55.26,0,0,1-4.11,6.33,53.12,53.12,0,0,1,3.66-6.6A53.25,53.25,0,0,1,372.43,288.09Z" style="fill:#FDE047"></path><path d="M384.6,288.09a52.32,52.32,0,0,1-3.66,6.6,55.26,55.26,0,0,1-4.11,6.33,108.54,108.54,0,0,1,7.77-12.93Z" style="fill:#FDE047"></path><path d="M397.32,288.37a56.5,56.5,0,0,1-3.66,6.6,56.38,56.38,0,0,1-4.11,6.33,53.12,53.12,0,0,1,3.66-6.6A56.38,56.38,0,0,1,397.32,288.37Z" style="fill:#FDE047"></path><path d="M328.28,324.26H326.9v-.5h3.32v.5h-1.38v3.52h-.56Z"></path><path d="M330.17,326.26a1.58,1.58,0,1,1,1.59,1.55A1.51,1.51,0,0,1,330.17,326.26Zm2.61,0a1,1,0,1,0-1,1.07A1,1,0,0,0,332.78,326.26Z"></path><path d="M339.15,326v1.75h-.55v-1.69c0-.6-.29-.89-.79-.89s-.91.35-.91,1v1.57h-.55v-1.69c0-.6-.29-.89-.78-.89a.88.88,0,0,0-.92,1v1.57h-.55v-3h.53v.45a1.23,1.23,0,0,1,1.05-.48,1.12,1.12,0,0,1,1.05.56,1.39,1.39,0,0,1,1.18-.56A1.16,1.16,0,0,1,339.15,326Z"></path><path d="M339.91,326.26a1.58,1.58,0,1,1,1.58,1.55A1.51,1.51,0,0,1,339.91,326.26Zm2.61,0a1,1,0,1,0-1,1.07A1,1,0,0,0,342.52,326.26Z"></path><path d="M345.47,324.71v.53h-.12a.91.91,0,0,0-1,1v1.52h-.55v-3h.53v.51A1.14,1.14,0,0,1,345.47,324.71Z"></path><path d="M347.79,324.71v.53h-.13a.9.9,0,0,0-1,1v1.52h-.56v-3h.53v.51A1.17,1.17,0,0,1,347.79,324.71Z"></path><path d="M348.16,326.26a1.58,1.58,0,1,1,1.58,1.55A1.51,1.51,0,0,1,348.16,326.26Zm2.6,0a1,1,0,1,0-1,1.07A1,1,0,0,0,350.76,326.26Z"></path><path d="M356.6,324.74l-1.13,3h-.53l-.88-2.31-.89,2.31h-.52l-1.14-3H352l.88,2.42.92-2.42h.46l.9,2.43.91-2.43Z"></path><path d="M403.81,323.76v4h-.57v-3.52h-.9v-.5Z"></path><path d="M404.69,325.77c0-1.31.7-2,1.64-2s1.64.74,1.64,2-.7,2.05-1.64,2.05S404.69,327.08,404.69,325.77Zm2.71,0c0-1-.44-1.54-1.07-1.54s-1.06.51-1.06,1.54.43,1.54,1.06,1.54S407.4,326.8,407.4,325.77Z"></path><path d="M413.19,323.52v4.26h-.53v-.48a1.3,1.3,0,0,1-1.09.51,1.55,1.55,0,0,1,0-3.1,1.31,1.31,0,0,1,1.07.49v-1.68Zm-.55,2.74a1,1,0,1,0-1,1.07A1,1,0,0,0,412.64,326.26Z"></path><path d="M416.65,325.94v1.84h-.53v-.4a1.13,1.13,0,0,1-1,.43c-.68,0-1.12-.37-1.12-.89s.32-.89,1.22-.89h.87v-.11c0-.47-.27-.74-.81-.74a1.53,1.53,0,0,0-1,.33l-.23-.41a2,2,0,0,1,1.25-.39C416.17,324.71,416.65,325.11,416.65,325.94Zm-.56.91v-.43h-.84c-.55,0-.7.22-.7.47s.25.5.67.5A.87.87,0,0,0,416.09,326.85Z"></path><path d="M420.3,324.74l-1.47,3.34c-.27.64-.62.85-1.08.85a1.09,1.09,0,0,1-.78-.29l.23-.41a.8.8,0,0,0,.55.22c.26,0,.43-.12.57-.47l.1-.21-1.34-3h.57l1.07,2.43,1-2.43Z"></path><path d="M420.4,327.46l.23-.44a2,2,0,0,0,1.07.32c.51,0,.72-.16.72-.42,0-.68-1.92-.09-1.92-1.3,0-.54.48-.91,1.27-.91a2.21,2.21,0,0,1,1.1.27l-.23.44a1.58,1.58,0,0,0-.88-.24c-.48,0-.72.18-.72.42,0,.71,1.93.13,1.93,1.31,0,.55-.5.9-1.31.9A2.2,2.2,0,0,1,420.4,327.46Z"></path><path d="M357.22,373.55a2.15,2.15,0,0,1-.55,0l-1.59,0-6,.08-21.56.18h0a8.15,8.15,0,0,1-5.08-2.85,8.38,8.38,0,0,1-2-5.87c.27-4.45,5-8.27,9.84-7.3l-.32.27a10.84,10.84,0,0,1,.17-2.94,12.3,12.3,0,0,1,1-2.87,11.66,11.66,0,0,1,4.77-4.82,9.8,9.8,0,0,1,6.48-.94,11.14,11.14,0,0,1,8.69,8l-.4-.1a5.89,5.89,0,0,1,10.23,4l-.12-.18a8,8,0,0,1,3.64,3.17,8.37,8.37,0,0,1,1.26,4.14,7.31,7.31,0,0,1-.87,3.66,8.18,8.18,0,0,1-2,2.44,8,8,0,0,1-4,1.77,5,5,0,0,1-1.52,0s.53,0,1.51-.13a8.21,8.21,0,0,0,3.85-1.83,7.39,7.39,0,0,0,2.72-5.92,8.09,8.09,0,0,0-1.24-4,7.72,7.72,0,0,0-3.49-3l-.13-.05v-.14A5.46,5.46,0,0,0,351,354.8l-.3.33-.11-.44a10.67,10.67,0,0,0-8.32-7.62,9.25,9.25,0,0,0-6.15.9,11.15,11.15,0,0,0-4.55,4.6,11.89,11.89,0,0,0-1,2.73,10.16,10.16,0,0,0-.16,2.79l0,.35-.34-.07c-4.45-.92-9,2.7-9.23,6.83a7.81,7.81,0,0,0,1.91,5.53,7.59,7.59,0,0,0,4.76,2.71h21.54l6,0,1.58,0Z" style="fill:#FDE047"></path><path d="M361.39,357.85c0-.05.43-.19,1.13-.63a7.64,7.64,0,0,0,2.4-2.49A7.63,7.63,0,0,0,363,344.55a8.88,8.88,0,0,0-5.82-1.95,10.23,10.23,0,0,0-4.88,1.51,14.11,14.11,0,0,0-3.5,3.25,1.2,1.2,0,0,1,.15-.31,6.25,6.25,0,0,1,.53-.81,10.43,10.43,0,0,1,2.63-2.44,10.18,10.18,0,0,1,5.05-1.68,9.21,9.21,0,0,1,6.16,2,8.41,8.41,0,0,1,3.21,5.63,8.26,8.26,0,0,1-1.28,5.16,7.27,7.27,0,0,1-2.6,2.46,4.54,4.54,0,0,1-.9.38C361.51,357.84,361.4,357.87,361.39,357.85Z" style="fill:#FDE047"></path><path d="M357.05,333.33a18,18,0,0,1-.35,6,8.93,8.93,0,0,1-.09-3A9.21,9.21,0,0,1,357.05,333.33Z" style="fill:#FDE047"></path><path d="M365.24,335.72a7.66,7.66,0,0,1-1.18,2.59,8,8,0,0,1-1.63,2.32,7.74,7.74,0,0,1,1.18-2.58A8.12,8.12,0,0,1,365.24,335.72Z" style="fill:#FDE047"></path><path d="M370.79,341.38c.09.11-.84,1-2.06,1.9a7.9,7.9,0,0,1-2.39,1.5c-.08-.12.84-1,2.07-1.91A7.54,7.54,0,0,1,370.79,341.38Z" style="fill:#FDE047"></path><path d="M373.21,348.62a7.39,7.39,0,0,1-5.27.7,12.54,12.54,0,0,1,2.63-.37A12.82,12.82,0,0,1,373.21,348.62Z" style="fill:#FDE047"></path><path d="M369.93,357.61c-.08.11-.84-.28-1.69-.88s-1.47-1.18-1.38-1.3.84.27,1.68.87S370,357.49,369.93,357.61Z" style="fill:#FDE047"></path><path d="M352,340.35c-.11.09-.88-.7-1.73-1.76a6.07,6.07,0,0,1-1.32-2.08c.12-.09.89.7,1.73,1.76A6.07,6.07,0,0,1,352,340.35Z" style="fill:#FDE047"></path><path d="M347.29,345.44c-.11.09-.91-.7-1.77-1.76s-1.48-2-1.37-2.1.9.7,1.77,1.77A6.12,6.12,0,0,1,347.29,345.44Z" style="fill:#FDE047"></path><path d="M424.19,362.89s.49,0,1.4-.1a7.34,7.34,0,0,0,3.54-1.58,6.63,6.63,0,0,0,2.54-5.26,7.15,7.15,0,0,0-4-6.25l-.13-.06v-.15a4.87,4.87,0,0,0-8.33-3.62l-.33.33-.1-.46a9.5,9.5,0,0,0-5.84-6.67,8.61,8.61,0,0,0-4.74-.52,9,9,0,0,0-4.16,2,10.33,10.33,0,0,0-2.66,3.53,9,9,0,0,0-.78,4.06v.32l-.3-.08a6.88,6.88,0,0,0-4.58.54,7.52,7.52,0,0,0-3.14,2.82,6.2,6.2,0,0,0-.86,3.61,7.15,7.15,0,0,0,.94,3.07,7.42,7.42,0,0,0,3.29,3.08,12.77,12.77,0,0,0,1.54.54,4.76,4.76,0,0,1-1.6-.41,7.58,7.58,0,0,1-4.5-6.25,6.43,6.43,0,0,1,.86-3.83,7.83,7.83,0,0,1,3.28-3,7.3,7.3,0,0,1,4.88-.6l-.29.24a9.42,9.42,0,0,1,.81-4.29,10.51,10.51,0,0,1,2.78-3.72,9.45,9.45,0,0,1,4.39-2.12,9.12,9.12,0,0,1,5,.54,10,10,0,0,1,6.15,7.06l-.43-.13a5.34,5.34,0,0,1,9.14,4l-.13-.21A7.52,7.52,0,0,1,432,356a6.52,6.52,0,0,1-.85,3.29,7.48,7.48,0,0,1-5.58,3.69A4.8,4.8,0,0,1,424.19,362.89Z" style="fill:#FDE047"></path><path d="M409.58,355a4.93,4.93,0,0,1-.38.75l-1.12,2L404,365l-.18-.31,5,0h.3L409,365c-.83,3-1.74,6.39-2.71,9.93l-.45-.23,2.34-2.94,7.88-9.84.18.38-3.39-.05h-.36l.16-.32c1.35-2.65,2.54-5,3.52-6.93l.14.23-5-.13-1.34-.06a1.83,1.83,0,0,1-.47-.05,2.17,2.17,0,0,1,.43,0l1.32,0,5,0h.26l-.12.24c-.95,2-2.1,4.31-3.41,7l-.2-.32,3.39,0h.49l-.3.38-7.84,9.87L406.28,375l-.79,1,.34-1.22c1-3.54,1.92-6.88,2.76-9.91l.22.29-5-.08h-.35l.18-.3,4.33-7.2c.49-.8.89-1.45,1.2-1.94A5.38,5.38,0,0,1,409.58,355Z" style="fill:#FDE047"></path><path d="M357.21,186.92c0,.14-7.71.26-17.22.26s-17.22-.12-17.22-.26,7.71-.26,17.22-.26S357.21,186.77,357.21,186.92Z" style="fill:#FDE047"></path><path d="M344,424.69l-1.2,0-3.4,0-12.15.09h0a4.76,4.76,0,0,1-4-4.88,4.71,4.71,0,0,1,5.49-4.08l-.12.12a6,6,0,0,1,.67-3.26,6.5,6.5,0,0,1,2.67-2.7,5.42,5.42,0,0,1,3.63-.52,6.23,6.23,0,0,1,4.86,4.48l-.16,0a3.29,3.29,0,0,1,5.71,2.26l-.05-.07a4.63,4.63,0,0,1,2.74,4.09,4.26,4.26,0,0,1-1.61,3.42,4.52,4.52,0,0,1-2.23,1,2.8,2.8,0,0,1-.86,0,5.94,5.94,0,0,0,.85-.06,4.61,4.61,0,0,0,2.18-1,4.21,4.21,0,0,0,1.55-3.35,4.52,4.52,0,0,0-2.68-3.95l-.05,0v0a3.12,3.12,0,0,0-5.41-2.13l-.12.13,0-.17a6,6,0,0,0-4.72-4.33,5.19,5.19,0,0,0-3.49.51,6.33,6.33,0,0,0-2.59,2.61,5.75,5.75,0,0,0-.64,3.14v.14l-.14,0a4.5,4.5,0,0,0-5.25,3.89,4.57,4.57,0,0,0,3.8,4.68h15.54Z" style="fill:#e0e0e0"></path><path d="M346.31,415.85a4.47,4.47,0,0,0,2.65-4.54,4.49,4.49,0,0,0-1.73-3,5,5,0,0,0-3.31-1.11,5.77,5.77,0,0,0-2.76.86,7.63,7.63,0,0,0-2,1.86,3.7,3.7,0,0,1,.4-.62,6.1,6.1,0,0,1,1.48-1.36,5.75,5.75,0,0,1,2.83-.93,5.15,5.15,0,0,1,3.45,1.13,4.68,4.68,0,0,1,1.79,3.14,4.6,4.6,0,0,1-.7,2.89,4.1,4.1,0,0,1-1.45,1.39A2.6,2.6,0,0,1,346.31,415.85Z" style="fill:#e0e0e0"></path><path d="M343.86,402a13.15,13.15,0,0,1-.2,3.39,7.28,7.28,0,0,1,0-1.7A7.18,7.18,0,0,1,343.86,402Z" style="fill:#e0e0e0"></path><path d="M348.48,403.37a6.37,6.37,0,0,1-.7,1.44,6.2,6.2,0,0,1-.89,1.33,13.31,13.31,0,0,1,1.59-2.77Z" style="fill:#e0e0e0"></path><path d="M351.61,406.56a6.21,6.21,0,0,1-1.19,1,6.49,6.49,0,0,1-1.32.88,5.84,5.84,0,0,1,1.19-1A6.2,6.2,0,0,1,351.61,406.56Z" style="fill:#e0e0e0"></path><path d="M353,410.64a3.41,3.41,0,0,1-1.45.44,3.56,3.56,0,0,1-1.52,0c0-.06.68-.06,1.49-.17A13.42,13.42,0,0,1,353,410.64Z" style="fill:#e0e0e0"></path><path d="M351.12,415.71a2.9,2.9,0,0,1-.92-.53c-.48-.34-.84-.65-.81-.7a2.77,2.77,0,0,1,.93.53C350.8,415.35,351.16,415.66,351.12,415.71Z" style="fill:#e0e0e0"></path><path d="M341,406a4.85,4.85,0,0,1-.94-1,4.49,4.49,0,0,1-.77-1.14,4.94,4.94,0,0,1,.94,1A4.44,4.44,0,0,1,341,406Z" style="fill:#e0e0e0"></path><path d="M338.36,408.85a4.93,4.93,0,0,1-1-1,5.24,5.24,0,0,1-.81-1.15,4.53,4.53,0,0,1,1,1A4.43,4.43,0,0,1,338.36,408.85Z" style="fill:#e0e0e0"></path><path d="M380.48,403.9a9.5,9.5,0,0,1,0,2,9,9,0,0,1-.22,2,9.53,9.53,0,0,1,0-2A9.84,9.84,0,0,1,380.48,403.9Z" style="fill:#e0e0e0"></path><path d="M385.85,405.47a8.52,8.52,0,0,1-.83,1.66,8.12,8.12,0,0,1-1,1.55,8.52,8.52,0,0,1,.83-1.66A8.12,8.12,0,0,1,385.85,405.47Z" style="fill:#e0e0e0"></path><path d="M389.49,409.17a8.47,8.47,0,0,1-1.39,1.2,9.3,9.3,0,0,1-1.52,1,7.54,7.54,0,0,1,1.39-1.2A8.43,8.43,0,0,1,389.49,409.17Z" style="fill:#e0e0e0"></path><path d="M377.19,408.5a6.64,6.64,0,0,1-1.08-1.2,6.44,6.44,0,0,1-.92-1.32,6.36,6.36,0,0,1,1.08,1.19A5.76,5.76,0,0,1,377.19,408.5Z" style="fill:#e0e0e0"></path><path d="M385.82,416.23a8.25,8.25,0,0,0,.13-1.32,5.41,5.41,0,0,0-1.18-3.32,5.31,5.31,0,1,0-2.11,8.2,5.45,5.45,0,0,0,2.64-2.34,8.77,8.77,0,0,0,.52-1.22,4.27,4.27,0,0,1-.45,1.26,5.47,5.47,0,0,1-9.88-.55,5.6,5.6,0,0,1-.23-3.42,5.54,5.54,0,0,1,4.81-4.1,5.47,5.47,0,0,1,4.81,2.08,5.36,5.36,0,0,1,1.15,3.41A4.29,4.29,0,0,1,385.82,416.23Z" style="fill:#e0e0e0"></path><path d="M374.7,411.19a10.16,10.16,0,0,1-1.62-1.18,8.72,8.72,0,0,1-1.5-1.34,11.36,11.36,0,0,1,1.63,1.18A8.87,8.87,0,0,1,374.7,411.19Z" style="fill:#e0e0e0"></path><path d="M374,413.85A11.71,11.71,0,0,1,372,414a11.2,11.2,0,0,1-2.06-.1,9.78,9.78,0,0,1,2.06-.11A10.24,10.24,0,0,1,374,413.85Z" style="fill:#e0e0e0"></path><path d="M374.15,417.16a7.77,7.77,0,0,1-1.68.77,8.24,8.24,0,0,1-1.75.57,7.77,7.77,0,0,1,1.68-.77A8.77,8.77,0,0,1,374.15,417.16Z" style="fill:#e0e0e0"></path><path d="M376.22,420.76a6.62,6.62,0,0,1-1.1,1.23,6.86,6.86,0,0,1-1.25,1.09,6.16,6.16,0,0,1,1.1-1.24A6.56,6.56,0,0,1,376.22,420.76Z" style="fill:#e0e0e0"></path><path d="M379.43,421.84a7.39,7.39,0,0,1-.43,1.64,7,7,0,0,1-.63,1.58,7.39,7.39,0,0,1,.43-1.64A6.53,6.53,0,0,1,379.43,421.84Z" style="fill:#e0e0e0"></path><path d="M383.65,424.38a5.3,5.3,0,0,1-.59-1.41,5.78,5.78,0,0,1-.39-1.47,5.3,5.3,0,0,1,.59,1.41A5.78,5.78,0,0,1,383.65,424.38Z" style="fill:#e0e0e0"></path><path d="M387,421.83a4.45,4.45,0,0,1-1-.93,4.87,4.87,0,0,1-.81-1.07,8.48,8.48,0,0,1,1.78,2Z" style="fill:#e0e0e0"></path><path d="M390.44,418.88a8.2,8.2,0,0,1-1.62-.86,7.84,7.84,0,0,1-1.52-1,8.2,8.2,0,0,1,1.62.86A7.84,7.84,0,0,1,390.44,418.88Z" style="fill:#e0e0e0"></path><path d="M392,413.94a22.4,22.4,0,0,1-2.37-.11,23.46,23.46,0,0,1-2.37-.14,10.3,10.3,0,0,1,2.38-.06A9.61,9.61,0,0,1,392,413.94Z" style="fill:#e0e0e0"></path><path d="M422.36,417.81s.24,0,.68-.05a3.47,3.47,0,0,0,1.71-.76,3.19,3.19,0,0,0,1.24-2.55,3.45,3.45,0,0,0-1.95-3l-.05,0v-.06a2.37,2.37,0,0,0-4.06-1.76l-.13.13,0-.18a4.6,4.6,0,0,0-2.84-3.24,4.16,4.16,0,0,0-4.32.72,4.63,4.63,0,0,0-1.67,3.68v.13l-.12,0a3.54,3.54,0,0,0-3.75,1.63,3.21,3.21,0,0,0,0,3.24,3.63,3.63,0,0,0,1.6,1.49,6.34,6.34,0,0,0,.75.26,2.46,2.46,0,0,1-.77-.21,3.52,3.52,0,0,1-1.67-1.48,3.29,3.29,0,0,1-.08-3.37,3.68,3.68,0,0,1,3.92-1.74l-.11.1a4.8,4.8,0,0,1,1.72-3.86,4.58,4.58,0,0,1,2.11-1,4.47,4.47,0,0,1,2.42.26,4.84,4.84,0,0,1,3,3.4l-.17-.05a2.56,2.56,0,0,1,4.38,1.91l-.06-.08a3.61,3.61,0,0,1,2,3.19,3.28,3.28,0,0,1-1.31,2.63,3.48,3.48,0,0,1-1.78.74A2.55,2.55,0,0,1,422.36,417.81Z" style="fill:#e0e0e0"></path><path d="M416,415.52a8.52,8.52,0,0,1-.86,1.62,8.21,8.21,0,0,1-1,1.51A8.9,8.9,0,0,1,415,417,7.8,7.8,0,0,1,416,415.52Z" style="fill:#e0e0e0"></path><path d="M419,415.52a8.11,8.11,0,0,1-.85,1.62,8.21,8.21,0,0,1-1,1.51,15.85,15.85,0,0,1,1.88-3.13Z" style="fill:#e0e0e0"></path><path d="M421.93,415.52a8.11,8.11,0,0,1-.85,1.62,8.21,8.21,0,0,1-1,1.51,15.85,15.85,0,0,1,1.88-3.13Z" style="fill:#e0e0e0"></path><path d="M412.62,419.91a8.11,8.11,0,0,1-.85,1.62,8.21,8.21,0,0,1-1,1.51,15.85,15.85,0,0,1,1.88-3.13Z" style="fill:#e0e0e0"></path><path d="M415.57,419.91a8.11,8.11,0,0,1-.85,1.62,8.21,8.21,0,0,1-1,1.51,15.85,15.85,0,0,1,1.88-3.13Z" style="fill:#e0e0e0"></path><path d="M418.52,419.91a8.11,8.11,0,0,1-.85,1.62,8.21,8.21,0,0,1-1,1.51,15.85,15.85,0,0,1,1.88-3.13Z" style="fill:#e0e0e0"></path><path d="M421.6,420a8.2,8.2,0,0,1-.86,1.62,7.31,7.31,0,0,1-1,1.51,9,9,0,0,1,.86-1.61A8.09,8.09,0,0,1,421.6,420Z" style="fill:#e0e0e0"></path><path d="M440.8,398c0,.15-27.48.26-61.37.26s-61.38-.11-61.38-.26,27.48-.26,61.38-.26S440.8,397.9,440.8,398Z" style="fill:#e0e0e0"></path><path d="M327.3,210.56v11.35h-2.63v-9.24H322.4v-2.11Z" style="fill:#FDE047"></path><path d="M329.27,216.23c0-3.74,2.08-5.87,4.87-5.87s4.87,2.13,4.87,5.87-2.06,5.88-4.87,5.88S329.27,220,329.27,216.23Zm7.09,0c0-2.57-.91-3.65-2.22-3.65s-2.21,1.08-2.21,3.65.91,3.65,2.21,3.65S336.36,218.81,336.36,216.23Z" style="fill:#FDE047"></path><path d="M340.11,212.42a3.1,3.1,0,1,1,3.08,2.69A2.8,2.8,0,0,1,340.11,212.42Zm4.43,0a1.36,1.36,0,0,0-2.71,0,1.36,1.36,0,0,0,2.71,0Z" style="fill:#FDE047"></path><path d="M362.28,220.25,360.69,218l-.47,0h-1.83v2.25h-1.05v-7.4h2.88c1.93,0,3.09,1,3.09,2.58a2.33,2.33,0,0,1-1.63,2.34l1.76,2.48Zm0-4.82c0-1.05-.71-1.66-2.06-1.66h-1.8v3.33h1.8C361.54,217.1,362.25,216.49,362.25,215.43Z" style="fill:#263238"></path><path d="M369.26,216.87v3.38h-1v-.74a2.08,2.08,0,0,1-1.84.81c-1.27,0-2.07-.68-2.07-1.65S365,217,366.64,217h1.61v-.2c0-.86-.5-1.36-1.5-1.36a2.83,2.83,0,0,0-1.78.61l-.42-.76a3.68,3.68,0,0,1,2.31-.72C368.4,214.6,369.26,215.34,369.26,216.87Zm-1,1.67v-.78h-1.57c-1,0-1.29.39-1.29.87s.47.91,1.24.91A1.63,1.63,0,0,0,368.25,218.54Z" style="fill:#263238"></path><path d="M371,212.92a.67.67,0,0,1,.69-.67.66.66,0,1,1-.69.67Zm.18,1.73h1v5.6h-1Z" style="fill:#263238"></path><path d="M379.41,217v3.22h-1v-3.1c0-1.1-.55-1.64-1.51-1.64a1.66,1.66,0,0,0-1.78,1.86v2.88h-1v-5.6h1v.85a2.4,2.4,0,0,1,2-.9A2.17,2.17,0,0,1,379.41,217Z" style="fill:#263238"></path><path d="M351.57,222.85a47.07,47.07,0,0,1-.26-6.93,47,47,0,0,1,.26-6.93,45.37,45.37,0,0,1,.26,6.93A45.48,45.48,0,0,1,351.57,222.85Z" style="fill:#263238"></path><path d="M328.32,381.78v6.54h-1.51V383H325.5v-1.21Z" style="fill:#FDE047"></path><path d="M334.4,386.26c0,1.16-.85,2.17-2.72,2.17a4.49,4.49,0,0,1-2.49-.7l.6-1.16a3.14,3.14,0,0,0,1.85.59c.76,0,1.23-.32,1.23-.85s-.34-.85-1.52-.85h-1.68l.34-3.68h4V383h-2.73l-.1,1.25h.53C333.63,384.24,334.4,385.1,334.4,386.26Z" style="fill:#FDE047"></path><path d="M334.78,382.85a1.79,1.79,0,1,1,1.77,1.55A1.62,1.62,0,0,1,334.78,382.85Zm2.55,0a.78.78,0,0,0-1.56,0,.78.78,0,0,0,1.56,0Z" style="fill:#FDE047"></path><path d="M345.22,386.88l.23-.48a2.16,2.16,0,0,0,1.4.49c.74,0,1.06-.28,1.06-.65,0-1-2.58-.39-2.58-2,0-.66.51-1.22,1.63-1.22a2.53,2.53,0,0,1,1.37.38l-.2.49a2.18,2.18,0,0,0-1.17-.35c-.73,0-1,.31-1,.68,0,1,2.58.39,2.58,1.95,0,.65-.52,1.21-1.65,1.21A2.56,2.56,0,0,1,345.22,386.88Z" style="fill:#263238"></path><path d="M352.31,384.14v3.22h-.55v-.48a1.33,1.33,0,0,1-1.1.52,1.27,1.27,0,0,1-1.38-1.41v-1.85h.58v1.79c0,.63.32.95.87.95a1,1,0,0,0,1-1.07v-1.67Z" style="fill:#263238"></path><path d="M356.49,385.51v1.85h-.59v-1.79c0-.63-.31-.94-.87-.94a1,1,0,0,0-1,1.07v1.66h-.58v-3.22H354v.48a1.39,1.39,0,0,1,1.16-.51A1.25,1.25,0,0,1,356.49,385.51Z" style="fill:#263238"></path><path d="M360.63,385.51v1.85h-.58v-1.79c0-.63-.32-.94-.87-.94a1,1,0,0,0-1,1.07v1.66h-.59v-3.22h.56v.48a1.4,1.4,0,0,1,1.16-.51A1.25,1.25,0,0,1,360.63,385.51Z" style="fill:#263238"></path><path d="M364.51,384.14,363,387.69c-.29.68-.66.89-1.15.89a1.18,1.18,0,0,1-.83-.3l.25-.43a.83.83,0,0,0,.58.23c.28,0,.45-.13.61-.5l.1-.22-1.42-3.22h.61l1.12,2.58,1.12-2.58Z" style="fill:#263238"></path><path d="M342.3,388.86a29.62,29.62,0,0,1,0-8,30.75,30.75,0,0,1,0,8Z" style="fill:#263238"></path><path d="M397.6,384.91a3.18,3.18,0,0,1-3.34,3.52,3.49,3.49,0,0,1-1.81-.45l.56-1.11a2.16,2.16,0,0,0,1.22.33,1.74,1.74,0,0,0,1.84-1.91,2.23,2.23,0,0,1-1.62.59,2.07,2.07,0,0,1-2.25-2,2.24,2.24,0,0,1,2.47-2.17C396.48,381.67,397.6,382.8,397.6,384.91Zm-1.69-1.14c0-.56-.42-1-1.14-1a1,1,0,1,0,0,1.95A1,1,0,0,0,395.91,383.77Z" style="fill:#FDE047"></path><path d="M398.22,382.85A1.79,1.79,0,1,1,400,384.4,1.62,1.62,0,0,1,398.22,382.85Zm2.55,0a.78.78,0,0,0-1.56,0,.78.78,0,0,0,1.56,0Z" style="fill:#FDE047"></path><path d="M412,387.36l-.92-1.3H409.8v1.29h-.61V383.1h1.67c1.1,0,1.77.56,1.77,1.49a1.34,1.34,0,0,1-.93,1.34l1,1.43Zm0-2.77c0-.61-.41-1-1.19-1h-1v1.92h1C411.62,385.55,412,385.2,412,384.59Z" style="fill:#263238"></path><path d="M416.06,385.42v1.94h-.55v-.42a1.22,1.22,0,0,1-1.06.46c-.73,0-1.2-.39-1.2-.95s.34-.94,1.3-.94h.93v-.12c0-.49-.29-.78-.87-.78a1.65,1.65,0,0,0-1,.35l-.24-.44a2.11,2.11,0,0,1,1.33-.41C415.56,384.11,416.06,384.53,416.06,385.42Zm-.58,1v-.45h-.9c-.58,0-.75.22-.75.5s.27.52.71.52A1,1,0,0,0,415.48,386.38Z" style="fill:#263238"></path><path d="M417,383.14a.38.38,0,0,1,.4-.38.37.37,0,0,1,.39.37.38.38,0,0,1-.39.39A.38.38,0,0,1,417,383.14Zm.1,1h.59v3.22h-.59Z" style="fill:#263238"></path><path d="M421.9,385.51v1.85h-.58v-1.79c0-.63-.32-.94-.87-.94a1,1,0,0,0-1,1.07v1.66h-.59v-3.22h.56v.48a1.4,1.4,0,0,1,1.16-.51A1.25,1.25,0,0,1,421.9,385.51Z" style="fill:#263238"></path><path d="M405.88,388.86a30.75,30.75,0,0,1,0-8,30.75,30.75,0,0,1,0,8Z" style="fill:#263238"></path><path d="M444.54,310.63c0,.14-29.28.26-65.39.26s-65.4-.12-65.4-.26,29.28-.26,65.4-.26S444.54,310.49,444.54,310.63Z" style="fill:#e0e0e0"></path></g><g id="freepik--Character--inject-6"><path d="M302.07,156.72S200,97,101.26,160.19,28.5,352.9,28.5,352.9s15.91-16.68,45.22-11.28c0,0-.54-40,42.75-36.33,0,0,21.74-50.47,68.69-36.64,0,0,8.76-45.12,65.53-39.39C250.69,229.26,263.24,177.81,302.07,156.72Z" style="fill:#FDE047"></path><g style="opacity:0.4"><path d="M302.07,156.72S200,97,101.26,160.19,28.5,352.9,28.5,352.9s15.91-16.68,45.22-11.28c0,0-.54-40,42.75-36.33,0,0,21.74-50.47,68.69-36.64,0,0,8.76-45.12,65.53-39.39C250.69,229.26,263.24,177.81,302.07,156.72Z"></path></g><path d="M111.87,331.82a19.42,19.42,0,0,1,11.3-19.77c5.48-2.34,12.41-2.35,16.14-7,4.13-5.12,2-13.18,5.61-18.67,4.15-6.28,14.06-6.66,18.05-13,3-4.79,1.53-11.31,4.23-16.26,2.81-5.18,9.27-7.2,13.09-11.7,4.23-5,5.25-13,11.2-15.73,3.39-1.56,7.49-.77,10.72,1.12s5.74,4.74,8.21,7.55l29.64,33.79a8.75,8.75,0,0,1,2,3.1c1,3.3-2,6.32-4.36,8.82A38.61,38.61,0,0,0,227.35,307c-.47,5.33-.19,11.58-4.34,15-3.22,2.62-8.2,2.53-11,5.6-4,4.41-.75,11.51-1.82,17.39-1,5.5-5.81,9.5-10.81,12s-10.5,4-15.13,7.12-8.35,8.58-7.18,14a108,108,0,0,1-27.23-18.8q3.57-5.19,7.15-10.39l-12.66,7.92c-1.67-3-5-4.47-7.77-6.44s-5.29-5.33-4.15-8.53c1.39-3.86,7.28-5.06,7.78-9.12a25.14,25.14,0,0,0-14,8.87c-5.65-2.28-11.33-4.51-14.36-9.8" style="fill:#263238"></path><path d="M198.41,311.28c-9.89-7.81-18.45-5.24-27.75-2.92s-16.83,11.11-23.53,18-12.58,14.53-19.78,20.86-16.14,11.35-25.73,11.46c-7.06.08-14.08-2.5-21.08-1.52a21.39,21.39,0,0,0-16.13,12l8,19.69c3.31-8.26,13.3-11.65,22.19-11.84s17.91,1.8,26.61,0c10.45-2.2,19-9.6,26.28-17.42s13.91-16.46,22.78-22.42,20.81-8.8,30.27-3.83" style="fill:#FDE047"></path><g style="opacity:0.4"><path d="M198.41,311.28c-9.89-7.81-18.45-5.24-27.75-2.92s-16.83,11.11-23.53,18-12.58,14.53-19.78,20.86-16.14,11.35-25.73,11.46c-7.06.08-14.08-2.5-21.08-1.52a21.39,21.39,0,0,0-16.13,12l8,19.69c3.31-8.26,13.3-11.65,22.19-11.84s17.91,1.8,26.61,0c10.45-2.2,19-9.6,26.28-17.42s13.91-16.46,22.78-22.42,20.81-8.8,30.27-3.83"></path></g><path d="M81.8,380a17.39,17.39,0,0,1-1.38-3c-.77-1.87-1.75-4.49-2.68-7.44s-1.63-5.65-2.08-7.63a19.44,19.44,0,0,1-.58-3.22,21.17,21.17,0,0,1,.94,3.13c.54,2,1.29,4.63,2.22,7.57s1.85,5.56,2.52,7.46A23.94,23.94,0,0,1,81.8,380Z" style="fill:#fafafa"></path><path d="M98.29,376.66A13.56,13.56,0,0,1,97.15,374c-.62-1.66-1.4-4-2.13-6.59s-1.27-5-1.6-6.74a14.55,14.55,0,0,1-.41-2.84,16.51,16.51,0,0,1,.77,2.76c.42,1.72,1,4.09,1.74,6.68s1.45,4.93,2,6.62A18.18,18.18,0,0,1,98.29,376.66Z" style="fill:#fafafa"></path><path d="M116,378.06c-.13.05-1.94-4.4-4-9.93s-3.67-10.05-3.54-10.1,1.94,4.39,4,9.92A106.88,106.88,0,0,1,116,378.06Z" style="fill:#fafafa"></path><path d="M129.12,372.86a18.71,18.71,0,0,1-1.31-3.05c-.74-1.92-1.7-4.58-2.66-7.56s-1.77-5.7-2.3-7.68a19,19,0,0,1-.73-3.23,22.46,22.46,0,0,1,1.09,3.13c.67,2.09,1.5,4.72,2.43,7.62s1.82,5.51,2.51,7.59A22.15,22.15,0,0,1,129.12,372.86Z" style="fill:#fafafa"></path><path d="M140.75,365.27c-.14.05-2-5.14-4.16-11.57s-3.8-11.7-3.67-11.75,2,5.14,4.16,11.58S140.88,365.23,140.75,365.27Z" style="fill:#fafafa"></path><path d="M147.59,342.17a39.18,39.18,0,0,1-2.66-5.68,38.3,38.3,0,0,1-2.19-5.88,37.39,37.39,0,0,1,2.67,5.68A36.38,36.38,0,0,1,147.59,342.17Z" style="fill:#fafafa"></path><path d="M158.65,327.29a40.21,40.21,0,0,1-4.3-8.09,40.94,40.94,0,0,1,4.3,8.09Z" style="fill:#fafafa"></path><path d="M174,318.05a32.76,32.76,0,0,1-2-4.51,32.93,32.93,0,0,1-1.79-4.6,18.86,18.86,0,0,1,2.27,4.4A18,18,0,0,1,174,318.05Z" style="fill:#fafafa"></path><path d="M188.36,314.3a11.06,11.06,0,0,1-.26-4.09,11.27,11.27,0,0,1,.76-4,28.82,28.82,0,0,1-.24,4.06A30.31,30.31,0,0,1,188.36,314.3Z" style="fill:#fafafa"></path><path d="M176.64,408.91l-14.91-84a46.5,46.5,0,0,1,29.32-10.75l49.15.42a40.9,40.9,0,0,1,7.65,1.56c6,.43,17.29,2.7,25.8,16.68,9,14.86,22.13,45.44,22.13,45.44L298.54,344l21.89-6.66c18.18,48.49,6.51,85.17-13.63,88.17-16.75,2.49-32.86-17.78-32.86-17.78l-8.13-14L264,402.94l-4.84,22.89,17.52,39.23c-6.14,0-10.24.26-17.79,0H165.2c.7-7.08,9.66-16,9.66-16,6.47-11,4.8-27.57,1.78-40.16" style="fill:#FDE047"></path><path d="M266.29,454.64a3.91,3.91,0,0,1-.57-.45,18.64,18.64,0,0,0-1.63-1.26,22.93,22.93,0,0,0-6.83-3.17,36,36,0,0,0-11.1-1.16,104.49,104.49,0,0,0-13.65,1.84A76.7,76.7,0,0,1,218.74,452a32.12,32.12,0,0,1-11.13-2,20.75,20.75,0,0,1-6.52-3.94,14.63,14.63,0,0,1-1.43-1.51,4.2,4.2,0,0,1-.44-.57,4.32,4.32,0,0,1,.52.5,18.25,18.25,0,0,0,1.49,1.43,21.25,21.25,0,0,0,6.51,3.74,32.3,32.3,0,0,0,11,1.83,80.25,80.25,0,0,0,13.68-1.54,100.81,100.81,0,0,1,13.72-1.81,35.08,35.08,0,0,1,11.23,1.29,21.74,21.74,0,0,1,6.84,3.36,16.33,16.33,0,0,1,1.58,1.34A3.27,3.27,0,0,1,266.29,454.64Z" style="fill:#fafafa"></path><path d="M296.32,393.62c-.32,0-.69-3.68-.83-8.23s0-8.25.31-8.26.69,3.67.83,8.23S296.63,393.61,296.32,393.62Z" style="fill:#263238"></path><g style="opacity:0.2"><path d="M172.05,452.13c-.36.11-2.36,3-1.81,4.29a3.81,3.81,0,0,0,3.39,2,11.21,11.21,0,0,0,4.06-.84l47-16,21.51-7.33c2.46-.84,5.29-2.09,5.79-4.64a17.75,17.75,0,0,1,.32-2.43,4.44,4.44,0,0,1,2.9-2.41,13.09,13.09,0,0,0,3.59-1.49c1-.78,1.79-3.28,1.1-4.38.09.19-7.77,1.13-11.73,3.12.27,1.57,1.31,5.57,1.31,5.57s-4.2,1.12-5.72,1.73c-24.88,10-46.81,14.3-71.67,22.78"></path></g><polygon points="298.43 277.48 264.86 331.88 291.28 339.23 320.58 294.03 298.43 277.48" style="fill:#455a64"></polygon><path d="M296.33,323.83l1.15,7.95,4.68,6,.47,4.94,16.84-5.13-6.8-24s1.09-7,.65-9.84l-4.62,6.15-1.28-10-9.49-7.63a2.31,2.31,0,0,0-3.25.5h0a2.3,2.3,0,0,0,.26,3l7.62,6.72.49,8.3-5.51-5.13a4,4,0,0,0-1.94-1l-7.66-1.53a2,2,0,0,0-2.38,1.76h0A2,2,0,0,0,287,307l7,2.14,7.05,7.11-6.88-2.62-9.37,1.31a1.82,1.82,0,0,0-1.57,1.8h0a1.82,1.82,0,0,0,1.92,1.81l5.95-.33,3.5,1.1-8.06,2.13a1.63,1.63,0,0,0-1.2,1.65h0A1.62,1.62,0,0,0,287,324.6Z" style="fill:#ffbe9d"></path><path d="M264.86,331.88s-2.26-3.06-2.08-3.58,32-52.82,32-52.82l3.7,2Z" style="fill:#263238"></path><path d="M306.83,291.15a1.19,1.19,0,1,1-.06.07" style="fill:#263238"></path><path d="M171.14,319.2s-25,7.6-30.44,45c-1.88,12.94-4.17,42.72-5,64.83-.52,14.5,4.86,22.66,13.63,25.71a23.07,23.07,0,0,0,14.28,0l85.6-26.63-7.44-35.86-64.35,17.35,1.61-26.56Z" style="fill:#FDE047"></path><path d="M165.67,423.13a13.32,13.32,0,0,1,1.72-4.5,26.67,26.67,0,0,1,9.92-9.29l0,0h0l63.63-16,.55-.13.13.54c1.71,7.3,3.51,14.95,5.36,22.81l2.57,10.95.12.51-.49.16c-25.72,8.46-48.66,15.72-65.2,20.73-8.27,2.51-15,4.45-19.57,5.73L159.16,456l-1.38.34a2,2,0,0,1-.48.09s.14-.09.45-.19l1.36-.44,5.26-1.62,19.45-6.05c16.48-5.21,39.37-12.59,65.07-21.09l-.37.67-2.57-11L240.61,394l.67.41-63.75,15.56.07,0a27,27,0,0,0-9.92,8.9A26.52,26.52,0,0,0,165.67,423.13Z" style="fill:#263238"></path><path d="M177.36,377.13c.31,0,.31,7.42,0,16.55s-.83,16.52-1.14,16.51-.31-7.42,0-16.55S177.05,377.12,177.36,377.13Z" style="fill:#263238"></path><path d="M286.59,358.39a12.6,12.6,0,0,0-1.64-.13,10.14,10.14,0,0,0-4.5,1.2,23.23,23.23,0,0,0-5.87,4.54c-1.05,1-2.16,2.13-3.44,3.19a16.13,16.13,0,0,1-4.49,2.77c-3.48,1.41-7.71,1.44-12,.69s-8.68-2.28-13.44-3.16a26.88,26.88,0,0,0-7.36-.47,18.91,18.91,0,0,0-7.28,2.28c-4.65,2.48-8.56,6.41-13.21,9.61a26.8,26.8,0,0,1-7.48,3.71,24.72,24.72,0,0,1-8.06,1,23.74,23.74,0,0,1-7.67-1.59,30.91,30.91,0,0,1-6.57-3.63c-4-2.82-7.4-6-10.94-8.42a26.49,26.49,0,0,0-10.85-4.75,25.36,25.36,0,0,0-16.69,3,27,27,0,0,0-5.07,3.84s.09-.11.29-.31l.87-.87c.39-.37.92-.79,1.53-1.3a25.33,25.33,0,0,1,2.27-1.53,24.87,24.87,0,0,1,6.95-2.82,25.16,25.16,0,0,1,9.91-.4,23.36,23.36,0,0,1,5.57,1.65,32.3,32.3,0,0,1,5.46,3.11c3.58,2.46,7,5.6,11,8.37a30.1,30.1,0,0,0,6.48,3.56,23.33,23.33,0,0,0,7.51,1.55,24.19,24.19,0,0,0,7.89-1,26.51,26.51,0,0,0,7.34-3.65c4.59-3.16,8.52-7.1,13.26-9.63a19.46,19.46,0,0,1,7.48-2.32,27.76,27.76,0,0,1,7.49.48c4.81.91,9.17,2.5,13.42,3.21s8.36.75,11.75-.61,5.75-3.85,7.86-5.82a23.45,23.45,0,0,1,6-4.52,10,10,0,0,1,4.59-1.11A5.74,5.74,0,0,1,286.59,358.39Z" style="fill:#fafafa"></path><path d="M273.73,334.36a1.51,1.51,0,0,1-.21.28c-.15.17-.35.45-.66.76a16.84,16.84,0,0,1-3,2.54,18.71,18.71,0,0,1-13.79,2.94c-3-.46-6.18-1.54-9.69-2A16.94,16.94,0,0,0,235.58,341c-3.51,1.88-6.72,4.61-10.25,7.18a40.16,40.16,0,0,1-5.68,3.53,28.79,28.79,0,0,1-6.5,2.28,29.2,29.2,0,0,1-13.48-.13,44.72,44.72,0,0,1-11.56-5c-3.47-2-6.62-4.17-9.65-6a60.09,60.09,0,0,0-8.75-4.57,26.61,26.61,0,0,0-14-2,19.37,19.37,0,0,0-3.76,1c-.42.14-.72.29-.94.37a2.77,2.77,0,0,1-.32.12,1.2,1.2,0,0,1,.3-.17c.21-.09.51-.26.93-.42a17.69,17.69,0,0,1,3.76-1.06,26.43,26.43,0,0,1,14.12,1.88,59.9,59.9,0,0,1,8.83,4.54c3.06,1.84,6.22,4,9.67,6a44.1,44.1,0,0,0,11.44,4.93,28.62,28.62,0,0,0,13.25.12,29,29,0,0,0,6.39-2.23,39,39,0,0,0,5.6-3.49c3.51-2.54,6.75-5.28,10.33-7.19a19.17,19.17,0,0,1,5.54-2,18.08,18.08,0,0,1,2.82-.28,19,19,0,0,1,2.74.19c3.56.5,6.72,1.6,9.69,2.08a18.72,18.72,0,0,0,8-.28,19.14,19.14,0,0,0,5.58-2.47,18.43,18.43,0,0,0,3-2.44c.33-.3.54-.57.7-.73S273.72,334.35,273.73,334.36Z" style="fill:#fafafa"></path><path d="M176.32,403.81c0,.12-2.23-1-6-1.95l-1.49-.36c-.52-.12-1.07-.18-1.63-.28a35,35,0,0,0-3.64-.43,39.35,39.35,0,0,0-16.46,2.44c-1.19.49-2.34.92-3.35,1.46-.51.26-1,.48-1.49.75l-1.32.77c-3.34,2-5.11,3.72-5.19,3.62a10.78,10.78,0,0,1,1.25-1.17,13.87,13.87,0,0,1,1.56-1.25,23.49,23.49,0,0,1,2.19-1.51l1.32-.81c.46-.28,1-.51,1.48-.78a35.6,35.6,0,0,1,3.38-1.53,41,41,0,0,1,8.2-2.17,41.59,41.59,0,0,1,8.47-.3c1.3.14,2.53.24,3.67.48.57.11,1.13.19,1.65.32l1.5.39a24.53,24.53,0,0,1,2.53.81,14.85,14.85,0,0,1,1.86.75A10.33,10.33,0,0,1,176.32,403.81Z" style="fill:#fafafa"></path><path d="M199.77,404.55a11.56,11.56,0,0,0-1.33,1.52,11,11,0,0,0-1.73,5.15c-.3,2.31.08,5.09,0,8.22a14.48,14.48,0,0,1-.83,4.86,16.05,16.05,0,0,1-2.7,4.55c-2.31,2.82-5.07,4.89-7.32,7a21.11,21.11,0,0,0-5,6.37,11.39,11.39,0,0,0-1.19,5.3c.06,1.3.31,2,.25,2a2.07,2.07,0,0,1-.18-.5,8.24,8.24,0,0,1-.28-1.5,11.16,11.16,0,0,1,1.07-5.47,20.79,20.79,0,0,1,5-6.56c2.25-2.15,5-4.23,7.24-7a15.68,15.68,0,0,0,2.62-4.4,14.33,14.33,0,0,0,.84-4.69c.06-3.07-.28-5.89.07-8.26a10.78,10.78,0,0,1,1.94-5.22A4.8,4.8,0,0,1,199.77,404.55Z" style="fill:#fafafa"></path><path d="M238.81,430.38s-.05-.51-.18-1.4a9.43,9.43,0,0,0-1.31-3.54,36.09,36.09,0,0,0-3.42-4.52c-1.4-1.62-3.06-3.32-4.54-5.35a25.36,25.36,0,0,1-4.58-11.83,34.7,34.7,0,0,1-.32-3.86,6.43,6.43,0,0,1,0-1.41,8.7,8.7,0,0,1,.17,1.4c.09.91.22,2.21.48,3.81a26.32,26.32,0,0,0,4.64,11.58c1.45,2,3.09,3.7,4.48,5.35a32.33,32.33,0,0,1,3.38,4.65,8.82,8.82,0,0,1,1.19,3.69,8.37,8.37,0,0,1,0,1.06C238.85,430.25,238.83,430.38,238.81,430.38Z" style="fill:#fafafa"></path><path d="M294.2,383.81a3.13,3.13,0,0,1-.23.94,9.16,9.16,0,0,1-.39,1.07c-.18.4-.35.88-.62,1.37a21.6,21.6,0,0,1-2,3.34,25,25,0,0,1-3.25,3.52,25.33,25.33,0,0,1-3.92,2.78,21.82,21.82,0,0,1-3.57,1.61,15.39,15.39,0,0,1-2.54.68,3.77,3.77,0,0,1-1,.12c0-.1,1.33-.35,3.38-1.15a25.42,25.42,0,0,0,3.46-1.67,27.77,27.77,0,0,0,3.81-2.76,28,28,0,0,0,3.21-3.42,25,25,0,0,0,2.11-3.22C293.68,385.09,294.11,383.78,294.2,383.81Z" style="fill:#fafafa"></path><path d="M329.68,385.59c-.09.07-1.27-1.75-3.75-4.15a32.68,32.68,0,0,0-4.72-3.78,34.63,34.63,0,0,0-6.58-3.36,33.85,33.85,0,0,0-10.24-2.18,35.94,35.94,0,0,0-6.87.39l-.24,0,.13-.19a8.22,8.22,0,0,1,1-1.32,11,11,0,0,1-.83,1.43l-.11-.16a30.25,30.25,0,0,1,6.93-.61,32.34,32.34,0,0,1,10.4,2.13,33.92,33.92,0,0,1,6.67,3.44,31,31,0,0,1,4.71,3.92,19.62,19.62,0,0,1,1.58,1.74l.62.74.47.66A8.06,8.06,0,0,1,329.68,385.59Z" style="fill:#fafafa"></path><path d="M248.29,225.74c-.29,4,2.37,7.64,5.06,10.67s5.68,6.18,6.26,10.19c1,7.1-5.93,13.69-4.49,20.72.77,3.77,3.85,6.8,4.4,10.6s-1.44,7.29-3.89,10.09-5.42,5.14-7.58,8.16c-2.28,3.19-3.54,7-5.17,10.53s-3.84,7.1-7.28,9c-5.18,2.81-12.43,1.48-16.4,5.84-3.84,4.2-2.63,11.89-7.36,15.06" style="fill:#263238"></path><path d="M186.24,231.91c-.1-3.66,3.28-6.49,6.69-7.83s7.2-1.85,10.24-3.89c2.69-1.81,4.5-4.64,6.77-6.95a22.54,22.54,0,0,1,37.92,10.35c1.31,5.21.42,11.38-3.69,14.84-4.77,4-11.84,3.13-18,1.88s-13-2.49-18.13,1.1c-3.08,2.17-4.84,5.69-6.72,9s-4.25,6.59-7.81,7.81-8.39-.89-8.52-4.65" style="fill:#263238"></path><path d="M200.68,232.66a6.13,6.13,0,0,0-5.47,6.23h0l3.66,82.74c.15,9.78,14.25,10.5,24.71,10.25v-1c10.57-.25,11.1.36,11.23-8.94.22-15.53.2-21.36.21-21.28s13.34-2.24,16.07-19.67c1.36-8.66.89-22.87.13-34.48-.68-10.45-7.63-23.25-18-22.13Z" style="fill:#ffbe9d"></path><path d="M247.92,256.46a2.23,2.23,0,0,1-2.15,2.26,2.13,2.13,0,0,1-2.3-2,2.22,2.22,0,0,1,2.14-2.26A2.14,2.14,0,0,1,247.92,256.46Z" style="fill:#263238"></path><path d="M248.16,253.9c-.28.29-2-1-4.38-1s-4.16,1.22-4.42.93c-.13-.13.15-.66.92-1.22a6.12,6.12,0,0,1,3.54-1.1,5.84,5.84,0,0,1,3.48,1.12C248,253.24,248.29,253.77,248.16,253.9Z" style="fill:#263238"></path><path d="M224,257.08a2.22,2.22,0,0,1-2.15,2.25,2.14,2.14,0,0,1-2.31-2,2.25,2.25,0,0,1,2.15-2.26A2.16,2.16,0,0,1,224,257.08Z" style="fill:#263238"></path><path d="M224.53,254.4c-.28.29-2-1-4.38-.94s-4.16,1.21-4.42.92c-.13-.13.15-.66.92-1.22a6.12,6.12,0,0,1,3.54-1.1,5.84,5.84,0,0,1,3.48,1.12C224.41,253.74,224.66,254.27,224.53,254.4Z" style="fill:#263238"></path><path d="M233.29,272.21c0-.14,1.48-.4,3.91-.71.61-.07,1.19-.19,1.29-.61a3.07,3.07,0,0,0-.41-1.82l-1.83-4.67c-2.53-6.65-4.37-12.12-4.1-12.22s2.54,5.21,5.08,11.86l1.75,4.7a3.59,3.59,0,0,1,.32,2.41,1.53,1.53,0,0,1-1,.9,4.27,4.27,0,0,1-1,.15C234.81,272.33,233.3,272.35,233.29,272.21Z" style="fill:#263238"></path><path d="M235,300.65a44.25,44.25,0,0,1-23.35-6.17s5.69,12,23.12,10.29Z" style="fill:#eb996e"></path><path d="M232.29,278a4.3,4.3,0,0,0-3.89-1.6,4,4,0,0,0-2.73,1.47,2.5,2.5,0,0,0-.18,2.86,2.9,2.9,0,0,0,3.15.79,9,9,0,0,0,3.07-1.84,2.73,2.73,0,0,0,.69-.71.82.82,0,0,0,0-.9" style="fill:#eb996e"></path><path d="M226.22,273.89c.39,0,.4,2.58,2.64,4.43s5,1.56,5,1.92c0,.16-.62.51-1.8.54a6.5,6.5,0,0,1-4.2-1.45,5.66,5.66,0,0,1-2-3.72C225.75,274.52,226,273.87,226.22,273.89Z" style="fill:#263238"></path><path d="M225.6,250.19c-.23.65-2.64.35-5.46.69s-5.09,1.12-5.47.54c-.17-.28.23-.9,1.15-1.53a9,9,0,0,1,4.05-1.43,9.19,9.19,0,0,1,4.27.49C225.18,249.37,225.7,249.88,225.6,250.19Z" style="fill:#263238"></path><path d="M247.26,246.94c-.42.55-2.08,0-4.07,0s-3.68.37-4.07-.2c-.17-.28.1-.82.83-1.34a5.86,5.86,0,0,1,6.56.19C247.21,246.12,247.45,246.68,247.26,246.94Z" style="fill:#263238"></path><path d="M188.77,316c-.12-4.39-.21-8.92,1.54-12.95s5.86-7.47,10.53-7.18c3.28.2,6.14,2.11,9.12,3.48a28.84,28.84,0,0,0,16.1,2.28,58.08,58.08,0,0,1,6.8-1c2.31-.05,4.8.56,6.3,2.23,1.81,2,1.71,4.93,1.51,7.54a49.4,49.4,0,0,1-1.95,12,17.3,17.3,0,0,1-7.38,9.65c-5.14,3-11.73,2.47-17.79,1.69-5.68-.73-11.51-1.66-16.46-4.43s-8.92-7.82-8.58-13.18" style="fill:#FDE047"></path><g style="opacity:0.4"><path d="M188.77,316c-.12-4.39-.21-8.92,1.54-12.95s5.86-7.47,10.53-7.18c3.28.2,6.14,2.11,9.12,3.48a28.84,28.84,0,0,0,16.1,2.28,58.08,58.08,0,0,1,6.8-1c2.31-.05,4.8.56,6.3,2.23,1.81,2,1.71,4.93,1.51,7.54a49.4,49.4,0,0,1-1.95,12,17.3,17.3,0,0,1-7.38,9.65c-5.14,3-11.73,2.47-17.79,1.69-5.68-.73-11.51-1.66-16.46-4.43s-8.92-7.82-8.58-13.18"></path></g><path d="M200.39,330.57a1.14,1.14,0,0,1-.34-.16,3.28,3.28,0,0,1-.78-.73,7.58,7.58,0,0,1-1.18-3.69,122.86,122.86,0,0,1-.92-12.69,51.59,51.59,0,0,1,.4-7,15,15,0,0,1,1.67-5.51,8,8,0,0,1,2.64-2.84,5.06,5.06,0,0,1,1-.47,1.3,1.3,0,0,1,.36-.1c0,.05-.47.22-1.2.74a8.37,8.37,0,0,0-2.43,2.85c-1.56,2.83-1.85,7.43-1.87,12.34s.51,9.42.76,12.66a7.74,7.74,0,0,0,1,3.61A5.8,5.8,0,0,0,200.39,330.57Z" style="fill:#fafafa"></path><path d="M212.16,333.89a5.37,5.37,0,0,1,.08-1.28c.1-.92.22-2.09.37-3.47.34-2.92.79-7,1.24-11.44s.8-8.52,1.06-11.45c.12-1.39.23-2.55.31-3.48a7.6,7.6,0,0,1,.18-1.27,5.34,5.34,0,0,1,0,1.28c0,.83-.07,2-.16,3.49-.16,2.94-.45,7-.9,11.49s-1,8.51-1.39,11.43c-.21,1.46-.4,2.64-.54,3.45A5.86,5.86,0,0,1,212.16,333.89Z" style="fill:#fafafa"></path><path d="M229.46,301.78a.75.75,0,0,1,.37,0,2,2,0,0,1,.93.53,6,6,0,0,1,1.44,3.57,25.52,25.52,0,0,1,.17,5.71c-.14,2.15-.47,4.48-.8,6.93a42.62,42.62,0,0,1-1.43,6.85,20.23,20.23,0,0,1-2.42,5.19,14.2,14.2,0,0,1-2.52,2.92,10.19,10.19,0,0,1-.83.64,1.21,1.21,0,0,1-.32.18,19.06,19.06,0,0,0,3.36-3.94,21.37,21.37,0,0,0,2.27-5.13,46.07,46.07,0,0,0,1.38-6.78c.32-2.44.66-4.77.83-6.89a26.71,26.71,0,0,0,0-5.63,6.18,6.18,0,0,0-1.22-3.48A2.67,2.67,0,0,0,229.46,301.78Z" style="fill:#fafafa"></path><path d="M235.44,300.82c-3.65,1.5-3.59,7.47-6.33,10.31-3.58,3.72-10.12,1.12-14.81,3.29-6.21,2.87-6.15,12.2-11.38,16.61-3.22,2.71-8.1,3.23-10.63,6.58s-1,9.34,3.1,10.93l3.86-2.45c-1.11,1.8-.54,4.24.79,5.88a15.63,15.63,0,0,0,5.13,3.63c2.36-.27,3.65-2.87,4.17-5.18s.85-4.92,2.69-6.41c2.22-1.79,5.63-1.08,8.1-2.51,4.89-2.82,2.81-11.23,7.16-14.82,2.75-2.28,6.89-1.6,10.19-3,4.76-2,6.66-7.74,7.15-12.88s.22-10.61,2.77-15.1" style="fill:#263238"></path><path d="M188.52,290a15.46,15.46,0,0,0,18.4-17.1c-.54-4.28-2.85-8.63-1.37-12.68,2-5.36,9.47-7,11.46-12.35,1.16-3.1.12-6.73,1.43-9.78,1.24-2.86,4.25-4.51,7.18-5.57s6.07-1.79,8.53-3.7,4-5.52,2.41-8.2a165.13,165.13,0,0,0-38.07,9.25c-2.84,1.06-5.83,2.33-7.51,4.86-1.78,2.68-1.69,6.13-1.54,9.34L191.63,291" style="fill:#263238"></path><path d="M179.13,304.45a5.29,5.29,0,0,1-.07-1.17,9.46,9.46,0,0,1,.72-3.27,13.73,13.73,0,0,1,2.94-4.42,22.8,22.8,0,0,1,5.68-4.15c2.27-1.28,4.88-2.43,7.51-4a18.61,18.61,0,0,0,6.93-6.53,9.74,9.74,0,0,0,1.35-4.9,26.29,26.29,0,0,0-.79-5.39,14.71,14.71,0,0,1-.37-5.75,6.49,6.49,0,0,1,1.24-2.74,8.36,8.36,0,0,1,2.31-2c1.75-1,3.63-1.63,5.36-2.44a8.78,8.78,0,0,0,4.2-3.48,11.39,11.39,0,0,0,1.24-5.18c.07-1.78,0-3.54,0-5.27a15,15,0,0,1,.77-5,5.75,5.75,0,0,1,.51-1.13,9.11,9.11,0,0,1,.65-1A8.94,8.94,0,0,1,221,235c2.56-1.84,5.46-2.43,8-3a19.81,19.81,0,0,0,6.47-2.45,7.77,7.77,0,0,0,3.09-4.07,5.53,5.53,0,0,0,.07-3.25,9.3,9.3,0,0,0-.47-1.06,3.26,3.26,0,0,1,.57,1,5.43,5.43,0,0,1,0,3.34,7.85,7.85,0,0,1-3.12,4.25,19.73,19.73,0,0,1-6.54,2.56c-2.5.64-5.35,1.25-7.79,3a7.77,7.77,0,0,0-1.61,1.58,7.63,7.63,0,0,0-.61,1,5.23,5.23,0,0,0-.48,1.08,14.59,14.59,0,0,0-.72,4.86c0,1.71.09,3.47,0,5.28a11.92,11.92,0,0,1-1.28,5.42,9.38,9.38,0,0,1-4.43,3.69c-1.76.83-3.64,1.43-5.31,2.42a7.55,7.55,0,0,0-2.17,1.83,6,6,0,0,0-1.14,2.53,14.21,14.21,0,0,0,.36,5.54,26.35,26.35,0,0,1,.79,5.49,10.31,10.31,0,0,1-1.43,5.14,18.87,18.87,0,0,1-7.14,6.66c-2.66,1.53-5.28,2.66-7.55,3.91a23,23,0,0,0-5.64,4,14,14,0,0,0-3,4.29,9.72,9.72,0,0,0-.79,3.21C179.12,304.05,179.16,304.45,179.13,304.45Z" style="fill:#263238"></path><path d="M229.9,316.4a22,22,0,0,0,3.41.26,15.75,15.75,0,0,0,8.67-2.94,14.7,14.7,0,0,0,4.3-4.66,20.35,20.35,0,0,0,2.19-7c.47-2.56.85-5.37,2.3-7.94s4.09-4.24,6.28-6.24a12,12,0,0,0,4.05-7.42,12.72,12.72,0,0,0-.09-4.09,12.14,12.14,0,0,0-1.4-3.67c-1.27-2.24-2.89-4.24-3.62-6.52a15.6,15.6,0,0,1-.69-6.48,33.79,33.79,0,0,1,2.45-9.07c.41-1,.76-1.82,1-2.35a5.17,5.17,0,0,1,.39-.8,5.3,5.3,0,0,1-.3.84l-.9,2.38a35.28,35.28,0,0,0-2.27,9,15.45,15.45,0,0,0,.73,6.31c.71,2.19,2.31,4.13,3.63,6.42a12.9,12.9,0,0,1,1.47,3.81,13.2,13.2,0,0,1,.11,4.26,12.86,12.86,0,0,1-1.37,4.2,13.07,13.07,0,0,1-2.84,3.54c-2.25,2-4.8,3.65-6.19,6.11s-1.79,5.2-2.27,7.76a20.43,20.43,0,0,1-2.29,7.11,14.82,14.82,0,0,1-4.46,4.75,15.6,15.6,0,0,1-8.87,2.84,8.35,8.35,0,0,1-1.48-.08,6.27,6.27,0,0,1-1.07-.16A5.73,5.73,0,0,1,229.9,316.4Z" style="fill:#263238"></path><path d="M290.17,422.71a23.69,23.69,0,0,1-20.24-11.42L146.1,208.83a2.19,2.19,0,0,1,3.73-2.28L273.66,409a19.42,19.42,0,1,0,32.91-20.62l-3.77-5.86a2.19,2.19,0,1,1,3.68-2.36l3.76,5.87a23.79,23.79,0,0,1-8.15,33.46A23.91,23.91,0,0,1,290.17,422.71Z" style="fill:#455a64"></path><path d="M301.84,157s-43.46,2.62-64.64,45.68c0,0-47.91-3.95-62.65,35.25,0,0-55.45-6.3-67.35,44.84,0,0-44.4-1.63-47,38.8,0,0-30,1.16-32,31.61,0,0-25.16-124.07,67.53-189.22C193.79,95,301.84,157,301.84,157Z" style="fill:#FDE047"></path><path d="M248.13,422.05l-5.22-23.18,5.64-2.34a56.89,56.89,0,0,0,7.55-6.88,15.35,15.35,0,0,0,2.88-4.37,24,24,0,0,0,2-6.2c.14-2,2.65-2.79,3.62-1.24s.69,7.07-2.43,12.73c-2.11,3.82,1.5,3.33,5.14,2.2a5.56,5.56,0,0,1,6.72,3.1l3.34,7.62a9.17,9.17,0,0,1-5.25,12.28l-2.82,1h0l-21.18,5.24" style="fill:#ffbe9d"></path><path d="M54.06,257.43c0,.1-1.69.07-4.36.51a30.48,30.48,0,0,0-4.61,1.12,34.58,34.58,0,0,0-5.33,2.3A35,35,0,0,0,35,264.59a30.75,30.75,0,0,0-3.44,3.27c-1.82,2-2.71,3.45-2.79,3.39a4.82,4.82,0,0,1,.58-1,11,11,0,0,1,.79-1.15,15.51,15.51,0,0,1,1.14-1.45,28,28,0,0,1,3.41-3.4,32,32,0,0,1,4.88-3.32A32.86,32.86,0,0,1,45,258.6a29.06,29.06,0,0,1,4.7-1c.67-.11,1.29-.13,1.84-.17a11.56,11.56,0,0,1,1.39,0A4.8,4.8,0,0,1,54.06,257.43Z" style="fill:#fafafa"></path><path d="M93.2,236.13a20.18,20.18,0,0,1-2-.67,30,30,0,0,0-13.83-1.19A27.72,27.72,0,0,0,60,244.06a29.83,29.83,0,0,0-6.18,12.43c-.29,1.3-.4,2-.45,2a1.85,1.85,0,0,1,0-.54c.05-.35.08-.88.22-1.54A26.15,26.15,0,0,1,55.24,251,27.93,27.93,0,0,1,77.33,233.8a28.94,28.94,0,0,1,8.45,0,26.92,26.92,0,0,1,5.51,1.44c.64.22,1.1.47,1.43.61A3.17,3.17,0,0,1,93.2,236.13Z" style="fill:#fafafa"></path><path d="M143.64,195.55c0,.06-1-.26-2.83-.62a28.23,28.23,0,0,0-7.83-.34,37.09,37.09,0,0,0-5.34.91,39.2,39.2,0,0,0-5.89,2,38,38,0,0,0-6,3.25,35.8,35.8,0,0,0-5.77,4.58,59.14,59.14,0,0,0-8.78,11.24,108.23,108.23,0,0,0-5.5,10.33c-1.41,3-2.49,5.49-3.25,7.2l-.87,2a3,3,0,0,1-.34.67,5.43,5.43,0,0,1,.24-.71l.79-2c.69-1.74,1.72-4.24,3.1-7.28a102.29,102.29,0,0,1,5.42-10.42A57.74,57.74,0,0,1,109.57,205a36.1,36.1,0,0,1,5.85-4.64,38,38,0,0,1,6.14-3.26,39.12,39.12,0,0,1,6-2,35.1,35.1,0,0,1,5.42-.85,27,27,0,0,1,7.91.5,18.55,18.55,0,0,1,2.07.57A5.2,5.2,0,0,1,143.64,195.55Z" style="fill:#fafafa"></path><path d="M191.79,165.81c0,.05-.86-.24-2.41-.64a30,30,0,0,0-6.7-.9,36.4,36.4,0,0,0-21,6.33,46.31,46.31,0,0,0-5,3.94,49.25,49.25,0,0,0-4.08,4.3,53,53,0,0,0-5.62,8.32,67.33,67.33,0,0,0-3,6.11c-.33.73-.55,1.31-.72,1.7a2.7,2.7,0,0,1-.28.58,3.24,3.24,0,0,1,.18-.62c.14-.4.33-1,.63-1.74a57.88,57.88,0,0,1,2.84-6.2,50,50,0,0,1,5.57-8.45,46.15,46.15,0,0,1,4.11-4.37,43.22,43.22,0,0,1,5-4,36,36,0,0,1,21.33-6.27,27.9,27.9,0,0,1,6.74,1.07c.78.2,1.36.46,1.76.59A3.2,3.2,0,0,1,191.79,165.81Z" style="fill:#fafafa"></path><path d="M242.1,142.72s-.79-.25-2.22-.68a36.67,36.67,0,0,0-15.48-1.25,34.58,34.58,0,0,0-20.14,9.88,36.77,36.77,0,0,0-8.49,13c-.53,1.39-.78,2.18-.82,2.17a2.61,2.61,0,0,1,.13-.59c.11-.37.24-.95.5-1.65a33.45,33.45,0,0,1,2.62-5.78,35.81,35.81,0,0,1,15.08-14.24,35.84,35.84,0,0,1,11.06-3.27,35.34,35.34,0,0,1,9.42.07,31.62,31.62,0,0,1,6.18,1.47c.72.22,1.25.47,1.62.61A2.12,2.12,0,0,1,242.1,142.72Z" style="fill:#fafafa"></path><path d="M258.84,138.22c0,.08-.72.08-1.83.29a12.26,12.26,0,0,0-4.11,1.57,12.51,12.51,0,0,0-3.27,2.94,15,15,0,0,1-1.09,1.51,4.47,4.47,0,0,1,.79-1.72,10.6,10.6,0,0,1,3.3-3.17,10.39,10.39,0,0,1,4.32-1.5A4.29,4.29,0,0,1,258.84,138.22Z" style="fill:#fafafa"></path><path d="M56.25,298.59c0,.12-2.16-.13-5.58.29l-1.34.19c-.46.07-.93.2-1.43.31a31.12,31.12,0,0,0-3.11.85,35.33,35.33,0,0,0-6.68,3.13,34.93,34.93,0,0,0-5.8,4.56c-.78.83-1.55,1.59-2.16,2.39-.32.4-.65.76-.92,1.15l-.77,1.11c-1.92,2.86-2.66,4.89-2.78,4.84a9.46,9.46,0,0,1,.53-1.41,11.85,11.85,0,0,1,.77-1.6,19.83,19.83,0,0,1,1.17-2l.76-1.14c.26-.39.59-.77.9-1.18A29.26,29.26,0,0,1,32,307.58a34.54,34.54,0,0,1,5.86-4.67,33.92,33.92,0,0,1,6.81-3.13,29.88,29.88,0,0,1,3.17-.83c.5-.09,1-.21,1.46-.27l1.36-.16a20.38,20.38,0,0,1,2.34-.14,14.1,14.1,0,0,1,1.78,0A7.38,7.38,0,0,1,56.25,298.59Z" style="fill:#fafafa"></path><path d="M102.35,269.29a3,3,0,0,1-.63-.07c-.41-.06-1-.21-1.8-.3a41,41,0,0,0-16.45.88,39.8,39.8,0,0,0-25.57,21A39.53,39.53,0,0,0,55.43,297c-.25.75-.38,1.35-.51,1.75a2.29,2.29,0,0,1-.2.6,3,3,0,0,1,.1-.63c.09-.4.19-1,.41-1.78a37.08,37.08,0,0,1,2.33-6.31,40,40,0,0,1,14.55-16.5,39.87,39.87,0,0,1,21.14-6,35.78,35.78,0,0,1,6.71.61c.78.13,1.38.3,1.78.39A3.1,3.1,0,0,1,102.35,269.29Z" style="fill:#fafafa"></path><path d="M166.46,225.56a4.82,4.82,0,0,1-.89-.12c-.58-.07-1.42-.26-2.52-.39a47.61,47.61,0,0,0-9.36-.4,41.45,41.45,0,0,0-6.4.88,45.4,45.4,0,0,0-7.09,2.15,82.77,82.77,0,0,0-15,8,63.53,63.53,0,0,0-6.94,5.42,65.27,65.27,0,0,0-5.69,5.91,62.74,62.74,0,0,0-7.74,11.52,65,65,0,0,0-3.72,8.61c-.38,1-.6,1.88-.79,2.43a6.64,6.64,0,0,1-.31.84s.06-.3.2-.87.36-1.41.71-2.46a59.46,59.46,0,0,1,3.58-8.72,61.49,61.49,0,0,1,7.7-11.66,60.89,60.89,0,0,1,12.71-11.46,82.06,82.06,0,0,1,15.14-8,44,44,0,0,1,7.18-2.12,40.83,40.83,0,0,1,6.47-.83,45,45,0,0,1,9.41.57c1.1.16,1.94.38,2.51.49A6.22,6.22,0,0,1,166.46,225.56Z" style="fill:#fafafa"></path><path d="M229.3,192.52a3.42,3.42,0,0,1-.77-.1c-.51-.07-1.25-.24-2.21-.36a56.24,56.24,0,0,0-8.19-.6,54.27,54.27,0,0,0-12.07,1.32,52.52,52.52,0,0,0-6.89,2,51.33,51.33,0,0,0-7,3.16,64.69,64.69,0,0,0-12.22,8.48,44.2,44.2,0,0,0-11.64,16.5c-.39.89-.62,1.61-.81,2.09a7.67,7.67,0,0,1-.31.72,3.48,3.48,0,0,1,.21-.76c.16-.48.36-1.22.72-2.12a41.8,41.8,0,0,1,3.64-7.41,44,44,0,0,1,7.87-9.37,63.69,63.69,0,0,1,12.3-8.59,51,51,0,0,1,7.09-3.18,52.24,52.24,0,0,1,7-2,53,53,0,0,1,12.19-1.22,51,51,0,0,1,8.21.77c1,.16,1.7.36,2.2.46A6,6,0,0,1,229.3,192.52Z" style="fill:#fafafa"></path><path d="M275.71,154.74a2.78,2.78,0,0,1-.67,0c-.44,0-1.09,0-1.92.05a48.56,48.56,0,0,0-7,.8,46.09,46.09,0,0,0-34.48,28.09,46.34,46.34,0,0,0-2.2,6.68c-.22.8-.33,1.44-.44,1.87a3.09,3.09,0,0,1-.18.65,3,3,0,0,1,.08-.67c.07-.43.15-1.08.34-1.89a42.66,42.66,0,0,1,2.05-6.78,45.46,45.46,0,0,1,34.76-28.31,43,43,0,0,1,7.05-.64c.84,0,1.49,0,1.93,0A5.93,5.93,0,0,1,275.71,154.74Z" style="fill:#fafafa"></path><path d="M289,151.37a13,13,0,0,1-1.77-.06,12.33,12.33,0,0,0-4.14.7,12.14,12.14,0,0,0-3.63,2.11,15.81,15.81,0,0,1-1.32,1.18,3.82,3.82,0,0,1,1.08-1.45,10.18,10.18,0,0,1,8-2.9A4.2,4.2,0,0,1,289,151.37Z" style="fill:#fafafa"></path><path d="M61.47,213.11a14.35,14.35,0,0,1-1.53-.78,8.36,8.36,0,0,0-3.94-.78,11.12,11.12,0,0,0-3.94,1,9.65,9.65,0,0,1-1.58.71,4.31,4.31,0,0,1,1.42-1A9.48,9.48,0,0,1,56,211a7.66,7.66,0,0,1,4.14,1A3.66,3.66,0,0,1,61.47,213.11Z" style="fill:#fafafa"></path><path d="M88.79,202.43a33.36,33.36,0,0,0-4.8-1.52A19.85,19.85,0,0,0,63,209.65a33.15,33.15,0,0,0-2.29,4.48,5.19,5.19,0,0,1,.36-1.31,17.67,17.67,0,0,1,1.61-3.36,19.56,19.56,0,0,1,21.35-8.91,17.91,17.91,0,0,1,3.52,1.21A5.46,5.46,0,0,1,88.79,202.43Z" style="fill:#fafafa"></path><path d="M122.51,175.51a13.93,13.93,0,0,1-1.87.18,42.38,42.38,0,0,0-5,.76,44.31,44.31,0,0,0-7.22,2.19,36.63,36.63,0,0,0-20.94,21.68,13,13,0,0,1-.66,1.75,2.81,2.81,0,0,1,.09-.48c.09-.3.18-.77.38-1.34a31.66,31.66,0,0,1,1.91-4.76A35.52,35.52,0,0,1,100,182.59a36.1,36.1,0,0,1,8.23-4.4,41.35,41.35,0,0,1,7.32-2.1,34.52,34.52,0,0,1,5.1-.6c.6,0,1.07,0,1.39,0A2.08,2.08,0,0,1,122.51,175.51Z" style="fill:#fafafa"></path><path d="M149.3,151.11c0,.12-2.13.37-5.4,1.5a24.84,24.84,0,0,0-2.62,1.06,31.28,31.28,0,0,0-2.88,1.46,37.76,37.76,0,0,0-6,4.36,36.82,36.82,0,0,0-4.9,5.54,32.22,32.22,0,0,0-1.73,2.74c-.24.44-.5.86-.71,1.28s-.4.83-.58,1.23c-1.43,3.14-1.86,5.27-2,5.23a7.64,7.64,0,0,1,.3-1.48,14.06,14.06,0,0,1,.5-1.7,21.85,21.85,0,0,1,.84-2.2l.56-1.26c.2-.43.45-.86.69-1.31a32.47,32.47,0,0,1,1.71-2.8,36.34,36.34,0,0,1,5-5.66,35.81,35.81,0,0,1,6.1-4.38,32,32,0,0,1,3-1.45,23.76,23.76,0,0,1,2.67-1c.82-.3,1.6-.45,2.27-.63a14.54,14.54,0,0,1,1.75-.35A9.48,9.48,0,0,1,149.3,151.11Z" style="fill:#fafafa"></path><path d="M160.63,139.16c0,.08-.79.37-2,1a17.39,17.39,0,0,0-4.29,3.24,17.6,17.6,0,0,0-3.06,4.42c-.6,1.25-.84,2.08-.93,2.06a6.4,6.4,0,0,1,.6-2.21,14.9,14.9,0,0,1,7.52-7.84A6,6,0,0,1,160.63,139.16Z" style="fill:#fafafa"></path><path d="M94.82,164.55a10.62,10.62,0,0,1-1.25,1.19c-.84.75-2.12,1.81-3.62,3.33a100.12,100.12,0,0,0-11.74,13.71,131.16,131.16,0,0,0-18.9,38,110.12,110.12,0,0,0-3.62,16.54c-2.93,23.16-1.21,44.4.37,59.57.81,7.61,1.62,13.75,2.17,18,.27,2,.47,3.67.63,4.9a9.48,9.48,0,0,1,.14,1.71,10,10,0,0,1-.37-1.68c-.21-1.22-.48-2.83-.83-4.86-.69-4.23-1.62-10.36-2.54-18-1.78-15.17-3.65-36.49-.7-59.8a109.41,109.41,0,0,1,3.69-16.73,134.46,134.46,0,0,1,5.66-14.89A132.35,132.35,0,0,1,77.56,182.3a92.56,92.56,0,0,1,12.09-13.55,48.82,48.82,0,0,1,3.77-3.19A10.11,10.11,0,0,1,94.82,164.55Z" style="fill:#263238"></path><path d="M94.82,164.55c.1.08-1.06,1.37-2.52,4.08A37,37,0,0,0,88.5,181a92.75,92.75,0,0,0-.27,19.37c.46,7.31,1.19,15.33,2.36,23.7a249.59,249.59,0,0,0,9.53,42.17c1.69,5.28,3.22,9.49,4.3,12.4.5,1.36.91,2.47,1.24,3.35a5.24,5.24,0,0,1,.36,1.2,5.17,5.17,0,0,1-.57-1.11c-.38-.86-.86-1.94-1.44-3.27-1.21-2.87-2.86-7-4.66-12.32a228.36,228.36,0,0,1-9.89-42.26c-1.17-8.41-1.87-16.46-2.27-23.8a88.54,88.54,0,0,1,.52-19.55,35.28,35.28,0,0,1,4.2-12.49A19.82,19.82,0,0,1,94,165.47,4.93,4.93,0,0,1,94.82,164.55Z" style="fill:#263238"></path><path d="M98.76,161.8a8.67,8.67,0,0,1,1.37-.81c.93-.49,2.27-1.25,4.07-2.11a98.59,98.59,0,0,1,15.72-6.1,74.93,74.93,0,0,1,24.83-2.89c9.46.46,19.68,2.8,29.95,6.38,20.65,7.21,37,19,47.54,28.42a151,151,0,0,1,12,11.86c1.35,1.46,2.31,2.67,3,3.47a7.86,7.86,0,0,1,1,1.27,8.51,8.51,0,0,1-1.15-1.12c-.73-.75-1.75-1.91-3.14-3.32-2.75-2.86-6.82-6.92-12.18-11.56-10.67-9.23-26.92-20.8-47.39-27.95-10.19-3.55-20.3-5.89-29.63-6.4a75.56,75.56,0,0,0-24.55,2.62,109.83,109.83,0,0,0-15.76,5.72c-1.81.79-3.19,1.49-4.15,1.91A7.69,7.69,0,0,1,98.76,161.8Z" style="fill:#263238"></path><path d="M288,159a2.23,2.23,0,0,1-.49-.17l-1.36-.61-5.2-2.41-3.75-1.76-4.57-1.83c-3.28-1.31-7-2.89-11.24-4.19l-6.61-2.22c-2.33-.68-4.78-1.3-7.3-2-5-1.51-10.51-2.47-16.25-3.71a234.83,234.83,0,0,0-38-3.59,215.21,215.21,0,0,0-38,3.51c-5.72,1.32-11.22,2.33-16.18,4-2.5.76-4.94,1.42-7.23,2.2l-6.52,2.48a109.66,109.66,0,0,0-11,4.78c-1.59.76-3.09,1.43-4.44,2.1l-3.6,2-5,2.81-1.32.71a2.45,2.45,0,0,1-.47.21s.13-.12.41-.31l1.26-.8,4.89-3,3.56-2.15c1.34-.7,2.84-1.4,4.42-2.19a106.51,106.51,0,0,1,11-5l6.53-2.56c2.3-.81,4.75-1.48,7.25-2.27,5-1.71,10.5-2.76,16.25-4.12a210.58,210.58,0,0,1,38.2-3.61,229.9,229.9,0,0,1,38.18,3.69c5.76,1.28,11.29,2.28,16.31,3.83,2.52.72,5,1.36,7.31,2.07l6.62,2.29c4.25,1.36,7.94,3,11.21,4.37l4.55,1.91,3.72,1.86,5.11,2.61,1.32.7C287.9,158.93,288.05,159,288,159Z" style="fill:#263238"></path><path d="M98.76,161.8a4.76,4.76,0,0,1,1,.35c.67.27,1.66.65,2.91,1.21A104.58,104.58,0,0,1,113,168.63a98.7,98.7,0,0,1,14.06,9.93,152.19,152.19,0,0,1,15,14.75,310.65,310.65,0,0,1,23.49,30.12c2.8,4,5,7.28,6.52,9.56l1.71,2.64a3.71,3.71,0,0,1,.53,1,4.41,4.41,0,0,1-.72-.83l-1.88-2.52L165,223.9a369.39,369.39,0,0,0-23.68-29.83,161.32,161.32,0,0,0-14.86-14.71,104.39,104.39,0,0,0-13.79-10c-4.15-2.53-7.66-4.34-10.1-5.56A31.94,31.94,0,0,1,98.76,161.8Z" style="fill:#263238"></path></g><g id="freepik--Floor--inject-6"><path d="M456.58,465.06c0,.15-97.08.26-206.9.26s-198.88-.11-198.88-.26,89-.26,198.88-.26S456.58,464.92,456.58,465.06Z" style="fill:#263238"></path></g><g id="freepik--Plant--inject-6"><path d="M440.8,428c-1.72,2.46-5.06,1.64-6.61.15s-2.21-3.67-2.8-5.75c-1.37-4.73-2.74-9.69-1.73-14.51a8.18,8.18,0,0,1,1.86-3.95,4.22,4.22,0,0,1,4-1.33c1.69.45,2.73,2.1,3.49,3.67a34.7,34.7,0,0,1,3.42,14.85A12,12,0,0,1,440.8,428" style="fill:#FDE047"></path><g style="opacity:0.2"><path d="M440.8,428c-1.72,2.46-5.06,1.64-6.61.15s-2.21-3.67-2.8-5.75c-1.37-4.73-2.74-9.69-1.73-14.51a8.18,8.18,0,0,1,1.86-3.95,4.22,4.22,0,0,1,4-1.33c1.69.45,2.73,2.1,3.49,3.67a34.7,34.7,0,0,1,3.42,14.85A12,12,0,0,1,440.8,428"></path></g><path d="M434.35,440.43a14.94,14.94,0,0,0-9.24-1.13,7.69,7.69,0,0,0-4.56,2c-1.14,1.26-1.36,3.48-.05,4.56a4.41,4.41,0,0,0,2.88.73c2.44,0,5.15-.46,7.1,1,1.12.84,1.86,2.23,3.19,2.65a3.16,3.16,0,0,0,3.46-1.54,5.4,5.4,0,0,0,.4-4A6.06,6.06,0,0,0,434.35,440.43Z" style="fill:#FDE047"></path><path d="M445.52,431.52a8.94,8.94,0,0,1-1.39-8.23,15.81,15.81,0,0,1,4.87-7.06,26,26,0,0,1,8.71-5.14,9.21,9.21,0,0,1,3.93-.67,4.13,4.13,0,0,1,3.29,2c.91,1.75,0,3.87-.92,5.61a66.11,66.11,0,0,1-5.72,8.72c-1.72,2.21-3.69,4.39-6.3,5.39s-5.34.89-6.72-.93" style="fill:#FDE047"></path><path d="M440.91,465a5.89,5.89,0,0,1-.15-1.12l-.3-3a45.11,45.11,0,0,0-.68-4.47,35.71,35.71,0,0,0-1.63-5.27,19.64,19.64,0,0,0-2.69-4.77,10.14,10.14,0,0,0-3.4-2.83,9.53,9.53,0,0,0-2.87-.89,5.29,5.29,0,0,1-1.11-.16,5.2,5.2,0,0,1,1.13,0,8.61,8.61,0,0,1,3,.78,10.14,10.14,0,0,1,3.59,2.85,19.27,19.27,0,0,1,2.79,4.87,32.57,32.57,0,0,1,1.61,5.36,37,37,0,0,1,.59,4.52c.1,1.29.14,2.34.16,3.06A5.52,5.52,0,0,1,440.91,465Z" style="fill:#263238"></path><path d="M440.7,462.69a3.52,3.52,0,0,1,0-.52c0-.39,0-.88,0-1.48,0-1.29,0-3.15-.07-5.44-.11-4.59-.51-10.93-1.27-17.9s-1.79-13.24-2.72-17.73c-.22-1.13-.44-2.14-.65-3s-.37-1.66-.53-2.28-.26-1.06-.35-1.44a3.17,3.17,0,0,1-.09-.51,1.63,1.63,0,0,1,.18.48c.12.38.26.85.43,1.42s.39,1.38.61,2.27.48,1.89.72,3a171.26,171.26,0,0,1,2.86,17.75c.76,7,1.11,13.34,1.14,17.94,0,2.3,0,4.17-.08,5.45,0,.6-.07,1.09-.1,1.48A1.81,1.81,0,0,1,440.7,462.69Z" style="fill:#263238"></path><path d="M440.67,450.43a9.67,9.67,0,0,1,0-1.55c.06-1,.2-2.43.48-4.19a53.47,53.47,0,0,1,1.36-6.1,54.33,54.33,0,0,1,2.55-7.23,38.36,38.36,0,0,1,7.5-11.67,19.62,19.62,0,0,1,1.76-1.64c.27-.23.51-.46.75-.64s.48-.32.69-.47a9.13,9.13,0,0,1,1.3-.83,46.27,46.27,0,0,0-4.27,3.81,40.58,40.58,0,0,0-7.31,11.63,56.52,56.52,0,0,0-2.56,7.15,60.67,60.67,0,0,0-1.45,6.05c-.32,1.74-.51,3.16-.62,4.14A10.05,10.05,0,0,1,440.67,450.43Z" style="fill:#263238"></path></g></svg>
