<svg xmlns="http://www.w3.org/2000/svg" viewBox="0 0 500 500"><g id="freepik--background-complete--inject-7"><path d="M459.13,281.86c-5.61,0-145.62-1-185.17-1-2.77,0,.73-4.79,2.25-5.12,4.87-1.07,9.93-1.12,14.87-1.63a48.9,48.9,0,0,0,14.18-3.55c3.89-1.65,7.77-3.55,12-4.2,8.15-1.28,15.3,3.13,22.94,5.08a17.28,17.28,0,0,0,13.89-1.89c3.54-2.12,6.75-4.66,10.44-6.54a57.25,57.25,0,0,1,45.75-2.09,53.08,53.08,0,0,1,10,5.12c3.73,2.45,7,5.58,10.69,8,8.3,5.37,18.55,3.62,27.6,6.7C459.05,280.92,459.61,281.86,459.13,281.86Z" style="fill:#ebebeb"></path><path d="M184.33,68.66c-7.41,0-132.24.82-140.09.57a.61.61,0,0,1-.3-1.12c4.94-2.45,10.55-2,15.69-3.69,3-1,4.88-3,7-5.26a14.3,14.3,0,0,1,6.5-4.24,13.68,13.68,0,0,1,7.07-.23c2.53.61,4.73,2.06,7.15,3,6,2.27,11.82.11,16.1-4.32,3.53-3.66,7-7.11,11.81-9.08a15.66,15.66,0,0,1,12.5-.17c4.58,2.07,7.72,6.24,12,8.75,5.1,3,11.2,2.28,16.83,3.18s9.95,5.64,14.89,8.37a10.7,10.7,0,0,0,5.38,1.67,32.78,32.78,0,0,0,3.28-.47c1.7-.21,3.32-.16,4.46,1.26C184.88,67.19,184.82,68.66,184.33,68.66Z" style="fill:#ebebeb"></path><path d="M444,132.73c-5.42,0-96.56.6-102.28.42-.41,0-.64-.62-.23-.82,3.61-1.79,7.71-1.43,11.46-2.69,2.21-.75,3.57-2.19,5.1-3.85a10.46,10.46,0,0,1,4.74-3.09,10,10,0,0,1,5.16-.17c1.85.45,3.46,1.5,5.22,2.17,4.38,1.65,8.63.08,11.76-3.16,2.58-2.67,5.11-5.19,8.62-6.62a11.42,11.42,0,0,1,9.13-.13c3.34,1.51,5.63,4.56,8.77,6.39,3.73,2.18,8.18,1.66,12.29,2.32s7.27,4.12,10.87,6.11a7.79,7.79,0,0,0,3.93,1.22c.81,0,1.6-.24,2.4-.34,1.24-.15,2.42-.12,3.25.92C444.43,131.66,444.39,132.73,444,132.73Z" style="fill:#ebebeb"></path><path d="M143.41,219.38c-5.42,0-96.56.6-102.28.42-.42,0-.64-.62-.23-.82,3.61-1.79,7.71-1.43,11.46-2.7,2.21-.74,3.56-2.18,5.1-3.84a10.56,10.56,0,0,1,4.74-3.1,10,10,0,0,1,5.16-.16c1.85.44,3.46,1.5,5.22,2.17,4.38,1.65,8.63.08,11.76-3.16,2.58-2.67,5.11-5.19,8.62-6.63a11.46,11.46,0,0,1,9.13-.12c3.34,1.51,5.63,4.56,8.77,6.39,3.73,2.18,8.18,1.66,12.29,2.32s7.27,4.12,10.87,6.11a7.76,7.76,0,0,0,3.93,1.22c.81,0,1.6-.24,2.4-.34,1.24-.15,2.42-.12,3.25.92C143.8,218.31,143.76,219.38,143.41,219.38Z" style="fill:#ebebeb"></path><path d="M334.17,329.54c-.11.3-143.65,0-141.84,0,.83,0-1.25-1.24-.44-1.64,4.67-2.32,9.78-2.38,14.87-2.85a22.84,22.84,0,0,0,8.69-2.11c2.71-1.41,4.39-3.87,6.31-6.15a27,27,0,0,1,24.51-9.28c10.21,1.6,18.25,9.37,28.48,10.8,6.14.86,11.95-1.52,17.95-2.35a21.93,21.93,0,0,1,13.48,2.46c3.24,1.61,6.23,3,9.89,3.21,2.81.2,5.63-.12,8.45-.15a18.91,18.91,0,0,1,12.43,5C337.41,326.85,338.85,329.54,334.17,329.54Z" style="fill:#ebebeb"></path><path d="M249.55,89a89.27,89.27,0,0,1,18.87,0,76.56,76.56,0,0,1-9.44.5A80.63,80.63,0,0,1,249.55,89Z" style="fill:#ebebeb"></path><path d="M297.42,59.86c-.21-2.44-.3-4.89-.38-7.33s-.11-4.88-.12-7.32,0-4.89.12-7.33l.14-3.66c.08-1.22.13-2.44.24-3.66.11,1.22.16,2.44.25,3.66l.14,3.66c.09,2.44.1,4.89.11,7.33s0,4.88-.12,7.32S297.63,57.42,297.42,59.86Z" style="fill:#ebebeb"></path><path d="M282.9,63.78a80.16,80.16,0,0,1-5.2-8,80.06,80.06,0,0,1-4.34-8.51,81.18,81.18,0,0,1,5.2,8A80.21,80.21,0,0,1,282.9,63.78Z" style="fill:#ebebeb"></path><path d="M272.28,74.43c-2.21-1-4.38-2.18-6.53-3.33s-4.28-2.36-6.4-3.57-4.22-2.46-6.29-3.76l-3.1-2c-1-.68-2.05-1.33-3.05-2,1.11.51,2.19,1.08,3.29,1.62l3.24,1.71c2.16,1.14,4.29,2.35,6.41,3.56s4.21,2.46,6.28,3.76S270.27,73,272.28,74.43Z" style="fill:#ebebeb"></path><path d="M326.52,88.86a89.27,89.27,0,0,1,18.87,0,89.27,89.27,0,0,1-18.87,0Z" style="fill:#ebebeb"></path><path d="M322.61,74.34c2-1.4,4.07-2.7,6.15-4s4.18-2.53,6.28-3.76,4.25-2.43,6.41-3.57l3.24-1.71c1.1-.54,2.18-1.11,3.29-1.62-1,.71-2,1.36-3.05,2.05l-3.1,1.95c-2.07,1.3-4.18,2.53-6.29,3.76s-4.24,2.42-6.4,3.56S324.82,73.3,322.61,74.34Z" style="fill:#ebebeb"></path><path d="M312,63.73a80.61,80.61,0,0,1,4.33-8.49,77.93,77.93,0,0,1,5.19-8,78.74,78.74,0,0,1-4.33,8.49A79.65,79.65,0,0,1,312,63.73Z" style="fill:#ebebeb"></path><path d="M297.47,118c.21,2.44.3,4.88.38,7.32s.11,4.89.12,7.33,0,4.88-.12,7.33l-.14,3.66c-.08,1.22-.13,2.44-.24,3.66-.11-1.22-.16-2.44-.25-3.66l-.14-3.66c-.09-2.45-.1-4.89-.11-7.33s0-4.88.12-7.33S297.26,120.47,297.47,118Z" style="fill:#ebebeb"></path><path d="M312,114.11a81.18,81.18,0,0,1,5.2,8,79.26,79.26,0,0,1,4.34,8.52,80.16,80.16,0,0,1-5.2-8A80.06,80.06,0,0,1,312,114.11Z" style="fill:#ebebeb"></path><path d="M322.61,103.46c2.21,1,4.38,2.18,6.53,3.33s4.28,2.35,6.4,3.56,4.22,2.47,6.29,3.76l3.1,2c1,.68,2.05,1.33,3.05,2-1.11-.51-2.19-1.08-3.29-1.62l-3.24-1.71c-2.16-1.14-4.28-2.35-6.41-3.56s-4.21-2.47-6.28-3.77S324.62,104.86,322.61,103.46Z" style="fill:#ebebeb"></path><path d="M272.28,103.54c-2,1.4-4.07,2.71-6.15,4s-4.18,2.53-6.28,3.76-4.25,2.42-6.41,3.57l-3.24,1.71c-1.1.53-2.18,1.1-3.29,1.61,1-.7,2-1.36,3.05-2l3.1-2c2.07-1.3,4.18-2.53,6.29-3.76s4.24-2.42,6.4-3.56S270.07,104.59,272.28,103.54Z" style="fill:#ebebeb"></path><path d="M282.94,114.16a82.6,82.6,0,0,1-4.33,8.49,77.93,77.93,0,0,1-5.19,8,78.74,78.74,0,0,1,4.33-8.49A79.65,79.65,0,0,1,282.94,114.16Z" style="fill:#ebebeb"></path><circle cx="297.45" cy="88.94" r="23.26" style="fill:#ebebeb"></circle></g><g id="freepik--Floor--inject-7"><polygon points="41.45 453.45 93.59 453.2 145.73 453.12 250 452.95 354.27 453.12 406.41 453.2 458.55 453.45 406.41 453.69 354.27 453.78 250 453.95 145.73 453.78 93.59 453.69 41.45 453.45" style="fill:#263238"></polygon></g><g id="freepik--Plants--inject-7"><path d="M317.63,420.46c-4-5.1-8.46-10.73-8.18-17.51.25-6.25,2.36-13.19,8.1-16.52,1.64-.94,2.84-1.27,3.36.84.8,3.21-.56,7.12-1.25,10.24A65.34,65.34,0,0,0,318,409.73c-.08,2.88.12,5.78.11,8.68,0,.36,0,.72,0,1.09,0,.13,0,.28,0,.42l.11.15a.34.34,0,0,1,0,.29.24.24,0,0,1-.06.11A.34.34,0,0,1,317.63,420.46Z" style="fill:#FDE047"></path><path d="M318.16,420.47c-3.23-4.66-7-9.48-6.54-15.41a26.31,26.31,0,0,1,2.12-8c.48-1.15,1.91-4.6,3.42-4.68,2.72-.14-.92,10.79-1.1,12.07a27.71,27.71,0,0,0,2,14c0,.36,0,.72,0,1.09a31.11,31.11,0,0,1-2.56-9.74c-.4-4.67,1.17-8.56,2-13.05.19-1,.95-4-.72-3.8-1.1.16-2.52,3.52-2.82,4.25a25.93,25.93,0,0,0-2,7.59c-.57,6,3.1,10.84,6.25,15.61A.24.24,0,0,1,318.16,420.47Z" style="fill:#fff"></path><path d="M316.51,425.64l-.7.31h0a.17.17,0,0,1-.18,0,.27.27,0,0,1-.09-.35.22.22,0,0,1,.13-.09l.1,0,.22-.07v0l0-.05c2.8-3.42,6.14-6.38,8.91-9.85,2.63-3.31,5-6.81,7.94-9.91,1.82-1.95,11.44-11.12,13.49-5.45.91,2.51-1.08,6.11-2.32,8.2a27,27,0,0,1-6.42,7.25C331.35,420.59,323.71,422.47,316.51,425.64Z" style="fill:#FDE047"></path><path d="M330.9,417.58a31.48,31.48,0,0,0,6.7-6c.67-.8,3.86-4.65,2.81-5.91-.68-.82-2.48.26-3.09.59-2.6,1.41-4.47,3.92-6.45,6a122.12,122.12,0,0,1-13,12c-.33.17-.68.34-1,.53s-.55.29-.82.44l-.29.16-.22.12a.27.27,0,0,0,.09.35c.22-.11.44-.22.65-.34l-.47.36h0l.57-.26.13-.06c.27-.19.53-.39.78-.59C321.89,422.66,326.62,420.5,330.9,417.58ZM319,423.75c2.7-2.14,5.3-4.43,7.79-6.82,2-1.93,3.92-3.95,5.79-6a29.18,29.18,0,0,1,3.35-3.32c.94-.74,4.65-3.19,3.75.27-.66,2.51-3.87,5.31-5.75,6.91a44.59,44.59,0,0,1-6.72,4.64C324.5,421,321.72,422.34,319,423.75Z" style="fill:#fff"></path><path d="M304.17,438.8h0c-.08-.08-.15-.17-.16-.18-3.2-5-8.24-11-7.94-17.27.22-4.63,2.77-10.85,7.36-12.74,5.18-2.12,4.17,7.67,4,10.17a182.1,182.1,0,0,1-3,19.94l-.05.12s0,0,0,0S304.27,438.89,304.17,438.8Z" style="fill:#FDE047"></path><path d="M304.43,438.87c0-.4-.06-.8-.08-1.21-.28-4.57-.37-9.16-.23-13.74,0-1.15.95-10-1.34-9.57-1.39.26-2.22,3.55-2.53,4.64a18.22,18.22,0,0,0-.63,6c.31,4.62,2.66,8.8,4.3,13.1a6.25,6.25,0,0,1,.24.6.53.53,0,0,0,0,.13h0C304.28,438.89,304.39,439,304.43,438.87Zm-4.09-11.44a18.34,18.34,0,0,1-.18-6.14c.19-1.35,1-6.24,2.73-6.34.92-.05.82.52,1,1.56a11.35,11.35,0,0,1,.14,1.43c.05,1.18,0,2.37-.09,3.54-.11,2.07-.16,4.13-.17,6.21,0,3.39.1,6.78.32,10.16C302.91,434.34,301.08,431.06,300.34,427.43Z" style="fill:#fff"></path><path d="M320.33,440.45a35,35,0,0,1-20.24,2.11.39.39,0,0,1-.11-.06.27.27,0,0,1-.09-.31.25.25,0,0,1,.29-.17l.42.07c7.08-3.89,14.18-7.68,21.19-11.7,1.65-.95,12.31-6.79,12.88-2.64.35,2.57-3.57,5.58-5.26,7A35.46,35.46,0,0,1,320.33,440.45Z" style="fill:#FDE047"></path><path d="M327.8,432.43c.43-.55.78-1.24,0-1.57-1.57-.64-6.5,2.2-7.92,2.93-5.83,3-11.77,5.36-17.82,7.79l-1.53.63-.6,0a.26.26,0,0,0,.09.31l.16-.05c.26,0,.54,0,.8,0h0a41.18,41.18,0,0,0,12.65-1.9,39,39,0,0,0,7.44-3.24C323.21,436.09,326.27,434.46,327.8,432.43Zm-26.51,9.76h-.39c.22-.07.43-.13.64-.21a116.34,116.34,0,0,0,14.06-5.67c2.3-1.13,4.53-2.4,6.87-3.44,1-.44,3.75-1.79,4.67-1.36s-.06,1.1-.56,1.57-1.09.85-1.45,1.13A40.68,40.68,0,0,1,301.29,442.19Z" style="fill:#fff"></path><path d="M286.63,453.45l-.69-1,2.48-1.87c3.32-2.56,6.62-5.15,9.88-7.8,1.86-1.51,3.68-3,5.44-4.6l.18-.16.43-.4.46-.42A50.77,50.77,0,0,0,314.94,425c.89-1.56,1.7-3.16,2.48-4.78.08-.15.15-.31.22-.46l.06-.13c.08-.16.15-.32.23-.49l.16-.36c2.31-5,4.21-10.23,6.23-15.33.57-1.46,1.16-2.93,1.75-4.38a1.56,1.56,0,0,1,.11-.26c0-.11.08-.22.12-.33,2.6-6.44,5.26-12.87,7.68-19.37.09-.24.45-.07.36.17-1.58,4.35-3,8.73-4.56,13.12-.19.58-.4,1.16-.6,1.75-.39,1.16-.79,2.3-1.19,3.45-.81,2.31-1.63,4.6-2.48,6.88-2.4,6.4-4.74,13-7.92,19.07-.24.46-.49.9-.74,1.36-.15.28-.31.56-.47.83l-.55,1c-3.35,5.64-7.83,10-12.76,14.08l-1.05.84c-.15.13-.31.27-.48.4a2.32,2.32,0,0,0-.25.21c-.12.08-.22.17-.34.26h0l-.25.19c-.3.24-.6.47-.9.72q-5,3.87-10,7.63C288.75,451.8,287.69,452.63,286.63,453.45Z" style="fill:#FDE047"></path><path d="M327.67,380.55c1.64-5.16,6.5-13.75,13.06-12.61a5.08,5.08,0,0,1,4.34,5.19c0,3.1-2.14,6-4,8.34-4.89,6.21-10.33,11.91-14.79,18.46a7.75,7.75,0,0,1-.47.71c-.09.14-.29,0-.2-.16s.29-.43.43-.64C326.09,393.48,325.73,386.66,327.67,380.55Z" style="fill:#FDE047"></path><path d="M326.33,400c0-.05,0-.09.05-.14a53.27,53.27,0,0,1,2.8-5.73,107.65,107.65,0,0,1,7.39-11c1-1.38,6.14-7.92,1.89-8.38-1.78-.19-3.61,1.33-4.83,2.45a19.9,19.9,0,0,0-4.62,6.38c-2.25,4.77-2.76,10-2.83,15.24,0,.24,0,.47,0,.71l-.09.21-.06.15a.28.28,0,0,0,0,.09.19.19,0,0,0,.24.14A.16.16,0,0,0,326.33,400Zm0-1.54a42.72,42.72,0,0,1,2.1-12.7,22.44,22.44,0,0,1,3.17-5.93,17.68,17.68,0,0,1,2-2.23,11.79,11.79,0,0,1,1.74-1.41c1.36-.92,3.21-1.41,3.91-.73.88.85.55,1.58-.11,3a12.91,12.91,0,0,1-.76,1.42,37.72,37.72,0,0,1-2.28,3.29c-1.32,1.78-2.63,3.56-3.87,5.39-.85,1.24-1.67,2.5-2.43,3.79a55.08,55.08,0,0,0-3.51,6.89C326.27,399,326.29,398.71,326.3,398.44Z" style="fill:#fff"></path><path d="M60.64,412.23c3.19,2.93,6.18,6.08,9.13,9.26,1.67,1.8,3.32,3.62,5,5.42,1.84,2,3.59,4.2,6.19,5.17h0a2.46,2.46,0,0,1,.32.19s0,0,0,.06a.33.33,0,0,1-.41.39l-.17-.06h-.07a10.68,10.68,0,0,1-2.36-.55,55.51,55.51,0,0,1-6.3-1.87,54.09,54.09,0,0,1-12-6,45.55,45.55,0,0,1-9-8c-2.09-2.45-5.25-6.05-5.84-9.33-.53-3,3.31-2.39,5.09-1.87C54.27,406.24,57.62,409.45,60.64,412.23Z" style="fill:#FDE047"></path><path d="M51,410.05c-.91,1.28,2.55,5.15,4,6.88a43.88,43.88,0,0,0,7.81,7.23,56.57,56.57,0,0,0,17.15,8.27l.74.22h.07a1.15,1.15,0,0,1,.17.06.33.33,0,0,0,.41-.4c-.49-.23-1-.46-1.43-.72s-.83-.47-1.23-.72c-4.44-2.64-8.3-6.31-12.08-9.81C62.15,417,52.19,408.36,51,410.05ZM79.31,431.7c.62.34,1.24.65,1.87.94l-1.49-.49a62.63,62.63,0,0,1-15.19-7.21,45.44,45.44,0,0,1-7.29-6.07A40.6,40.6,0,0,1,53.89,415c-.42-.57-3.21-4-2.47-4.63.52-.47,3.72,1.62,3.79,1.66.64.41,1.26.86,1.88,1.32,1.28.93,2.5,1.94,3.7,3,2.6,2.22,5.08,4.6,7.61,6.91C71.76,426.3,75.29,429.48,79.31,431.7Z" style="fill:#fff"></path><path d="M84.68,399c2.9,5.62,3.58,12.07,3.67,18.29,0,3.34-.07,6.67-.11,10a44.05,44.05,0,0,0,.32,8.93c0,.12,0,.25.08.38a11.27,11.27,0,0,0,.79,2.38.15.15,0,0,1,0,.16,1.07,1.07,0,0,1,.15.22c0,.05,0,.12-.08.07s-.14-.13-.21-.18l0,0a.19.19,0,0,1-.18-.11l0-.1-.2-.19c-4.87-4.49-7.6-12.09-9.45-18.19s-2.71-12.6-1.1-18.83c.41-1.56,1.1-5.28,3-5.82C83,395.54,84.07,397.84,84.68,399Z" style="fill:#FDE047"></path><path d="M82.12,402.67c-1.91.32-1.51,5.56-1.45,6.84A67.53,67.53,0,0,0,82.41,421c1.37,6.22,3.17,12.17,6.34,17.62h0c0,.08,0,.14.07.22l.2.19,0,.1a.16.16,0,0,0,.19.11,1.63,1.63,0,0,1-.07-.3c-.22-.76-.4-1.54-.56-2.33,0-.13-.06-.26-.08-.38-1.11-5.42-1.3-11-1.71-16.55a61.28,61.28,0,0,0-1.73-11.44C84.87,407.3,83.72,402.4,82.12,402.67Zm1.71,2.78c2.61,6,2.54,13.23,3,19.68a69.4,69.4,0,0,0,1.81,13A63.87,63.87,0,0,1,83.07,422a83.62,83.62,0,0,1-1.73-9.56,35.4,35.4,0,0,1-.29-5.25,14,14,0,0,1,.4-3.14C82.1,402.19,83.38,404.41,83.83,405.45Z" style="fill:#fff"></path><path d="M99.79,447.53a.35.35,0,0,1,0,.34h.13a.09.09,0,0,1,.1.09.09.09,0,0,1-.08.12c-7.51,1.18-15.85,1.52-23.23-.5a29.8,29.8,0,0,1-8.8-3.95c-1.83-1.23-5.52-3.73-5.73-6.2-.42-5,12.78.19,14.76,1,3.62,1.43,7.11,3.16,10.7,4.66,3.93,1.64,8,3,12,4.34A.25.25,0,0,1,99.79,447.53Z" style="fill:#FDE047"></path><path d="M99.79,447.53c-.41,0-.81-.07-1.21-.13a64,64,0,0,1-19-5.15,58.22,58.22,0,0,0-9.29-3.53c-.79-.19-3.73-1.12-3.26.76.25,1,5.08,3.77,6.39,4.39a40.46,40.46,0,0,0,9.48,3A66.47,66.47,0,0,0,99.5,448c.16,0,.33,0,.48,0a.09.09,0,0,0-.1-.09h-.12A.35.35,0,0,0,99.79,447.53ZM85.69,447a47.05,47.05,0,0,1-9.58-2.35,34.85,34.85,0,0,1-3.6-1.59,22,22,0,0,1-2.65-1.57c-2-1.48-2.44-2-2.27-2.41.11-.24.54-.38,2.19-.11a15.77,15.77,0,0,1,3.1.91c1.43.54,2.84,1.13,4.25,1.74,2.81,1.21,5.61,2.46,8.5,3.46a49.52,49.52,0,0,0,12.85,2.68A76.14,76.14,0,0,1,85.69,447Z" style="fill:#fff"></path><path d="M99,426a18.89,18.89,0,0,1,3.87,7.07c1.72,5.11,2.32,10.51,3.67,15.72.2.78.42,1.55.66,2.32,0,.08.54.94.48.89l-.67-.69h0c-2-2.13-8.08-8.69-10.4-13.13a38.41,38.41,0,0,1-3.48-8.69c-.33-1.44-.94-4.71.49-5.81S98,425,99,426Z" style="fill:#FDE047"></path><path d="M95.93,427.24c-2,.83,2.15,9.67,2.67,10.83a54.06,54.06,0,0,0,7.4,12q.5.63,1,1.23c.41.44.65.69.67.7s-.45-.81-.48-.89-.08-.27-.13-.4c-.19-.64-.37-1.28-.53-1.92-1.32-3.48-2.58-7-4-10.47A49.46,49.46,0,0,0,99.06,431C98.74,430.52,96.81,426.87,95.93,427.24Zm1.65,1.82c4.49,6.45,6.12,14.21,9.09,21.38,0,.12.1.22.14.34l-.37-.47a62.46,62.46,0,0,1-6.27-9.83A59,59,0,0,1,97.34,434a29.7,29.7,0,0,1-1.26-3.69c-.12-.56-.39-2.09,0-2.28S97.28,428.64,97.58,429.06Z" style="fill:#fff"></path><path d="M60.06,375.3c7.08,11.82,3.47,27,9.74,39.13l0,.07c.19.37.4.73.61,1.1a.25.25,0,0,1-.19.37.19.19,0,0,1-.19-.1l-.15-.26c-5.6-5.21-10.15-12.29-13.49-19.14-2.9-6-4.81-12.63-3.82-19.29.24-1.64.61-4.91,2.6-5.53S59.19,373.85,60.06,375.3Z" style="fill:#FDE047"></path><path d="M57.63,379.64c-.83.27-.94,1.5-1,2.17a20.81,20.81,0,0,0-.11,5.05,34.67,34.67,0,0,0,2.57,10,71.88,71.88,0,0,0,8.36,15.62c.79,1.08,1.62,2.13,2.5,3.13l.33.37a.27.27,0,0,0,.19-.38c-.21-.35-.4-.7-.59-1.06l0-.1a42.26,42.26,0,0,1-3.58-7.38,99.19,99.19,0,0,1-3.15-12.37C62.71,393.06,60.47,378.7,57.63,379.64Zm1.86,2.42c1.44,3.08,1.91,6.6,2.64,9.9s1.46,6.68,2.25,10a47.7,47.7,0,0,0,2.55,7.74,37.69,37.69,0,0,0,3.19,6,53.45,53.45,0,0,1-3.89-5.42l0-.08a94.16,94.16,0,0,1-5.54-10.51l-.06-.13a43.18,43.18,0,0,1-3.37-9.88,24.47,24.47,0,0,1-.48-5.66c.1-2.16.4-3.88,1.14-3.91C58.39,380.08,59.07,381.14,59.49,382.06Z" style="fill:#fff"></path><path d="M60.94,399.53c1.94,3.41,4,6.79,6,10.17q1.42,2.39,2.87,4.74l0,.1,1,1.71C74,421.41,77.1,426.83,81,431.43A51.15,51.15,0,0,0,88,438l.77.61h0l.44.32a2.11,2.11,0,0,0,.23.19c2.2,1.69,4.48,3.27,6.71,4.8,3.11,2.14,6.33,4.05,9.58,5.93a1.56,1.56,0,0,0,.28.16l.44.27.23.13.41.24c1,.6,2.09,1.21,3.13,1.83l-.67.94a75.75,75.75,0,0,1-9.85-5.34L99.5,448c-.31-.19-.63-.39-.92-.59s-.76-.48-1.13-.73c-.9-.59-1.79-1.19-2.66-1.79-5.08-3.49-10.26-7.28-14.38-11.9l-.34-.39-.14-.16-.24-.28-.38-.45c-.22-.27-.44-.55-.65-.83l-.2-.24c-3.36-4.35-6.07-9.36-8.77-14.08q-.75-1.31-1.47-2.61c-.26-.49-.53-1-.8-1.46-.39-.74-.79-1.49-1.19-2.22l0-.08c-1.86-3.49-3.65-7-5.54-10.51C60.58,399.51,60.85,399.36,60.94,399.53Z" style="fill:#FDE047"></path></g><g id="freepik--Device--inject-7"><path d="M280.36,70.6h-169A17.26,17.26,0,0,0,94.21,88V436a17.27,17.27,0,0,0,17.1,17.42H280.36A17.28,17.28,0,0,0,297.48,436V88A17.27,17.27,0,0,0,280.36,70.6Zm6.43,354.67c0,9.16-6.86,16.57-15.32,16.57H120.23c-8.48,0-15.34-7.41-15.34-16.57V101.21c0-18.66,6.86-19.57,15.34-19.57h30.29c1.76,0,3.2,2,3.2,4.48v1.07c0,5.81,3.18,5.83,7.09,5.83h70.06c3.94,0,7.09,0,7.09-5.83V86.12c0-2.48,1.42-4.48,3.21-4.48h30.3c8.46,0,15.32,2.48,15.32,19.57Z" style="fill:#263238"></path><path d="M205.4,85.76H186.29a1.18,1.18,0,0,1-1.18-1.18h0a1.18,1.18,0,0,1,1.18-1.18H205.4a1.18,1.18,0,0,1,1.18,1.18h0A1.18,1.18,0,0,1,205.4,85.76Z" style="fill:#fff"></path><path d="M286.79,101.21V425.27c0,9.16-6.86,16.57-15.32,16.57H120.23c-8.48,0-15.34-7.41-15.34-16.57V101.21c0-18.66,6.86-19.57,15.34-19.57h30.29c1.76,0,3.2,2,3.2,4.48v1.07c0,5.81,3.18,5.83,7.09,5.83h70.06c3.94,0,7.09,0,7.09-5.83V86.12c0-2.48,1.42-4.48,3.21-4.48h30.3C279.93,81.64,286.79,84.12,286.79,101.21Z" style="fill:#fff"></path><path d="M286.8,101.21V290H104.9V101.21c0-18.66,6.86-19.57,15.34-19.57h30.29c1.76,0,3.2,2,3.2,4.48v1.07c0,5.81,3.18,5.83,7.09,5.83h70.06c3.94,0,7.09,0,7.09-5.83V86.12c0-2.48,1.42-4.48,3.21-4.48h30.3C279.94,81.64,286.8,84.12,286.8,101.21Z" style="fill:#FDE047"></path><polygon points="123.3 122.84 117.93 117.81 123.3 112.77 124.14 113.66 119.71 117.81 124.14 121.95 123.3 122.84" style="fill:#fff"></polygon><path d="M272.71,114.67a1.06,1.06,0,1,1-1.06-1.06A1.06,1.06,0,0,1,272.71,114.67Z" style="fill:#fff"></path><path d="M272.71,118.43a1.06,1.06,0,1,1-1.06-1.06A1.06,1.06,0,0,1,272.71,118.43Z" style="fill:#fff"></path><path d="M272.71,122.19a1.06,1.06,0,1,1-1.06-1.06A1.06,1.06,0,0,1,272.71,122.19Z" style="fill:#fff"></path><g id="freepik--u5Zjqx--inject-7"><path d="M145.3,88.92l-.3.29-.16.16a4,4,0,0,0-5.65,0l-.15-.17-.29-.29h0l0,0,.37-.33A4.46,4.46,0,0,1,140,88a4.18,4.18,0,0,1,1.13-.38c.19,0,.38,0,.57-.08h.49l.39,0a4.64,4.64,0,0,1,1,.25,4.58,4.58,0,0,1,.71.33,5.06,5.06,0,0,1,.67.47l.31.28Z" style="fill:#fff"></path><path d="M140.12,90.29l-.46-.46a3.31,3.31,0,0,1,1.88-.94,3.26,3.26,0,0,1,2.83.94l-.46.46a2.69,2.69,0,0,0-3.79,0Z" style="fill:#fff"></path><path d="M143.45,90.76c-.16.15-.31.3-.46.46a1.35,1.35,0,0,0-1.94,0l-.46-.46A2,2,0,0,1,143.45,90.76Z" style="fill:#fff"></path><path d="M142.43,91.63a.41.41,0,0,1-.41.42.42.42,0,0,1-.42-.42.41.41,0,0,1,.42-.41A.41.41,0,0,1,142.43,91.63Z" style="fill:#fff"></path></g><path d="M116.75,89.8A1.21,1.21,0,1,1,118,91,1.21,1.21,0,0,1,116.75,89.8Z" style="fill:#fff"></path><path d="M120.55,89.8A1.21,1.21,0,1,1,121.76,91,1.21,1.21,0,0,1,120.55,89.8Z" style="fill:#fff"></path><path d="M124.35,89.8a1.21,1.21,0,1,1,1.2,1.21A1.2,1.2,0,0,1,124.35,89.8Z" style="fill:#fff"></path><path d="M128.14,89.8A1.21,1.21,0,1,1,129.35,91,1.21,1.21,0,0,1,128.14,89.8Z" style="fill:#fff"></path><path d="M131.94,89.8A1.21,1.21,0,1,1,133.15,91,1.21,1.21,0,0,1,131.94,89.8Z" style="fill:#fff"></path><path d="M273.15,92.44h-9.82V87.88h9.82Zm-9.31-.51h8.8V88.39h-8.8Z" style="fill:#fff"></path><rect x="264.15" y="88.66" width="6.33" height="3" style="fill:#fff"></rect><rect x="273.15" y="88.94" width="0.87" height="2.43" style="fill:#fff"></rect><polygon points="128.06 424.33 127.17 424.33 127.17 428.41 125.51 428.41 125.51 426.33 122.57 426.33 122.57 428.41 120.91 428.41 120.91 424.33 120.02 424.33 124.04 420.18 128.06 424.33" style="fill:#ebebeb"></polygon><rect x="262.35" y="420.18" width="9.69" height="1.38" style="fill:#ebebeb"></rect><rect x="262.35" y="423.6" width="9.69" height="1.39" style="fill:#ebebeb"></rect><rect x="262.35" y="427.03" width="9.69" height="1.39" style="fill:#ebebeb"></rect><polygon points="198.88 424.44 196.13 427.38 193.37 424.44 193.86 423.98 196.13 426.4 198.4 423.98 198.88 424.44" style="fill:#ebebeb"></polygon><path d="M196.13,430.42a5,5,0,1,1,5-5A5,5,0,0,1,196.13,430.42Zm0-9.35a4.35,4.35,0,1,0,4.34,4.34A4.35,4.35,0,0,0,196.13,421.07Z" style="fill:#ebebeb"></path><circle cx="206.1" cy="277.3" r="1.79" style="opacity:0.1"></circle><circle cx="195.85" cy="277.3" r="1.79" style="opacity:0.1"></circle><circle cx="185.59" cy="277.3" r="1.79" style="fill:#fff"></circle><path d="M126.46,308.45h-1.59v5.34a.54.54,0,0,1-.55.55.55.55,0,0,1-.55-.55v-5.34h-1.58a.56.56,0,0,1-.55-.56.54.54,0,0,1,.55-.55h4.27a.55.55,0,0,1,.55.55A.56.56,0,0,1,126.46,308.45Z" style="fill:#263238"></path><path d="M127.66,313.61a2.5,2.5,0,0,1-.69-1.76,2.58,2.58,0,0,1,.69-1.75,2.34,2.34,0,0,1,1.72-.76,2.21,2.21,0,0,1,1.67.76,2.5,2.5,0,0,1,.7,1.75,2.42,2.42,0,0,1-.7,1.76,2.21,2.21,0,0,1-1.67.76A2.34,2.34,0,0,1,127.66,313.61Zm.4-1.76a1.62,1.62,0,0,0,.36,1.06,1.35,1.35,0,0,0,1,.37,1.31,1.31,0,0,0,.92-.37,1.54,1.54,0,0,0,.39-1.06,1.5,1.5,0,0,0-.39-1,1.41,1.41,0,0,0-.92-.38,1.45,1.45,0,0,0-1,.38A1.58,1.58,0,0,0,128.06,311.85Z" style="fill:#263238"></path><path d="M138,313.8a.54.54,0,0,1-.54.54.54.54,0,0,1-.53-.43,2.44,2.44,0,0,1-1.36.43,2.5,2.5,0,0,1,0-5,2.37,2.37,0,0,1,1.34.42v-1.88a.55.55,0,0,1,1.09,0v4h0Zm-2.43-3.37a1.29,1.29,0,0,0-.94.41,1.45,1.45,0,0,0,0,2,1.29,1.29,0,0,0,.94.41,1.28,1.28,0,0,0,.94-.41,1.45,1.45,0,0,0,0-2A1.28,1.28,0,0,0,135.55,310.43Z" style="fill:#263238"></path><path d="M144.28,311.85v2a.53.53,0,0,1-.53.53.54.54,0,0,1-.52-.43,2.27,2.27,0,0,1-1.33.43,2.32,2.32,0,0,1-1.7-.73,2.56,2.56,0,0,1-.68-1.76,2.52,2.52,0,0,1,.68-1.76,2.3,2.3,0,0,1,1.7-.75,2.28,2.28,0,0,1,1.33.44.54.54,0,0,1,.52-.44.54.54,0,0,1,.53.54Zm-1.06,0a1.47,1.47,0,0,0-.39-1,1.24,1.24,0,0,0-.93-.41,1.21,1.21,0,0,0-.93.41,1.46,1.46,0,0,0-.38,1,1.5,1.5,0,0,0,.38,1,1.26,1.26,0,0,0,.93.39,1.29,1.29,0,0,0,.93-.39A1.51,1.51,0,0,0,143.22,311.85Z" style="fill:#263238"></path><path d="M150.32,309.87v3.78a2.36,2.36,0,0,1-3.42,2.14.52.52,0,0,1-.26-.71.55.55,0,0,1,.71-.22,1.34,1.34,0,0,0,.58.14,1.32,1.32,0,0,0,1.25-.91,1.94,1.94,0,0,1-1,.24,2.1,2.1,0,0,1-2.09-2.1v-2.36a.53.53,0,0,1,.52-.53.52.52,0,0,1,.53.53v2.36a1,1,0,0,0,2.07,0v-2.36a.51.51,0,0,1,.52-.53A.54.54,0,0,1,150.32,309.87Z" style="fill:#263238"></path><path d="M152.32,309.61a.85.85,0,0,0,.68-.9.71.71,0,0,1-.57-.67V308a.65.65,0,0,1,.68-.67c.44,0,.72.34.72.88v.1a2,2,0,0,1-.49,1.46,1.47,1.47,0,0,1-.94.43.27.27,0,0,1-.31-.28A.29.29,0,0,1,152.32,309.61Z" style="fill:#263238"></path><path d="M154.19,312.91a.52.52,0,0,1,.75-.08,1.84,1.84,0,0,0,1.1.44,1.33,1.33,0,0,0,.68-.19.41.41,0,0,0,.18-.3.15.15,0,0,0,0-.1s-.05-.07-.13-.12a2.32,2.32,0,0,0-.8-.28h0a3.84,3.84,0,0,1-.87-.26,1.67,1.67,0,0,1-.69-.58,1.21,1.21,0,0,1-.17-.63,1.4,1.4,0,0,1,.59-1.1,2.15,2.15,0,0,1,1.23-.37,2.57,2.57,0,0,1,1.5.55.55.55,0,0,1,.16.74.53.53,0,0,1-.74.14,1.71,1.71,0,0,0-.92-.37,1,1,0,0,0-.6.18.3.3,0,0,0-.16.23.11.11,0,0,0,0,.08.27.27,0,0,0,.11.1,2,2,0,0,0,.73.24h0a3.6,3.6,0,0,1,.93.29,1.55,1.55,0,0,1,.71.59,1.3,1.3,0,0,1,.19.66,1.44,1.44,0,0,1-.63,1.16,2.28,2.28,0,0,1-1.3.4,2.9,2.9,0,0,1-1.78-.69A.53.53,0,0,1,154.19,312.91Z" style="fill:#263238"></path><path d="M164,309v.14h.3a.55.55,0,0,1,.55.55.55.55,0,0,1-.55.55H164v3.53a.55.55,0,0,1-1.1,0v-3.53h-.26a.56.56,0,0,1-.56-.55.55.55,0,0,1,.56-.55h.26V309a2.07,2.07,0,0,1,.19-1,1.19,1.19,0,0,1,.72-.62,2,2,0,0,1,.6-.08.56.56,0,0,1,0,1.11.72.72,0,0,0-.26,0l-.06,0A.9.9,0,0,0,164,309Z" style="fill:#263238"></path><path d="M166.31,313.61a2.5,2.5,0,0,1-.69-1.76,2.58,2.58,0,0,1,.69-1.75,2.34,2.34,0,0,1,1.72-.76,2.21,2.21,0,0,1,1.67.76,2.5,2.5,0,0,1,.7,1.75,2.42,2.42,0,0,1-.7,1.76,2.21,2.21,0,0,1-1.67.76A2.34,2.34,0,0,1,166.31,313.61Zm.4-1.76a1.62,1.62,0,0,0,.36,1.06,1.35,1.35,0,0,0,1,.37,1.31,1.31,0,0,0,.92-.37,1.54,1.54,0,0,0,.39-1.06,1.5,1.5,0,0,0-.39-1,1.41,1.41,0,0,0-.92-.38,1.45,1.45,0,0,0-1,.38A1.58,1.58,0,0,0,166.71,311.85Z" style="fill:#263238"></path><path d="M175,309.87a.53.53,0,0,1-.53.53,1,1,0,0,0-.6.19,1.51,1.51,0,0,0-.46.48,3.07,3.07,0,0,0-.41.84v1.9a.54.54,0,0,1-.55.53.53.53,0,0,1-.53-.53v-3.94a.52.52,0,0,1,.53-.52.54.54,0,0,1,.55.52v.07a1.31,1.31,0,0,1,.21-.2,2.19,2.19,0,0,1,1.26-.39A.52.52,0,0,1,175,309.87Z" style="fill:#263238"></path><path d="M175.44,311.84a2.48,2.48,0,0,1,2.44-2.5,2.39,2.39,0,0,1,2.41,2.32v0a.28.28,0,0,1,0,.09.48.48,0,0,1-.52.4h-3.18a1.31,1.31,0,0,0,.34.66,1.55,1.55,0,0,0,1,.45,1.63,1.63,0,0,0,1-.25.57.57,0,0,1,.75,0,.46.46,0,0,1,0,.65,2.53,2.53,0,0,1-1.79.66A2.48,2.48,0,0,1,175.44,311.84Zm1.09-.49h2.83a1.63,1.63,0,0,0-1.48-1.06A1.4,1.4,0,0,0,176.53,311.35Z" style="fill:#263238"></path><path d="M181.53,311.85a2.54,2.54,0,0,1,2.54-2.51,2.64,2.64,0,0,1,1.59.55.55.55,0,0,1,.11.74.53.53,0,0,1-.75.1,1.6,1.6,0,0,0-1-.32,1.44,1.44,0,1,0,0,2.87,1.62,1.62,0,0,0,1-.32.54.54,0,0,1,.75.11.55.55,0,0,1-.11.74,2.75,2.75,0,0,1-1.59.53A2.53,2.53,0,0,1,181.53,311.85Z" style="fill:#263238"></path><path d="M191.82,311.85v2a.53.53,0,0,1-.53.53.54.54,0,0,1-.52-.43,2.27,2.27,0,0,1-1.33.43,2.32,2.32,0,0,1-1.7-.73,2.56,2.56,0,0,1-.68-1.76,2.52,2.52,0,0,1,.68-1.76,2.3,2.3,0,0,1,1.7-.75,2.28,2.28,0,0,1,1.33.44.54.54,0,0,1,.52-.44.54.54,0,0,1,.53.54Zm-1.06,0a1.47,1.47,0,0,0-.39-1,1.24,1.24,0,0,0-.93-.41,1.21,1.21,0,0,0-.93.41,1.46,1.46,0,0,0-.38,1,1.5,1.5,0,0,0,.38,1,1.26,1.26,0,0,0,.93.39,1.29,1.29,0,0,0,.93-.39A1.51,1.51,0,0,0,190.76,311.85Z" style="fill:#263238"></path><path d="M193.54,312.91a.52.52,0,0,1,.75-.08,1.84,1.84,0,0,0,1.1.44,1.33,1.33,0,0,0,.68-.19.41.41,0,0,0,.18-.3.15.15,0,0,0,0-.1s-.05-.07-.13-.12a2.32,2.32,0,0,0-.8-.28h0a3.84,3.84,0,0,1-.87-.26,1.67,1.67,0,0,1-.69-.58,1.21,1.21,0,0,1-.17-.63,1.4,1.4,0,0,1,.59-1.1,2.15,2.15,0,0,1,1.23-.37,2.57,2.57,0,0,1,1.5.55.55.55,0,0,1,.16.74.53.53,0,0,1-.74.14,1.71,1.71,0,0,0-.92-.37,1,1,0,0,0-.6.18.3.3,0,0,0-.16.23.11.11,0,0,0,0,.08.27.27,0,0,0,.11.1,2,2,0,0,0,.73.24h0a3.6,3.6,0,0,1,.93.29,1.55,1.55,0,0,1,.71.59,1.3,1.3,0,0,1,.19.66,1.44,1.44,0,0,1-.63,1.16,2.28,2.28,0,0,1-1.3.4,2.9,2.9,0,0,1-1.78-.69A.53.53,0,0,1,193.54,312.91Z" style="fill:#263238"></path><path d="M201.1,309.89a.56.56,0,0,1-.56.55h-.25v2.79a.55.55,0,0,1,.55.56.54.54,0,0,1-.55.55,1.11,1.11,0,0,1-1.11-1.11v-2.79h-.29a.55.55,0,0,1-.55-.55.54.54,0,0,1,.55-.55h.29v-1.45a.55.55,0,0,1,.56-.55.54.54,0,0,1,.55.55v1.45h.25A.56.56,0,0,1,201.1,309.89Z" style="fill:#263238"></path><path d="M151.54,183.36a55.51,55.51,0,0,1,17.45,0,56.31,56.31,0,0,1-17.45,0Z" style="fill:#FDE047"></path><path d="M195.82,156.43a120.44,120.44,0,0,1-.69-13.55,118.36,118.36,0,0,1,.69-13.55,116.13,116.13,0,0,1,.69,13.55A118.13,118.13,0,0,1,195.82,156.43Z" style="fill:#FDE047"></path><path d="M182.39,160.06a50.53,50.53,0,0,1-5-7.3,49.65,49.65,0,0,1-3.81-8,56.62,56.62,0,0,1,8.82,15.29Z" style="fill:#FDE047"></path><path d="M172.57,169.91a118.34,118.34,0,0,1-12.08-6.18,116.41,116.41,0,0,1-11.39-7.37,118.34,118.34,0,0,1,12.08,6.18A118.29,118.29,0,0,1,172.57,169.91Z" style="fill:#FDE047"></path><path d="M222.74,183.27a55.51,55.51,0,0,1,17.45,0,56.31,56.31,0,0,1-17.45,0Z" style="fill:#FDE047"></path><path d="M219.12,169.83a120.23,120.23,0,0,1,11.39-7.37,118.34,118.34,0,0,1,12.08-6.18,116.41,116.41,0,0,1-11.39,7.37A118.34,118.34,0,0,1,219.12,169.83Z" style="fill:#FDE047"></path><path d="M209.27,160a56.8,56.8,0,0,1,8.79-15.24,49,49,0,0,1-3.8,8A50.12,50.12,0,0,1,209.27,160Z" style="fill:#FDE047"></path><path d="M195.87,210.24a120.74,120.74,0,0,1,.69,13.56,118.36,118.36,0,0,1-.69,13.55,116.13,116.13,0,0,1-.69-13.55A118.42,118.42,0,0,1,195.87,210.24Z" style="fill:#FDE047"></path><path d="M209.3,206.62a50.53,50.53,0,0,1,5,7.3,49.55,49.55,0,0,1,3.81,8,56.36,56.36,0,0,1-8.82-15.28Z" style="fill:#FDE047"></path><path d="M219.12,196.77A118.34,118.34,0,0,1,231.2,203a116.41,116.41,0,0,1,11.39,7.37,133.82,133.82,0,0,1-23.47-13.55Z" style="fill:#FDE047"></path><path d="M172.57,196.85a120.23,120.23,0,0,1-11.39,7.37,118.34,118.34,0,0,1-12.08,6.18,132.17,132.17,0,0,1,23.47-13.55Z" style="fill:#FDE047"></path><path d="M182.42,206.67a56.54,56.54,0,0,1-8.79,15.23,56.54,56.54,0,0,1,8.79-15.23Z" style="fill:#FDE047"></path><circle cx="195.85" cy="183.34" r="23.4" style="fill:#FDE047"></circle><g style="opacity:0.4"><path d="M151.54,183.36a55.51,55.51,0,0,1,17.45,0,56.31,56.31,0,0,1-17.45,0Z" style="fill:#fff"></path><path d="M195.82,156.43a120.44,120.44,0,0,1-.69-13.55,118.36,118.36,0,0,1,.69-13.55,116.13,116.13,0,0,1,.69,13.55A118.13,118.13,0,0,1,195.82,156.43Z" style="fill:#fff"></path><path d="M182.39,160.06a50.53,50.53,0,0,1-5-7.3,49.65,49.65,0,0,1-3.81-8,56.62,56.62,0,0,1,8.82,15.29Z" style="fill:#fff"></path><path d="M172.57,169.91a118.34,118.34,0,0,1-12.08-6.18,116.41,116.41,0,0,1-11.39-7.37,118.34,118.34,0,0,1,12.08,6.18A118.29,118.29,0,0,1,172.57,169.91Z" style="fill:#fff"></path><path d="M222.74,183.27a55.51,55.51,0,0,1,17.45,0,56.31,56.31,0,0,1-17.45,0Z" style="fill:#fff"></path><path d="M219.12,169.83a120.23,120.23,0,0,1,11.39-7.37,118.34,118.34,0,0,1,12.08-6.18,116.41,116.41,0,0,1-11.39,7.37A118.34,118.34,0,0,1,219.12,169.83Z" style="fill:#fff"></path><path d="M209.27,160a56.8,56.8,0,0,1,8.79-15.24,49,49,0,0,1-3.8,8A50.12,50.12,0,0,1,209.27,160Z" style="fill:#fff"></path><path d="M195.87,210.24a120.74,120.74,0,0,1,.69,13.56,118.36,118.36,0,0,1-.69,13.55,116.13,116.13,0,0,1-.69-13.55A118.42,118.42,0,0,1,195.87,210.24Z" style="fill:#fff"></path><path d="M209.3,206.62a50.53,50.53,0,0,1,5,7.3,49.55,49.55,0,0,1,3.81,8,56.36,56.36,0,0,1-8.82-15.28Z" style="fill:#fff"></path><path d="M219.12,196.77A118.34,118.34,0,0,1,231.2,203a116.41,116.41,0,0,1,11.39,7.37,133.82,133.82,0,0,1-23.47-13.55Z" style="fill:#fff"></path><path d="M172.57,196.85a120.23,120.23,0,0,1-11.39,7.37,118.34,118.34,0,0,1-12.08,6.18,132.17,132.17,0,0,1,23.47-13.55Z" style="fill:#fff"></path><path d="M182.42,206.67a56.54,56.54,0,0,1-8.79,15.23,56.54,56.54,0,0,1,8.79-15.23Z" style="fill:#fff"></path><circle cx="195.85" cy="183.34" r="23.4" style="fill:#fff"></circle></g><polygon points="170.92 149.98 163.1 153.74 161.18 162.2 166.58 168.98 175.26 168.98 180.66 162.2 178.73 153.74 170.92 149.98" style="fill:#fff;opacity:0.2"></polygon><polygon points="129.53 114.04 121.72 117.8 119.79 126.26 125.19 133.04 133.87 133.04 139.28 126.26 137.35 117.8 129.53 114.04" style="fill:#fff;opacity:0.2"></polygon><polygon points="160.42 143.08 154.95 145.72 153.6 151.64 157.38 156.39 163.46 156.39 167.24 151.64 165.89 145.72 160.42 143.08" style="fill:#fff;opacity:0.2"></polygon><polygon points="147.22 131.27 141.75 133.9 140.4 139.82 144.18 144.57 150.25 144.57 154.04 139.82 152.69 133.9 147.22 131.27" style="fill:#fff;opacity:0.2"></polygon><polygon points="222.88 217.78 230.7 214.02 232.63 205.57 227.22 198.78 218.55 198.78 213.14 205.57 215.07 214.02 222.88 217.78" style="fill:#fff;opacity:0.2"></polygon><polygon points="233.38 224.68 238.86 222.04 240.21 216.12 236.42 211.38 230.35 211.38 226.56 216.12 227.91 222.04 233.38 224.68" style="fill:#fff;opacity:0.2"></polygon><polygon points="246.59 236.5 252.06 233.86 253.41 227.94 249.62 223.19 243.55 223.19 239.76 227.94 241.11 233.86 246.59 236.5" style="fill:#fff;opacity:0.2"></polygon><polygon points="120.05 109.79 115.61 111.93 114.51 116.74 117.58 120.6 122.52 120.6 125.6 116.74 124.5 111.93 120.05 109.79" style="fill:#fff;opacity:0.2"></polygon><polygon points="110.85 103.43 107.44 105.07 106.6 108.76 108.96 111.71 112.74 111.71 115.1 108.76 114.25 105.07 110.85 103.43" style="fill:#fff;opacity:0.2"></polygon><polygon points="253.47 231.68 250.06 233.32 249.22 237.01 251.58 239.96 255.36 239.96 257.71 237.01 256.87 233.32 253.47 231.68" style="fill:#fff;opacity:0.2"></polygon><path d="M173.87,132h-1.75v5.88a.61.61,0,0,1-1.21,0V132h-1.74a.6.6,0,0,1-.6-.61.59.59,0,0,1,.6-.61h4.7a.6.6,0,0,1,.6.61A.61.61,0,0,1,173.87,132Z" style="fill:#fff"></path><path d="M179.33,135.74v2.16a.58.58,0,0,1-.58.58.61.61,0,0,1-.57-.47,2.47,2.47,0,0,1-1.46.47,2.56,2.56,0,0,1-1.87-.8,2.8,2.8,0,0,1-.75-1.94,2.72,2.72,0,0,1,.75-1.93,2.51,2.51,0,0,1,1.87-.83,2.55,2.55,0,0,1,1.46.48.61.61,0,0,1,.57-.48.58.58,0,0,1,.58.59Zm-1.16,0a1.62,1.62,0,0,0-.43-1.13,1.39,1.39,0,0,0-2.05,0,1.61,1.61,0,0,0-.41,1.13,1.69,1.69,0,0,0,.41,1.14,1.46,1.46,0,0,0,2.05,0A1.71,1.71,0,0,0,178.17,135.74Z" style="fill:#fff"></path><path d="M186.09,135.26v2.64a.59.59,0,0,1-.58.58.6.6,0,0,1-.6-.58v-2.64a1.12,1.12,0,0,0-2.24,0v2.61s0,0,0,.08v0s0,0,0,.06v.06a.64.64,0,0,1-.55.35H182a.61.61,0,0,1-.47-.57v-2.61h0v-1.71a.58.58,0,0,1,.58-.59.56.56,0,0,1,.53.33,2.32,2.32,0,0,1,2.91.43,2.26,2.26,0,0,1,1.72-.76,2.29,2.29,0,0,1,2.29,2.31v2.61a.58.58,0,0,1-.58.58.6.6,0,0,1-.6-.58v-2.61a1.12,1.12,0,0,0-1.11-1.13A1.14,1.14,0,0,0,186.09,135.26Z" style="fill:#fff"></path><path d="M192,140v-4.21h0v-2.18a.58.58,0,0,1,.58-.58.61.61,0,0,1,.61.45,2.82,2.82,0,0,1,1.5-.45,2.75,2.75,0,0,1,0,5.49,2.52,2.52,0,0,1-1.48-.45V140a.62.62,0,0,1-.63.59A.6.6,0,0,1,192,140Zm1.21-4.22a1.45,1.45,0,0,0,.43,1.1,1.35,1.35,0,0,0,1,.46,1.4,1.4,0,0,0,1-.46,1.61,1.61,0,0,0,.43-1.1,1.72,1.72,0,0,0-.43-1.11,1.43,1.43,0,0,0-1-.45,1.38,1.38,0,0,0-1,.45A1.53,1.53,0,0,0,193.16,135.74Z" style="fill:#fff"></path><path d="M203.86,135.74v2.16a.58.58,0,0,1-.58.58.61.61,0,0,1-.57-.47,2.47,2.47,0,0,1-1.46.47,2.56,2.56,0,0,1-1.87-.8,2.8,2.8,0,0,1-.75-1.94,2.72,2.72,0,0,1,.75-1.93,2.51,2.51,0,0,1,1.87-.83,2.55,2.55,0,0,1,1.46.48.61.61,0,0,1,.57-.48.58.58,0,0,1,.58.59Zm-1.16,0a1.62,1.62,0,0,0-.43-1.13,1.39,1.39,0,0,0-2.05,0,1.62,1.62,0,0,0-.42,1.13,1.7,1.7,0,0,0,.42,1.14,1.46,1.46,0,0,0,2.05,0A1.71,1.71,0,0,0,202.7,135.74Z" style="fill:#fff"></path><path d="M205.84,139.47a.94.94,0,0,0,.75-1,.8.8,0,0,1-.63-.75v-.08a.72.72,0,0,1,.75-.74c.5,0,.8.37.8,1V138a2.17,2.17,0,0,1-.54,1.6,1.68,1.68,0,0,1-1,.48.31.31,0,0,1-.34-.31A.3.3,0,0,1,205.84,139.47Z" style="fill:#fff"></path><path d="M212,137.88v-6.49a.61.61,0,0,1,.61-.61h3.59a.63.63,0,0,1,.61.61.62.62,0,0,1-.61.61h-3v2h2.57a.62.62,0,0,1,0,1.23h-2.57v2.64a.6.6,0,0,1-.61.6A.6.6,0,0,1,212,137.88Z" style="fill:#fff"></path><path d="M218.63,137.88v-6.49a.6.6,0,0,1,.6-.61.62.62,0,0,1,.62.61v5.87h3a.62.62,0,0,1,.6.62.61.61,0,0,1-.6.6h-3.6A.6.6,0,0,1,218.63,137.88Z" style="fill:#fff"></path><path d="M185.19,147.58a.16.16,0,0,1,.23,0,2.78,2.78,0,0,0,1.68.66,1.9,1.9,0,0,0,1.13-.34.92.92,0,0,0,.44-.76.81.81,0,0,0-.42-.7,3.18,3.18,0,0,0-1.18-.42h0a3.39,3.39,0,0,1-1.21-.43,1.09,1.09,0,0,1-.52-.9,1.22,1.22,0,0,1,.53-1,2.12,2.12,0,0,1,1.24-.37,2.85,2.85,0,0,1,1.58.59.16.16,0,0,1,0,.23.16.16,0,0,1-.22.05,2.49,2.49,0,0,0-1.4-.55A1.87,1.87,0,0,0,186,144a.88.88,0,0,0-.4.7.75.75,0,0,0,.38.63,3,3,0,0,0,1.1.38h0a3.81,3.81,0,0,1,1.31.47,1.17,1.17,0,0,1,.56,1,1.29,1.29,0,0,1-.58,1,2.3,2.3,0,0,1-1.32.4,3.22,3.22,0,0,1-1.89-.74A.18.18,0,0,1,185.19,147.58Z" style="fill:#fff"></path><path d="M190.15,145.12a.18.18,0,0,1,.36,0v2a1.11,1.11,0,0,0,1.09,1.11,1.12,1.12,0,0,0,1.12-1.11v-2a.18.18,0,0,1,.17-.18.18.18,0,0,1,.19.18v2a1.47,1.47,0,0,1-2.93,0Z" style="fill:#fff"></path><path d="M197.1,146.42a1.11,1.11,0,0,0-1.1-1.11,1.14,1.14,0,0,0-1.12,1.11v2a.16.16,0,0,1,0,.09.17.17,0,0,1-.14.06h0a.22.22,0,0,1-.12-.09v0h0v-3.27a.17.17,0,1,1,.34,0v.34a1.46,1.46,0,0,1,2.57.94v2a.17.17,0,0,1-.17.17.17.17,0,0,1-.18-.17Z" style="fill:#fff"></path><path d="M201.59,146.42a1.11,1.11,0,0,0-1.11-1.11,1.13,1.13,0,0,0-1.11,1.11v2a.18.18,0,0,1,0,.09.16.16,0,0,1-.13.06h0a.19.19,0,0,1-.12-.09,0,0,0,0,1,0,0h0v-3.27a.17.17,0,1,1,.34,0v.34a1.44,1.44,0,0,1,1.11-.52,1.46,1.46,0,0,1,1.46,1.46v2a.17.17,0,0,1-.17.17.17.17,0,0,1-.18-.17Z" style="fill:#fff"></path><path d="M203.1,145.12a.18.18,0,0,1,.17-.17.18.18,0,0,1,.18.17v1.95a1.11,1.11,0,0,0,2.22,0v-1.95s0-.07,0-.09v0h0s0,0,.06,0h.08l.09,0a.15.15,0,0,1,.05.06.19.19,0,0,1,0,.07v3.14a1.69,1.69,0,0,1-1.71,1.68,1.86,1.86,0,0,1-.74-.17.17.17,0,0,1-.07-.23.19.19,0,0,1,.23-.09,1.27,1.27,0,0,0,.58.14,1.35,1.35,0,0,0,1.36-1.33V148a1.48,1.48,0,0,1-1.12.51,1.47,1.47,0,0,1-1.45-1.46Z" style="fill:#fff"></path><path d="M178.08,228.6a.63.63,0,0,1,.89-.08,4,4,0,0,0,2.35.94,2.65,2.65,0,0,0,1.54-.45,1.11,1.11,0,0,0,.53-.89.71.71,0,0,0-.11-.39,1.17,1.17,0,0,0-.37-.37,5.13,5.13,0,0,0-1.69-.58h0a6.73,6.73,0,0,1-1.59-.48,2.67,2.67,0,0,1-1.14-1,1.91,1.91,0,0,1-.28-1,2.29,2.29,0,0,1,1-1.8,3.63,3.63,0,0,1,2.13-.65,4.87,4.87,0,0,1,2.68,1,.63.63,0,0,1,.17.87.61.61,0,0,1-.87.19,3.57,3.57,0,0,0-2-.79,2.33,2.33,0,0,0-1.38.42,1,1,0,0,0-.47.78.62.62,0,0,0,.09.34,1.12,1.12,0,0,0,.33.32,4.26,4.26,0,0,0,1.54.54h0a6.78,6.78,0,0,1,1.7.52,2.75,2.75,0,0,1,1.23,1,1.92,1.92,0,0,1,.3,1A2.39,2.39,0,0,1,183.6,230a3.86,3.86,0,0,1-2.28.7,5.3,5.3,0,0,1-3.14-1.23A.65.65,0,0,1,178.08,228.6Z" style="fill:#fff"></path><path d="M188.85,230.74a2.56,2.56,0,0,1-2.56-2.56v-2.93a.66.66,0,0,1,.65-.66.66.66,0,0,1,.65.66v2.93a1.24,1.24,0,0,0,1.26,1.26,1.28,1.28,0,0,0,1.29-1.26v-2.93a.65.65,0,0,1,.64-.66.69.69,0,0,1,.66.66v2.93A2.59,2.59,0,0,1,188.85,230.74Z" style="fill:#fff"></path><path d="M198.78,227.15v2.94a.64.64,0,0,1-.64.65.66.66,0,0,1-.65-.65v-2.94a1.26,1.26,0,0,0-1.28-1.24,1.23,1.23,0,0,0-1.23,1.24v2.94a.19.19,0,0,1,0,.12.67.67,0,0,1-.65.53.64.64,0,0,1-.65-.65v-4.84a.65.65,0,0,1,.65-.66.69.69,0,0,1,.61.38,2.45,2.45,0,0,1,1.3-.38A2.57,2.57,0,0,1,198.78,227.15Z" style="fill:#fff"></path><path d="M206.31,227.15v2.94a.64.64,0,0,1-.63.65.66.66,0,0,1-.66-.65v-2.94a1.26,1.26,0,0,0-1.28-1.24,1.23,1.23,0,0,0-1.23,1.24v2.94a.27.27,0,0,1,0,.12.67.67,0,0,1-.65.53.64.64,0,0,1-.65-.65v-4.84a.65.65,0,0,1,.65-.66.66.66,0,0,1,.6.38,2.48,2.48,0,0,1,1.3-.38A2.57,2.57,0,0,1,206.31,227.15Z" style="fill:#fff"></path><path d="M213.17,225.25v4.64a2.91,2.91,0,0,1-2.94,2.94,3,3,0,0,1-1.26-.3.64.64,0,0,1-.32-.88.68.68,0,0,1,.87-.27,1.61,1.61,0,0,0,2.25-.94,2.44,2.44,0,0,1-1.17.29,2.59,2.59,0,0,1-2.57-2.58v-2.9a.66.66,0,0,1,.64-.66.64.64,0,0,1,.65.66v2.9a1.28,1.28,0,0,0,2.55,0v-2.9a.64.64,0,0,1,.64-.66A.66.66,0,0,1,213.17,225.25Z" style="fill:#fff"></path><path d="M173.27,243.32h-3.6v3a.25.25,0,0,1-.49,0v-6.51a.25.25,0,0,1,.49,0v3h3.6v-3a.25.25,0,0,1,.49,0v6.51a.25.25,0,0,1-.49,0Z" style="fill:#fff"></path><path d="M176.6,241.38a.5.5,0,1,1-.5.5A.5.5,0,0,1,176.6,241.38Zm0,4.2a.5.5,0,1,1-.5.5A.5.5,0,0,1,176.6,245.58Z" style="fill:#fff"></path><path d="M182.41,240l-1.81,1.85a2.37,2.37,0,0,1,1.19,4,2.38,2.38,0,0,1-1.68.7,2.33,2.33,0,0,1-1.67-.7.25.25,0,0,1,.35-.35,1.88,1.88,0,0,0,1.32.54,1.9,1.9,0,0,0,1.33-.54,1.87,1.87,0,0,0,.55-1.33,1.88,1.88,0,0,0-1.87-1.87.26.26,0,0,1-.2-.1h0a.25.25,0,0,1,0-.36l1.74-1.78H179a.25.25,0,0,1,0-.5h3.27a.25.25,0,0,1,.25.25.2.2,0,0,1,0,.11A.22.22,0,0,1,182.41,240Z" style="fill:#fff"></path><path d="M185.42,240.3l-1,.58a.26.26,0,0,1-.33-.08.23.23,0,0,1,.09-.33l1.35-.82a.25.25,0,0,1,.33.09.29.29,0,0,1,0,.18v6.42a.24.24,0,0,1-.24.24.24.24,0,0,1-.24-.24Z" style="fill:#fff"></path><path d="M187.59,241v0a1.45,1.45,0,0,1,1.45-1.46,1.43,1.43,0,0,1,1.43,1.44v0a1.45,1.45,0,0,1-1.45,1.47A1.43,1.43,0,0,1,187.59,241Zm2.45,0v0a1,1,0,0,0-1-1.07,1,1,0,0,0-1,1v0a1,1,0,0,0,1,1.08A1,1,0,0,0,190,241Z" style="fill:#fff"></path><path d="M200.44,246.58h0a.24.24,0,0,1-.24-.24v-6.51a.25.25,0,0,1,.49,0v6.26H204a.25.25,0,1,1,0,.49Z" style="fill:#fff"></path><path d="M206.14,241.38a.5.5,0,1,1-.5.5A.5.5,0,0,1,206.14,241.38Zm0,4.2a.5.5,0,1,1-.5.5A.5.5,0,0,1,206.14,245.58Z" style="fill:#fff"></path><path d="M207.71,246.15l3.27-3a1.82,1.82,0,0,0,.6-1.34,1.76,1.76,0,0,0-.47-1.19,1.78,1.78,0,0,0-1.33-.59,1.82,1.82,0,0,0-1.22.46l-.34.31a.24.24,0,0,1-.33-.35l.34-.32a2.35,2.35,0,0,1,1.55-.59,2.3,2.3,0,0,1,2.28,2.27,2.3,2.3,0,0,1-.75,1.7l-2.8,2.53h3.31a.25.25,0,0,1,0,.49h-3.94a.23.23,0,0,1-.18-.07A.26.26,0,0,1,207.71,246.15Z" style="fill:#fff"></path><path d="M213.77,245.89a.24.24,0,0,1,0-.35.25.25,0,0,1,.36,0,1.88,1.88,0,0,0,1.32.54,1.88,1.88,0,0,0,1.87-1.87,1.87,1.87,0,0,0-3.19-1.32.24.24,0,0,1-.35,0,.16.16,0,0,1-.06-.08h0a0,0,0,0,1,0,0,.19.19,0,0,1,0-.08.43.43,0,0,0,0-.05l.34-2.81a.21.21,0,0,1,.1-.18.23.23,0,0,1,.16-.06h3.26a.25.25,0,0,1,.25.25.24.24,0,0,1-.25.25h-3l-.25,2.07a2.36,2.36,0,0,1,1.19-.32,2.36,2.36,0,0,1,2.36,2.37,2.34,2.34,0,0,1-.69,1.68,2.43,2.43,0,0,1-1.68.69A2.37,2.37,0,0,1,213.77,245.89Z" style="fill:#fff"></path><path d="M219.63,241v0a1.45,1.45,0,0,1,1.45-1.46,1.43,1.43,0,0,1,1.43,1.44v0a1.45,1.45,0,0,1-1.45,1.47A1.43,1.43,0,0,1,219.63,241Zm2.45,0v0a1,1,0,0,0-1-1.07,1,1,0,0,0-1,1v0a1,1,0,0,0,1,1.08A1,1,0,0,0,222.08,241Z" style="fill:#fff"></path><path d="M187.3,197.46a2.43,2.43,0,0,1-2.46,2.46h-16a2.42,2.42,0,0,1-1.84-.81,2.47,2.47,0,0,1,.14-3.49l13.26-12a5.61,5.61,0,0,0,1.88-4.3,5.79,5.79,0,0,0-1.48-3.9,5.67,5.67,0,0,0-4.3-1.88,5.87,5.87,0,0,0-3.9,1.48l-1.38,1.26a2.45,2.45,0,0,1-3.5-.18,2.49,2.49,0,0,1,.18-3.5l1.39-1.25a10.6,10.6,0,0,1,7.21-2.78,10.81,10.81,0,0,1,8,3.54,10.57,10.57,0,0,1,2.77,7.21,10.81,10.81,0,0,1-3.54,8L175.3,195h9.54A2.46,2.46,0,0,1,187.3,197.46Z" style="fill:#fff"></path><path d="M191.32,179.4A10.87,10.87,0,0,1,213,178.28c0,.05,0,.05.05.09,0,.85.09,1.7.09,2.55a26.25,26.25,0,0,1-1.57,9.19,15.71,15.71,0,0,1-5.78,7.66,12.87,12.87,0,0,1-6.72,2.1,2.49,2.49,0,0,1-2.6-2.37,2.6,2.6,0,0,1,2.42-2.6,8.2,8.2,0,0,0,4.21-1.25,9.08,9.08,0,0,0,2.82-3.14,7.85,7.85,0,0,0,.58-1.16,10.54,10.54,0,0,1-4.3.89A10.86,10.86,0,0,1,191.32,179.4Zm5,0a5.89,5.89,0,1,0,11.78,0,5.89,5.89,0,0,0-11.78,0Z" style="fill:#fff"></path><path d="M218.12,180.65a6.49,6.49,0,0,1-1.79-4.56,6.69,6.69,0,0,1,1.79-4.53,6.05,6.05,0,0,1,4.46-2,5.7,5.7,0,0,1,4.32,2,6.45,6.45,0,0,1,1.82,4.53,6.26,6.26,0,0,1-1.82,4.56,5.7,5.7,0,0,1-4.32,2A6.05,6.05,0,0,1,218.12,180.65Zm1-4.56a4.25,4.25,0,0,0,.93,2.75,3.51,3.51,0,0,0,2.49.95,3.38,3.38,0,0,0,2.38-.95,4,4,0,0,0,1-2.75,3.88,3.88,0,0,0-1-2.69,3.65,3.65,0,0,0-2.38-1,3.77,3.77,0,0,0-2.49,1A4.12,4.12,0,0,0,219.16,176.09Z" style="fill:#fff"></path><path d="M170,276a41.71,41.71,0,0,1-2,12.66c-.14.44-.3.89-.45,1.33H104.89V241.84l-.1.07a.44.44,0,0,1,.1-.08c.37-.25.74-.5,1.12-.74.83-.53,1.68-1,2.55-1.51a40.76,40.76,0,0,1,9.77-3.82h0a41.52,41.52,0,0,1,10.1-1.24,41.94,41.94,0,0,1,4.65.26c.43.05.85.1,1.27.17l.88.13,1.24.22h0l.23,0,.8.18.18,0,.74.18c.45.1.89.22,1.33.34h0l1.08.33c.36.11.7.22,1,.35.71.24,1.4.49,2.09.78s1.35.57,2,.88,1.46.71,2.17,1.1,1.43.8,2.11,1.22a41.68,41.68,0,0,1,7.45,5.9c.32.32.64.65.94,1,.63.67,1.23,1.34,1.8,2h0l.85,1.06a44.21,44.21,0,0,1,3,4.53c.23.4.45.79.67,1.2.38.72.75,1.44,1.08,2.19s.67,1.49,1,2.26a43.51,43.51,0,0,1,1.44,4.4c.23.91.44,1.82.63,2.75a42.33,42.33,0,0,1,.73,5.93C169.94,274.67,170,275.35,170,276Z" style="fill:#fff"></path><path d="M146,238.43a11.32,11.32,0,0,1-2,6.34h-8s-7.89-8.1-17.66-9A41.6,41.6,0,0,1,146,238.43Z" style="fill:#455a64"></path><path d="M170,276a41.71,41.71,0,0,1-2,12.66c-.14.44-.3.89-.45,1.33H144.6a179.36,179.36,0,0,0,.16-34.46h0c-.07-.91-.15-1.82-.23-2.75l4.4-3,.13-.09s8.28,2.47,16.62,13.26a61.31,61.31,0,0,1,3.5,5.08,42.33,42.33,0,0,1,.73,5.93C169.94,274.67,170,275.35,170,276Z" style="fill:#37474f"></path><path d="M137.86,253.42l-1,.83A96.61,96.61,0,0,0,111,290h-6.1V256.46a63.28,63.28,0,0,1,28.9-7.53l.34.38Z" style="fill:#FDE047"></path><path d="M148,252.7a7.55,7.55,0,1,1-3-9.91A7.32,7.32,0,0,1,148,252.7Z" style="fill:#263238"></path><path d="M104.89,289v1h.66Q105.2,289.53,104.89,289Zm65-15.05a41.07,41.07,0,0,0-.72-5.93c-.19-.93-.4-1.84-.64-2.75a43.51,43.51,0,0,0-1.44-4.4c-.3-.77-.62-1.52-1-2.26s-.7-1.47-1.08-2.19c-.22-.41-.44-.8-.67-1.2a39.36,39.36,0,0,0-3-4.53l-.85-1.06h0c-.57-.7-1.17-1.37-1.8-2-.3-.32-.62-.65-.94-1a41.68,41.68,0,0,0-7.45-5.9c-.68-.42-1.38-.84-2.11-1.22s-1.43-.75-2.17-1.1-1.35-.62-2-.88-1.38-.54-2.09-.78c-.35-.13-.69-.24-1-.35l-1.08-.33h0c-.44-.12-.88-.24-1.33-.34l-.74-.18-.18,0-.8-.18-.23,0h0l-1.24-.22-.88-.13c-.42-.07-.84-.12-1.27-.17a41.94,41.94,0,0,0-4.65-.26,41.52,41.52,0,0,0-10.1,1.24h0a40.76,40.76,0,0,0-9.77,3.82c-.87.47-1.72,1-2.55,1.51-.38.24-.75.49-1.12.74v11.35A33.46,33.46,0,0,1,125,238.61h0c.54-.14,1.1-.27,1.67-.37h0a32.2,32.2,0,0,1,6.47-.64,33.4,33.4,0,0,1,12.67,2.5l1.53.66A33.51,33.51,0,0,1,165.68,263c.14.55.26,1.11.37,1.67a31.89,31.89,0,0,1,.62,6.44A33.27,33.27,0,0,1,160.81,290h6.73c.15-.44.31-.89.45-1.33A41.71,41.71,0,0,0,170,276C170,275.35,169.94,274.67,169.91,274Z" style="opacity:0.1"></path><path d="M286.8,279.59V290h-1.7a187.57,187.57,0,0,0-8.51-21.5c0-.1-.09-.19-.14-.28-.74-1.58-1.42-3-2-4.15-1.45-2.86-2.37-4.47-2.37-4.47l.89-.71.16-.12.55-.44s.85,1.09,2.26,3.09A155.83,155.83,0,0,1,286.8,279.59Z" style="fill:#263238"></path><path d="M286.8,256.25l-1.58-1.62,1.14,4.55-2.53-2.66.5,2.66-2.53-2.66.55,2.41-3.84-2.53.51,1.26-6,.63h-.12l-.18,0h-.2l-.19,0,.07-.06.08-.07,0,0,.09-.08.2-.17a114.56,114.56,0,0,1,14-10.49Z" style="fill:#263238"></path><path d="M286.8,267.46,285,264l1.83,7.83v1.82l-4.45-10.53.72,6.2-4.12-7.6,1.46,5.07-4.69-6.65.2,1.31h0l.43,2.8-2.95-4.62h0l-.45-.7-.09-.13-.17-.28,0,0,0-.05,0-.07h0l-.07-.11h.41l.13,0,.61.07h0c2.23.26,7.41.91,13.12,1.89Z" style="fill:#263238"></path><path d="M286.8,233.91l-.2,0,.2,0v2.07l-1.39-.1,1.39.49v2.26l-3,.29,3,.41v1.73l-4.68.65h4.68v.78l-7.72,2s7.06-.39,7.52,0-8.41,2.54-8.41,2.54l4.61.64-5.24.88,3.92,1.52-5.06.13,3.92,1-4.3,1.14,1.77.76-3.29,1.58-1.68,3.2-.16.3-.05.08v0s0-.05,0-.09,0-.07,0-.12c.19-2.2,1.83-19.29,6.57-23.43a32.62,32.62,0,0,1,7.59-4.31Z" style="fill:#263238"></path><path d="M274.46,286l5.15,4h-2.3L274.46,289l1.15,1.08h-7.2a42,42,0,0,1-2.31-7.16c-1.76-8.82,4.69-21.05,6.39-24.06l.06-.12.06-.1.06-.12a.09.09,0,0,0,0-.06s0,0,0,0a.41.41,0,0,0,.05-.09l0-.06.08-.14.06.18.18.5.29.83L275,264l-.52.09-1.56.29,3.57,3.86.29.31-.15,0c-.69-.11-3.57-.59-4.09-.7.63.3,4.74,3.39,4.74,3.39l-5.57-.38,6.71,3.93L271.55,273l7.34,4.69-6-.25,7.27,4.3-5.82-.89,6.2,3.77-8.1-2.5,8.61,5.57Z" style="fill:#263238"></path><path d="M272.61,258.36s-8.24-18.91-16.18-23-22.11-3.71-22.11-3.71l10.05,2.19-9.2.76,14.93,1.44-14.26,1.26,17.63,1.95-15.77,1.18L251,242.75l-7,1.77,10.47-.44-8.69,1.79,11.3,1.26-7.93,2h13.67l-7.93,2.27,8.44-.16L258,252.54s7.42,1.6,8,1.6-4.39.34-4.39.34l8.18,1.69-2.78.25Z" style="fill:#263238"></path><path d="M272.51,258.12s.3-23.41-3.16-29.4-11.14-8.19-11.14-8.19l6,4.66-6-.78,6.24,3.8-6.75-.51,8.1,3.55-6.58-.76,6.07,2.78-4.05.17,5.66,3.29-4.81-1.09,5.4,3.79-5-1.35,6.08,4.22-4.48-1.43,5.83,4.15-4.31-1.28,4.39,2.87-2.61-.51,3.46,2.87-3-1.35,3.46,3.54-2.11-.75Z" style="fill:#263238"></path><path d="M272.87,258.79s-26.5-8.33-38.4-4.25-17.56,18.17-17.56,18.17l8.44-8.69-2.7,9.37,7.6-11.23-2.11,10.47,5.06-10.55L231.43,273l5.82-11.48L236,273.39l5.73-12.58-1.51,9.12,5.73-10.45-3.12,12.31,6.58-12.31s-1.94,11.21-1.85,10.7,4.72-10.13,4.72-10.13l-.84,7,3.63-6.58-.69,5.06,4.23-6.06-1.43,5.72,4.22-5.72-.68,3.44a57.24,57.24,0,0,1,4.52-3.68C265.69,259.13,272.87,258.79,272.87,258.79Z" style="fill:#263238"></path><path d="M272.87,258.36l-.17.15-.09.08-.1.09-.16.14-2.92,2.56-1.94,3.71v-2.81l-1.69,5.51-.18-2.78-.79,5.14-1.64-4,.84,7.2-2.7-4.92,1.44,8.35-3.13-6.5L261.25,281l-4.31-8.78,3.21,11.31L255,275.13l4.05,11.74-5.57-8.7L258.21,290,253,282.56l1.83,7.47h-.69l-1.74-3.76,0,3.76h-1.29c-.68-7.68-.88-17.3,1.78-21.06a16.5,16.5,0,0,1,4.33-4l.17-.12a56.51,56.51,0,0,1,13.69-6l1.05-.32.51-.14h.06s0,0,0,0Z" style="fill:#263238"></path><path d="M121.69,346.6a12,12,0,0,1,3.91,0,10.72,10.72,0,0,1-2,.15A11.65,11.65,0,0,1,121.69,346.6Z" style="fill:#FDE047"></path><path d="M131.61,340.57a29,29,0,0,1,0-6.08,30.88,30.88,0,0,1,0,6.08Z" style="fill:#FDE047"></path><path d="M128.6,341.38a10.57,10.57,0,0,1-1.12-1.64,10.94,10.94,0,0,1-.86-1.79,13.14,13.14,0,0,1,2,3.43Z" style="fill:#FDE047"></path><path d="M126.4,343.58a26.52,26.52,0,0,1-2.71-1.38,27.69,27.69,0,0,1-2.55-1.65,26.52,26.52,0,0,1,2.71,1.38A27.69,27.69,0,0,1,126.4,343.58Z" style="fill:#FDE047"></path><path d="M137.64,346.58a10.69,10.69,0,0,1,2-.16,10.8,10.8,0,0,1,2,.16,10.79,10.79,0,0,1-2,.15A11.65,11.65,0,0,1,137.64,346.58Z" style="fill:#FDE047"></path><path d="M136.83,343.57a25.23,25.23,0,0,1,2.55-1.65,25.49,25.49,0,0,1,2.7-1.39,25.23,25.23,0,0,1-2.55,1.65A27.52,27.52,0,0,1,136.83,343.57Z" style="fill:#FDE047"></path><path d="M134.62,341.37a11.3,11.3,0,0,1,.85-1.79,11.79,11.79,0,0,1,1.12-1.63,11.3,11.3,0,0,1-.85,1.79A11.79,11.79,0,0,1,134.62,341.37Z" style="fill:#FDE047"></path><path d="M131.62,352.62a30.78,30.78,0,0,1,0,6.07,28.87,28.87,0,0,1,0-6.07Z" style="fill:#FDE047"></path><path d="M134.63,351.81a12.07,12.07,0,0,1,1.12,1.63,11.3,11.3,0,0,1,.85,1.79,12.49,12.49,0,0,1-2-3.42Z" style="fill:#FDE047"></path><path d="M136.83,349.6a27.43,27.43,0,0,1,2.7,1.38,23.69,23.69,0,0,1,2.55,1.66,27.52,27.52,0,0,1-2.7-1.39A25.23,25.23,0,0,1,136.83,349.6Z" style="fill:#FDE047"></path><path d="M126.4,349.62a27.69,27.69,0,0,1-2.55,1.65,26.52,26.52,0,0,1-2.71,1.38,27.69,27.69,0,0,1,2.55-1.65A26.52,26.52,0,0,1,126.4,349.62Z" style="fill:#FDE047"></path><path d="M128.61,351.82a12.63,12.63,0,0,1-2,3.41,12.63,12.63,0,0,1,2-3.41Z" style="fill:#FDE047"></path><path d="M136.85,346.59a5.24,5.24,0,1,1-5.24-5.24A5.23,5.23,0,0,1,136.85,346.59Z" style="fill:#FDE047"></path><path d="M164.51,346.6a12,12,0,0,1,3.91,0,10.72,10.72,0,0,1-2,.15A11.65,11.65,0,0,1,164.51,346.6Z" style="fill:#FDE047"></path><path d="M174.43,340.57a29,29,0,0,1,0-6.08,30.88,30.88,0,0,1,0,6.08Z" style="fill:#FDE047"></path><path d="M171.42,341.38a10.57,10.57,0,0,1-1.12-1.64,10.94,10.94,0,0,1-.86-1.79,13.14,13.14,0,0,1,2,3.43Z" style="fill:#FDE047"></path><path d="M169.22,343.58a26.52,26.52,0,0,1-2.71-1.38,27.69,27.69,0,0,1-2.55-1.65,26.52,26.52,0,0,1,2.71,1.38A27.69,27.69,0,0,1,169.22,343.58Z" style="fill:#FDE047"></path><path d="M180.46,346.58a10.69,10.69,0,0,1,1.95-.16,10.8,10.8,0,0,1,2,.16,10.79,10.79,0,0,1-2,.15A11.65,11.65,0,0,1,180.46,346.58Z" style="fill:#FDE047"></path><path d="M179.65,343.57a25.23,25.23,0,0,1,2.55-1.65,25.49,25.49,0,0,1,2.7-1.39,25.23,25.23,0,0,1-2.55,1.65A27.52,27.52,0,0,1,179.65,343.57Z" style="fill:#FDE047"></path><path d="M177.44,341.37a11.3,11.3,0,0,1,.85-1.79,11.79,11.79,0,0,1,1.12-1.63,11.3,11.3,0,0,1-.85,1.79A11.79,11.79,0,0,1,177.44,341.37Z" style="fill:#FDE047"></path><path d="M174.44,352.62a30.78,30.78,0,0,1,0,6.07,28.87,28.87,0,0,1,0-6.07Z" style="fill:#FDE047"></path><path d="M177.45,351.81a12.07,12.07,0,0,1,1.12,1.63,11.3,11.3,0,0,1,.85,1.79,12.49,12.49,0,0,1-2-3.42Z" style="fill:#FDE047"></path><path d="M179.65,349.6a27.43,27.43,0,0,1,2.7,1.38,23.69,23.69,0,0,1,2.55,1.66,27.52,27.52,0,0,1-2.7-1.39A25.23,25.23,0,0,1,179.65,349.6Z" style="fill:#FDE047"></path><path d="M169.22,349.62a27.69,27.69,0,0,1-2.55,1.65,26.52,26.52,0,0,1-2.71,1.38,27.69,27.69,0,0,1,2.55-1.65A26.52,26.52,0,0,1,169.22,349.62Z" style="fill:#FDE047"></path><path d="M171.43,351.82a13.37,13.37,0,0,1-2,3.41,12.63,12.63,0,0,1,2-3.41Z" style="fill:#FDE047"></path><path d="M179.67,346.59a5.24,5.24,0,1,1-5.24-5.24A5.23,5.23,0,0,1,179.67,346.59Z" style="fill:#FDE047"></path><path d="M207.33,346.6a12,12,0,0,1,3.91,0,10.72,10.72,0,0,1-2,.15A11.65,11.65,0,0,1,207.33,346.6Z" style="fill:#FDE047"></path><path d="M217.25,340.57a29,29,0,0,1,0-6.08,30.88,30.88,0,0,1,0,6.08Z" style="fill:#FDE047"></path><path d="M214.24,341.38a10.57,10.57,0,0,1-1.12-1.64,10.94,10.94,0,0,1-.86-1.79,13.14,13.14,0,0,1,2,3.43Z" style="fill:#FDE047"></path><path d="M212,343.58a26.52,26.52,0,0,1-2.71-1.38,27.69,27.69,0,0,1-2.55-1.65,26.52,26.52,0,0,1,2.71,1.38A27.69,27.69,0,0,1,212,343.58Z" style="fill:#FDE047"></path><path d="M223.28,346.58a10.69,10.69,0,0,1,1.95-.16,10.8,10.8,0,0,1,2,.16,10.79,10.79,0,0,1-2,.15A11.65,11.65,0,0,1,223.28,346.58Z" style="fill:#FDE047"></path><path d="M222.47,343.57a25.23,25.23,0,0,1,2.55-1.65,25.49,25.49,0,0,1,2.7-1.39,25.23,25.23,0,0,1-2.55,1.65A27.52,27.52,0,0,1,222.47,343.57Z" style="fill:#FDE047"></path><path d="M220.26,341.37a11.3,11.3,0,0,1,.85-1.79,11.79,11.79,0,0,1,1.12-1.63,11.3,11.3,0,0,1-.85,1.79A11.79,11.79,0,0,1,220.26,341.37Z" style="fill:#FDE047"></path><path d="M217.26,352.62a30.78,30.78,0,0,1,0,6.07,28.87,28.87,0,0,1,0-6.07Z" style="fill:#FDE047"></path><path d="M220.27,351.81a12.07,12.07,0,0,1,1.12,1.63,11.3,11.3,0,0,1,.85,1.79,12.49,12.49,0,0,1-2-3.42Z" style="fill:#FDE047"></path><path d="M222.47,349.6a27.43,27.43,0,0,1,2.7,1.38,23.69,23.69,0,0,1,2.55,1.66,27.52,27.52,0,0,1-2.7-1.39A25.23,25.23,0,0,1,222.47,349.6Z" style="fill:#FDE047"></path><path d="M212,349.62a27.69,27.69,0,0,1-2.55,1.65,26.52,26.52,0,0,1-2.71,1.38,27.69,27.69,0,0,1,2.55-1.65A26.52,26.52,0,0,1,212,349.62Z" style="fill:#FDE047"></path><path d="M214.25,351.82a12.63,12.63,0,0,1-2,3.41,12.63,12.63,0,0,1,2-3.41Z" style="fill:#FDE047"></path><path d="M222.49,346.59a5.24,5.24,0,1,1-5.24-5.24A5.23,5.23,0,0,1,222.49,346.59Z" style="fill:#FDE047"></path><path d="M250.15,346.6a12,12,0,0,1,3.91,0,10.72,10.72,0,0,1-2,.15A11.65,11.65,0,0,1,250.15,346.6Z" style="fill:#FDE047"></path><path d="M260.07,340.57a29,29,0,0,1,0-6.08,30.88,30.88,0,0,1,0,6.08Z" style="fill:#FDE047"></path><path d="M257.06,341.38a10.57,10.57,0,0,1-1.12-1.64,10.94,10.94,0,0,1-.86-1.79,13.14,13.14,0,0,1,2,3.43Z" style="fill:#FDE047"></path><path d="M254.86,343.58a26.52,26.52,0,0,1-2.71-1.38,27.69,27.69,0,0,1-2.55-1.65,26.52,26.52,0,0,1,2.71,1.38A27.69,27.69,0,0,1,254.86,343.58Z" style="fill:#FDE047"></path><path d="M266.1,346.58a10.69,10.69,0,0,1,1.95-.16,10.8,10.8,0,0,1,2,.16,10.79,10.79,0,0,1-2,.15A11.65,11.65,0,0,1,266.1,346.58Z" style="fill:#FDE047"></path><path d="M265.29,343.57a25.23,25.23,0,0,1,2.55-1.65,25.49,25.49,0,0,1,2.7-1.39,25.23,25.23,0,0,1-2.55,1.65A27.52,27.52,0,0,1,265.29,343.57Z" style="fill:#FDE047"></path><path d="M263.08,341.37a11.3,11.3,0,0,1,.85-1.79,11.79,11.79,0,0,1,1.12-1.63,11.3,11.3,0,0,1-.85,1.79A11.79,11.79,0,0,1,263.08,341.37Z" style="fill:#FDE047"></path><path d="M263.09,351.81a12.07,12.07,0,0,1,1.12,1.63,11.3,11.3,0,0,1,.85,1.79,12.49,12.49,0,0,1-2-3.42Z" style="fill:#FDE047"></path><path d="M265.29,349.6A27.43,27.43,0,0,1,268,351a23.69,23.69,0,0,1,2.55,1.66,27.52,27.52,0,0,1-2.7-1.39A25.23,25.23,0,0,1,265.29,349.6Z" style="fill:#FDE047"></path><path d="M254.86,349.62a27.69,27.69,0,0,1-2.55,1.65,26.52,26.52,0,0,1-2.71,1.38,27.69,27.69,0,0,1,2.55-1.65A26.52,26.52,0,0,1,254.86,349.62Z" style="fill:#FDE047"></path><path d="M257.07,351.82a12.63,12.63,0,0,1-2,3.41,12.63,12.63,0,0,1,2-3.41Z" style="fill:#FDE047"></path><path d="M265.32,346.59a5.25,5.25,0,1,1-5.25-5.24A5.24,5.24,0,0,1,265.32,346.59Z" style="fill:#FDE047"></path><path d="M130.29,364.21a1.51,1.51,0,0,1,0,2.15,1.51,1.51,0,0,1-2.15,0,.35.35,0,0,1,.49-.49.82.82,0,0,0,.58.24.84.84,0,0,0,.59-.24.83.83,0,0,0,0-1.17.82.82,0,0,0-.58-.24.33.33,0,0,1-.25-.11s0,0,0,0a.35.35,0,0,1,0-.49l.62-.63h-1a.35.35,0,0,1,0-.7h1.81a.35.35,0,0,1,.35.35.3.3,0,0,1-.05.16.47.47,0,0,1-.06.09l-.77.79A1.45,1.45,0,0,1,130.29,364.21Z" style="fill:#263238"></path><path d="M131.7,364.67a2.64,2.64,0,0,1,.42-1.46,1.37,1.37,0,0,1,1.13-.68,1.41,1.41,0,0,1,1.14.68,2.8,2.8,0,0,1,0,2.92,1.41,1.41,0,0,1-1.14.68,1.37,1.37,0,0,1-1.13-.68A2.64,2.64,0,0,1,131.7,364.67Zm2.42,0a2.07,2.07,0,0,0-.3-1.09.7.7,0,0,0-.57-.37.75.75,0,0,0-.58.37,2.07,2.07,0,0,0-.29,1.09,2,2,0,0,0,.29,1.08.74.74,0,0,0,.58.38.7.7,0,0,0,.57-.38A2,2,0,0,0,134.12,364.67Z" style="fill:#263238"></path><path d="M125.77,329.63l2-1.8a1.12,1.12,0,0,0,.37-.82,1.1,1.1,0,0,0-.29-.74,1.07,1.07,0,0,0-.81-.36,1.13,1.13,0,0,0-.75.28l-.21.19a.13.13,0,0,1-.2,0,.14.14,0,0,1,0-.21l.21-.2a1.43,1.43,0,0,1,1-.36,1.4,1.4,0,0,1,.93,2.44l-1.71,1.54h2a.15.15,0,0,1,.14.16.14.14,0,0,1-.14.14h-2.41a.12.12,0,0,1-.11,0A.16.16,0,0,1,125.77,329.63Z" style="fill:#dbdbdb"></path><path d="M129.68,325.76a.15.15,0,0,1,.15-.15H131a1.22,1.22,0,1,1,0,2.44l-1.06,0v1.68a.14.14,0,0,1-.15.14.15.15,0,0,1-.15-.14Zm1.36,2a1,1,0,0,0,.93-.94.93.93,0,0,0-.93-.92H130v1.86Z" style="fill:#dbdbdb"></path><path d="M136.55,326.22l-1.37,1.91a.16.16,0,0,1-.12.06h0a.15.15,0,0,1-.13-.06l-1.37-1.9v3.52a.15.15,0,0,1-.3,0v-4a.11.11,0,0,1,.06-.11s0,0,0,0a.16.16,0,0,1,.21,0l1.52,2.11,1.52-2.11a.16.16,0,0,1,.21,0l0,.05a.16.16,0,0,1,0,.08v4a.15.15,0,0,1-.15.14.14.14,0,0,1-.15-.14Z" style="fill:#dbdbdb"></path><path d="M174,366.48a.33.33,0,0,1-.34.33h-2.18a.31.31,0,0,1-.25-.11.33.33,0,0,1,0-.47l1.81-1.64a.77.77,0,0,0,.26-.59.79.79,0,0,0-.2-.53.77.77,0,0,0-.59-.26.81.81,0,0,0-.53.2l-.19.17a.34.34,0,0,1-.48,0,.35.35,0,0,1,0-.48l.19-.17a1.41,1.41,0,0,1,1-.38,1.5,1.5,0,0,1,1.09.48,1.45,1.45,0,0,1,.38,1,1.5,1.5,0,0,1-.48,1.09l-1.16,1h1.3A.35.35,0,0,1,174,366.48Z" style="fill:#263238"></path><path d="M174.84,364a1.48,1.48,0,0,1,3-.15h0c0,.12,0,.23,0,.35a3.4,3.4,0,0,1-.22,1.25,2.09,2.09,0,0,1-.79,1,1.82,1.82,0,0,1-.91.29.34.34,0,1,1,0-.68,1.28,1.28,0,0,0,.58-.17,1.32,1.32,0,0,0,.38-.43,1.19,1.19,0,0,0,.08-.16,1.45,1.45,0,0,1-.59.12A1.48,1.48,0,0,1,174.84,364Zm.68,0a.81.81,0,1,0,1.61,0,.81.81,0,0,0-1.61,0Z" style="fill:#263238"></path><path d="M171.29,325.88,170.18,327a1.41,1.41,0,0,1,.74.39,1.46,1.46,0,0,1,0,2.06,1.46,1.46,0,0,1-2,0,.16.16,0,0,1,0-.22.15.15,0,0,1,.21,0,1.17,1.17,0,0,0,1.63,0,1.15,1.15,0,0,0,.33-.81,1.13,1.13,0,0,0-.33-.81,1.12,1.12,0,0,0-.81-.34.14.14,0,0,1-.12-.06h0a.16.16,0,0,1,0-.22l1.06-1.09h-1.64a.16.16,0,0,1-.15-.16.15.15,0,0,1,.15-.15h2a.15.15,0,0,1,.15.15.14.14,0,0,1,0,.07Z" style="fill:#dbdbdb"></path><path d="M172.73,325.76a.15.15,0,0,1,.15-.15h1.21a1.22,1.22,0,1,1,0,2.44l-1.06,0v1.68a.15.15,0,0,1-.3,0Zm1.36,2a.94.94,0,0,0,.92-.94.92.92,0,0,0-.92-.92H173v1.86Z" style="fill:#dbdbdb"></path><path d="M179.6,326.22l-1.37,1.91a.16.16,0,0,1-.12.06h0a.14.14,0,0,1-.12-.06l-1.37-1.9v3.52a.15.15,0,0,1-.15.14.14.14,0,0,1-.15-.14v-4a.11.11,0,0,1,.06-.11v0a.16.16,0,0,1,.21,0l1.52,2.11,1.52-2.11a.16.16,0,0,1,.21,0l0,.05a.31.31,0,0,1,0,.08v4a.14.14,0,0,1-.14.14.14.14,0,0,1-.15-.14Z" style="fill:#dbdbdb"></path><path d="M217,366.48a.32.32,0,0,1-.33.33h-2.18a.31.31,0,0,1-.25-.11.32.32,0,0,1,0-.47l1.81-1.64a.77.77,0,0,0,.26-.59.8.8,0,0,0-.79-.79.86.86,0,0,0-.54.2l-.19.17a.32.32,0,0,1-.47,0,.34.34,0,0,1,0-.48l.19-.17a1.45,1.45,0,0,1,1-.38,1.48,1.48,0,0,1,1.08.48,1.45,1.45,0,0,1,.38,1,1.47,1.47,0,0,1-.48,1.09l-1.16,1h1.31A.34.34,0,0,1,217,366.48Z" style="fill:#263238"></path><path d="M217.82,364a1.49,1.49,0,0,1,1.49-1.48,1.47,1.47,0,0,1,1.47,1.33h0c0,.12,0,.23,0,.35a3.61,3.61,0,0,1-.21,1.25,2.21,2.21,0,0,1-.79,1,1.85,1.85,0,0,1-.92.29.34.34,0,0,1-.35-.33.35.35,0,0,1,.33-.35,1.23,1.23,0,0,0,.57-.17,1.48,1.48,0,0,0,.39-.43s.05-.11.08-.16a1.45,1.45,0,0,1-.59.12A1.49,1.49,0,0,1,217.82,364Zm.68,0a.81.81,0,0,0,.81.81.8.8,0,0,0,.8-.81.79.79,0,0,0-.8-.8A.8.8,0,0,0,218.5,364Z" style="fill:#263238"></path><path d="M214,329h-2.33s-.07,0-.09,0a.14.14,0,0,1,0-.21l2.48-3.08h0a.14.14,0,0,1,.21,0,.18.18,0,0,1,.05.07v3h.29a.16.16,0,0,1,.16.15.15.15,0,0,1-.16.14h-.29v.74a.14.14,0,0,1-.15.14.15.15,0,0,1-.15-.14Zm0-.29v-2.51l-2,2.51Z" style="fill:#dbdbdb"></path><path d="M215.88,325.76a.15.15,0,0,1,.15-.15h1.21a1.22,1.22,0,1,1,0,2.44l-1.06,0v1.68a.15.15,0,0,1-.3,0Zm1.36,2a.94.94,0,0,0,.92-.94.92.92,0,0,0-.92-.92h-1.06v1.86Z" style="fill:#dbdbdb"></path><path d="M222.75,326.22l-1.37,1.91a.16.16,0,0,1-.12.06h0a.14.14,0,0,1-.12-.06l-1.37-1.9v3.52a.15.15,0,0,1-.15.14.14.14,0,0,1-.15-.14v-4a.11.11,0,0,1,.06-.11v0a.16.16,0,0,1,.21,0l1.52,2.11,1.52-2.11a.16.16,0,0,1,.21,0l0,.05a.31.31,0,0,1,0,.08v4a.14.14,0,0,1-.14.14.14.14,0,0,1-.15-.14Z" style="fill:#dbdbdb"></path><path d="M260,366.48a.33.33,0,0,1-.34.33h-2.18a.31.31,0,0,1-.25-.11.32.32,0,0,1,0-.47l1.81-1.64a.77.77,0,0,0,.26-.59.76.76,0,0,0-.21-.53.75.75,0,0,0-.58-.26.81.81,0,0,0-.53.2l-.2.17a.32.32,0,0,1-.47,0,.34.34,0,0,1,0-.48l.19-.17a1.45,1.45,0,0,1,1-.38,1.52,1.52,0,0,1,1.09.48,1.5,1.5,0,0,1,.38,1,1.48,1.48,0,0,1-.49,1.09l-1.15,1h1.3A.35.35,0,0,1,260,366.48Z" style="fill:#263238"></path><path d="M263.7,365.36a1.46,1.46,0,1,1-2.27-1.22,1,1,0,0,1-.2-.61,1,1,0,0,1,2,0,1.06,1.06,0,0,1-.2.61A1.47,1.47,0,0,1,263.7,365.36Zm-.67,0a.79.79,0,0,0-.78-.8.8.8,0,1,0,0,1.59A.79.79,0,0,0,263,365.36Zm-1.13-1.83a.35.35,0,0,0,.35.35.34.34,0,0,0,.33-.35.33.33,0,0,0-.33-.33A.34.34,0,0,0,261.9,363.53Z" style="fill:#263238"></path><path d="M254.78,329.47a.14.14,0,0,1,0-.21.16.16,0,0,1,.22,0,1.13,1.13,0,0,0,.81.33,1.16,1.16,0,0,0,1.14-1.15,1.13,1.13,0,0,0-1.14-1.14,1.1,1.1,0,0,0-.81.34.16.16,0,0,1-.22,0s0,0,0-.05h0s0,0,0,0v-.08l.21-1.72a.11.11,0,0,1,.06-.11.13.13,0,0,1,.1,0h2a.16.16,0,0,1,.16.15.15.15,0,0,1-.16.16h-1.86l-.16,1.27a1.46,1.46,0,0,1,.73-.2,1.39,1.39,0,0,1,1,.43,1.41,1.41,0,0,1,.43,1,1.43,1.43,0,0,1-.43,1,1.46,1.46,0,0,1-2,0Z" style="fill:#dbdbdb"></path><path d="M258.69,325.76a.15.15,0,0,1,.14-.15H260a1.22,1.22,0,0,1,0,2.44l-1.05,0v1.68a.15.15,0,0,1-.16.14.14.14,0,0,1-.14-.14Zm1.35,2a1,1,0,0,0,.93-.94.93.93,0,0,0-.93-.92H259v1.86Z" style="fill:#dbdbdb"></path><path d="M265.55,326.22l-1.37,1.91a.16.16,0,0,1-.12.06h0a.15.15,0,0,1-.13-.06l-1.37-1.9v3.52a.15.15,0,0,1-.3,0v-4a.11.11,0,0,1,.06-.11s0,0,0,0a.16.16,0,0,1,.21,0l1.52,2.11,1.52-2.11a.16.16,0,0,1,.21,0l0,.05a.16.16,0,0,1,0,.08v4a.15.15,0,0,1-.3,0Z" style="fill:#dbdbdb"></path><path d="M250.67,355.43h23.42a4.81,4.81,0,0,0-2.44-1.71s-2.5-7.43-6.68-7.48c-3.89-.05-5.45,4.57-5.45,4.57s-1.8-2.07-3.52-1.13-2.69,3.66-2.69,3.66A9.3,9.3,0,0,0,250.67,355.43Z" style="fill:#ebebeb"></path><polygon points="121.69 377.67 140.74 377.42 159.79 377.28 197.89 377.17 235.99 377.28 255.04 377.42 274.09 377.67 255.04 377.91 235.99 378.05 197.89 378.17 159.79 378.05 140.74 377.91 121.69 377.67" style="fill:#ebebeb"></polygon><path d="M128.3,402.49a3.15,3.15,0,0,1-6.29.32v0c0-.25,0-.5,0-.75a7.49,7.49,0,0,1,.46-2.66,4.51,4.51,0,0,1,1.67-2.22,3.63,3.63,0,0,1,2-.61.72.72,0,0,1,.76.68.76.76,0,0,1-.7.76,2.28,2.28,0,0,0-1.22.36,2.59,2.59,0,0,0-.82.91,2.16,2.16,0,0,0-.17.34,3,3,0,0,1,1.24-.26A3.15,3.15,0,0,1,128.3,402.49Zm-1.44,0a1.71,1.71,0,1,0-3.42,0,1.71,1.71,0,0,0,3.42,0Z" style="fill:#263238"></path><path d="M131.58,398.61a1,1,0,0,1,1,1,1,1,0,0,1-1,1,1,1,0,0,1-1-1A1,1,0,0,1,131.58,398.61Zm0,5.18a1,1,0,1,1,0,1.93,1,1,0,0,1,0-1.93Z" style="fill:#263238"></path><path d="M136.15,397.25v7.67a.72.72,0,0,1-.72.71.7.7,0,0,1-.72-.71v-6.4l-.52.3a.64.64,0,0,1-.36.1.71.71,0,0,1-.62-.36.69.69,0,0,1,.24-1l1.6-.95s0,0,0,0,0,0,.06,0h.13a.18.18,0,0,1,.1,0h.14s0,0,.05,0l.08,0h.05s0,0,.08,0a.07.07,0,0,0,.05,0s0,0,0,0,0,0,.05.05a.13.13,0,0,1,0,.06l.06.05v0s0,0,0,0,0,0,0,.07,0,.05,0,.06,0,.05,0,.07a.13.13,0,0,0,0,.09Z" style="fill:#263238"></path><path d="M142.6,400.12a3.18,3.18,0,0,1,1,2.29,3.23,3.23,0,0,1-1,2.27,3.17,3.17,0,0,1-2.28.95h0a3.13,3.13,0,0,1-2.26-.95.71.71,0,0,1,0-1,.75.75,0,0,1,1,0,1.65,1.65,0,0,0,1.24.52,1.68,1.68,0,0,0,1.24-.52,1.74,1.74,0,0,0,.52-1.23,1.76,1.76,0,0,0-3-1.25.73.73,0,0,1-1,0c-.06-.05-.09-.12-.15-.17s0,0,0,0a.07.07,0,0,0,0-.06s0-.07,0-.09,0,0,0,0a.81.81,0,0,1,0-.22l.39-3.37a.79.79,0,0,1,.32-.52l.06,0s0,0,0,0a.7.7,0,0,1,.33-.08h3.84a.74.74,0,1,1,0,1.47h-3.2l-.16,1.29a3.31,3.31,0,0,1,.87-.12A3.17,3.17,0,0,1,142.6,400.12Z" style="fill:#263238"></path><path d="M121.58,389.75a.13.13,0,0,1,.19,0,2.44,2.44,0,0,0,1.41.55,1.61,1.61,0,0,0,.94-.28.81.81,0,0,0,.37-.64.69.69,0,0,0-.35-.59,2.91,2.91,0,0,0-1-.35h0a2.56,2.56,0,0,1-1-.36.87.87,0,0,1-.44-.74,1,1,0,0,1,.44-.81,1.8,1.8,0,0,1,1-.31,2.38,2.38,0,0,1,1.32.5.14.14,0,0,1,0,.19.13.13,0,0,1-.19,0,2.1,2.1,0,0,0-1.17-.45,1.58,1.58,0,0,0-.88.26.75.75,0,0,0-.33.59.62.62,0,0,0,.31.52,2.66,2.66,0,0,0,.92.32h0a2.91,2.91,0,0,1,1.09.39,1,1,0,0,1,.47.81,1.08,1.08,0,0,1-.48.86,1.94,1.94,0,0,1-1.1.33,2.59,2.59,0,0,1-1.58-.62A.15.15,0,0,1,121.58,389.75Z" style="fill:#dbdbdb"></path><path d="M125.86,386.42a.15.15,0,0,1,.3,0v2.41a1.44,1.44,0,0,0,2.87,0v-2.41a.15.15,0,0,1,.14-.15.16.16,0,0,1,.16.15v2.41a1.74,1.74,0,0,1-3.47,0Z" style="fill:#dbdbdb"></path><path d="M131.05,386.9v3.51a.15.15,0,0,1-.14.15.15.15,0,0,1-.15-.15v-3.93a.13.13,0,0,1,.06-.16.14.14,0,0,1,.2,0l2.6,3.6v-3.49a.14.14,0,0,1,.14-.14.15.15,0,0,1,.16.14v4a.16.16,0,0,1-.16.15.14.14,0,0,1-.11-.06l0,0Z" style="fill:#dbdbdb"></path><path d="M137.59,389.59a.78.78,0,0,0-.35-.65,1.39,1.39,0,0,0-.5-.21l0,0h-1v1.7a.15.15,0,0,1-.3,0v-4a.16.16,0,0,1,.14-.15h1.22A1.23,1.23,0,0,1,138,387.5a1.2,1.2,0,0,1-.71,1.1l.06,0a1.06,1.06,0,0,1,.58.95,1.8,1.8,0,0,0,.05.5.24.24,0,0,0,.07.1.15.15,0,0,1,.16.1.16.16,0,0,1-.1.19H138a.34.34,0,0,1-.28-.2A1.56,1.56,0,0,1,137.59,389.59Zm-.86-3h-1.06v1.85h1.08a.93.93,0,0,0,0-1.85Z" style="fill:#dbdbdb"></path><path d="M139.32,386.42a.15.15,0,0,1,.3,0v4a.15.15,0,0,1-.3,0Z" style="fill:#dbdbdb"></path><path d="M141,389.75a.13.13,0,0,1,.19,0,2.4,2.4,0,0,0,1.4.55,1.64,1.64,0,0,0,1-.28.82.82,0,0,0,.36-.64.67.67,0,0,0-.35-.59,2.83,2.83,0,0,0-1-.35h0a2.56,2.56,0,0,1-1-.36.89.89,0,0,1-.44-.74,1,1,0,0,1,.45-.81,1.79,1.79,0,0,1,1-.31,2.35,2.35,0,0,1,1.32.5.14.14,0,0,1,0,.19.12.12,0,0,1-.18,0,2.16,2.16,0,0,0-1.18-.45,1.52,1.52,0,0,0-.87.26.74.74,0,0,0-.34.59.63.63,0,0,0,.32.52,2.52,2.52,0,0,0,.92.32h0a2.91,2.91,0,0,1,1.09.39,1,1,0,0,1,.47.81,1.11,1.11,0,0,1-.48.86,2,2,0,0,1-1.11.33,2.56,2.56,0,0,1-1.57-.62A.13.13,0,0,1,141,389.75Z" style="fill:#dbdbdb"></path><path d="M145.22,386.42a.15.15,0,0,1,.15-.15h2.2a.15.15,0,0,1,.15.15.14.14,0,0,1-.15.15h-2v1.7h1.79a.15.15,0,1,1,0,.3h-1.79v1.69h2a.14.14,0,0,1,.15.15.15.15,0,0,1-.15.15h-2.21a.15.15,0,0,1-.14-.15Z" style="fill:#dbdbdb"></path><path d="M181.57,397.25v7.67a.71.71,0,0,1-.72.71.7.7,0,0,1-.72-.71v-6.4l-.52.3a.64.64,0,0,1-.36.1.69.69,0,0,1-.61-.36.68.68,0,0,1,.23-1l1.6-.95s0,0,.05,0,0,0,.07,0h.13a.13.13,0,0,1,.09,0H181s0,0,.05,0l.08,0h0s.05,0,.08,0a.1.1,0,0,0,0,0s0,0,.05,0,0,0,.06.05l0,.06.06.05v0s0,0,0,0,0,0,0,.07,0,.05,0,.06,0,.05,0,.07a.13.13,0,0,0,0,.09Z" style="fill:#263238"></path><path d="M189.31,402.54a3.11,3.11,0,1,1-4.83-2.59,2.11,2.11,0,0,1-.43-1.29,2.15,2.15,0,0,1,4.29,0,2.1,2.1,0,0,1-.42,1.29A3.13,3.13,0,0,1,189.31,402.54Zm-1.42,0a1.69,1.69,0,0,0-1.68-1.69,1.69,1.69,0,1,0,0,3.37A1.68,1.68,0,0,0,187.89,402.54Zm-2.42-3.88a.73.73,0,1,0,1.46,0,.73.73,0,0,0-1.46,0Z" style="fill:#263238"></path><path d="M192.66,398.61a1,1,0,0,1,1,1,1,1,0,1,1-1-1Zm0,5.18a1,1,0,1,1,0,1.93,1,1,0,0,1,0-1.93Z" style="fill:#263238"></path><path d="M201.49,403.21a.72.72,0,0,1-.73.72h-.13v1a.72.72,0,0,1-1.43,0v-1h-4.1a.63.63,0,0,1-.44-.16.7.7,0,0,1-.12-1l4.81-6s0,0,0,0l0-.06.06,0,.05,0a.11.11,0,0,1,.08,0s0,0,0,0l.08,0a.07.07,0,0,0,.06,0H200s0,0,.06,0l.08,0h.05l.07.06.06,0h0l0,0,.05.06s0,0,0,.05,0,0,.06.06a.14.14,0,0,0,0,.06l0,.07s0,0,0,.06a.13.13,0,0,1,0,.07s0,0,0,.07v5.29h.13A.72.72,0,0,1,201.49,403.21Zm-2.29-3.92-2.59,3.21h2.59Z" style="fill:#263238"></path><path d="M208,400.12a3.23,3.23,0,0,1-2.28,5.51h0a3.15,3.15,0,0,1-2.27-.95.71.71,0,0,1,0-1,.75.75,0,0,1,1,0,1.67,1.67,0,0,0,1.25.52,1.69,1.69,0,0,0,1.24-.52,1.78,1.78,0,0,0,.52-1.23,1.76,1.76,0,0,0-1.76-1.76,1.75,1.75,0,0,0-1.25.51.73.73,0,0,1-1,0c0-.05-.09-.12-.14-.17s0,0,0,0a.11.11,0,0,0,0-.06s0-.07,0-.09,0,0,0,0a.41.41,0,0,1,0-.22l.39-3.37a.76.76,0,0,1,.32-.52l0,0,0,0a.77.77,0,0,1,.34-.08h3.83a.74.74,0,1,1,0,1.47H205l-.16,1.29a3.31,3.31,0,0,1,.87-.12A3.19,3.19,0,0,1,208,400.12Z" style="fill:#263238"></path><path d="M178.47,389.75a.13.13,0,0,1,.19,0,2.4,2.4,0,0,0,1.4.55A1.64,1.64,0,0,0,181,390a.82.82,0,0,0,.36-.64.67.67,0,0,0-.35-.59,2.83,2.83,0,0,0-1-.35h0a2.56,2.56,0,0,1-1-.36.89.89,0,0,1-.44-.74,1,1,0,0,1,.45-.81,1.79,1.79,0,0,1,1-.31,2.35,2.35,0,0,1,1.32.5.14.14,0,0,1,0,.19.12.12,0,0,1-.18,0,2.16,2.16,0,0,0-1.18-.45,1.52,1.52,0,0,0-.87.26.74.74,0,0,0-.34.59.61.61,0,0,0,.32.52,2.53,2.53,0,0,0,.91.32h0a3,3,0,0,1,1.09.39,1,1,0,0,1,.47.81,1.09,1.09,0,0,1-.49.86,1.91,1.91,0,0,1-1.1.33,2.61,2.61,0,0,1-1.58-.62A.14.14,0,0,1,178.47,389.75Z" style="fill:#dbdbdb"></path><path d="M182.75,386.42a.15.15,0,0,1,.14-.15.16.16,0,0,1,.16.15v2.41a1.43,1.43,0,1,0,2.86,0v-2.41a.15.15,0,0,1,.3,0v2.41a1.73,1.73,0,1,1-3.46,0Z" style="fill:#dbdbdb"></path><path d="M187.94,386.9v3.51a.15.15,0,0,1-.3,0v-3.93a.13.13,0,0,1,.06-.16.16.16,0,0,1,.21,0l2.59,3.6v-3.49a.15.15,0,0,1,.3,0v4a.15.15,0,0,1-.15.15.14.14,0,0,1-.12-.06l0,0Z" style="fill:#dbdbdb"></path><path d="M192.14,389.75a.13.13,0,0,1,.19,0,2.44,2.44,0,0,0,1.41.55,1.61,1.61,0,0,0,.94-.28.81.81,0,0,0,.37-.64.69.69,0,0,0-.35-.59,2.83,2.83,0,0,0-1-.35h0a2.56,2.56,0,0,1-1-.36.89.89,0,0,1-.44-.74,1,1,0,0,1,.44-.81,1.8,1.8,0,0,1,1-.31,2.38,2.38,0,0,1,1.32.5.14.14,0,0,1,0,.19.13.13,0,0,1-.19,0,2.1,2.1,0,0,0-1.17-.45,1.58,1.58,0,0,0-.88.26.75.75,0,0,0-.33.59.62.62,0,0,0,.31.52,2.66,2.66,0,0,0,.92.32h0a2.91,2.91,0,0,1,1.09.39,1,1,0,0,1,.47.81,1.08,1.08,0,0,1-.48.86,1.94,1.94,0,0,1-1.1.33,2.61,2.61,0,0,1-1.58-.62A.15.15,0,0,1,192.14,389.75Z" style="fill:#dbdbdb"></path><path d="M196.42,386.42a.15.15,0,0,1,.14-.15h2.21a.15.15,0,0,1,.14.15.14.14,0,0,1-.14.15h-2.05v1.7h1.79a.15.15,0,1,1,0,.3h-1.79v1.69h2.05a.14.14,0,0,1,.14.15.15.15,0,0,1-.14.15h-2.22a.15.15,0,0,1-.13-.15Z" style="fill:#dbdbdb"></path><path d="M201.15,386.57h-1.29a.15.15,0,0,1-.15-.15.15.15,0,0,1,.15-.15h2.88a.15.15,0,0,1,.14.15.14.14,0,0,1-.14.15h-1.3v3.84a.15.15,0,0,1-.14.15.15.15,0,0,1-.15-.15Z" style="fill:#dbdbdb"></path></g><g id="freepik--Character--inject-7"><path d="M412.7,316.08l-.05.15c-.4,1.12-3,8.64-7,20.11-.27.77-.53,1.55-.81,2.35-5.43,15.51-13.07,37.35-21.06,60.25-.1.32-.22.65-.34,1q-2.1,6-4.21,12.1c-.17.47-.33.95-.5,1.43-1.26,3.6-2.51,7.21-3.76,10.8-3.51,10.06-6.94,19.94-10.15,29.21H286.41c7.51-19.11,17-41.65,26.27-62.87,16.62-38.23,32.23-72.23,33.22-74.39l.06-.11Z" style="fill:#d3766a"></path><polygon points="357.39 316.08 373.73 427.65 412.65 316.23 357.39 316.08" style="opacity:0.1"></polygon><polygon points="381.84 414.54 309.45 389.46 345.96 316.08 412.7 316.09 381.84 414.54" style="fill:#FDE047"></polygon><polygon points="381.84 414.54 309.45 389.46 345.96 316.08 412.7 316.09 381.84 414.54" style="opacity:0.30000000000000004"></polygon><path d="M320.64,383.61c11.71,2.51,52.63,15.49,56.78,17.74.09,0,0,.24-.08.23-4.69-.5-40.14-11.12-56.81-17.63C320.36,383.88,320.45,383.57,320.64,383.61Z" style="fill:#263238"></path><polygon points="412.69 316.08 381.84 414.54 370.34 410.55 346.58 316.08 412.69 316.08" style="fill:#263238"></polygon><path d="M445.42,453.45H376.3l-1.38-29.21-.58-12.14v-.16h0l-.52-11.09-.05-1-.9-19.06,0-.79c-.53-.32-2.78-1.2-5.31-2.15l-.86-.33c-1.78-.66-3.63-1.32-5.08-1.85-.86-.31-1.57-.56-2.06-.75l-.58-.2-.15-.05v0a.19.19,0,0,0,0-.08c-.16-.47-.31-1-.47-1.48-5.26-16.89-12.32-57-12.32-57h88.92l0,.08c.73,1.89,15.93,41.83,6.37,70.33-.26.81.27,10.43,1.18,24.18C443.26,422.78,444.35,438.1,445.42,453.45Z" style="fill:#d3766a"></path><path d="M445.74,410.59,373,412.14,372.82,380l-14-5.33s-10-23.29-12.82-58.6h88.93S452.78,353,443.34,384Z" style="fill:#FDE047"></path><path d="M445.74,410.59,373,412.14,372.82,380l-14-5.33s-10-23.29-12.82-58.6h88.93S452.78,353,443.34,384Z" style="opacity:0.30000000000000004"></path><path d="M378.19,399.26c19.27-1.3,56.6-1.56,61.39-.71a.13.13,0,0,1,0,.24c-4.76,1-50.11,1.88-61.38.82C378,399.59,378,399.27,378.19,399.26Z" style="fill:#263238"></path><path d="M426.29,350.81c-1.32-.51-2.8-.64-4.17-1a33.2,33.2,0,0,1-4.23-1.5,31.9,31.9,0,0,1-7.31-4.39,17,17,0,0,1-4.74-6.9c-.59-1.42-3.17-8.93-3.2-9s-.42-.11-.42.07c.06,1,1.51,7.41,2,9A16.58,16.58,0,0,0,409,345a26,26,0,0,0,8.15,4.68,28.19,28.19,0,0,0,4.68,1.28,12.64,12.64,0,0,0,4.5.27C426.56,351.22,426.48,350.89,426.29,350.81Z" style="fill:#263238"></path><path d="M356.57,372.49a134.23,134.23,0,0,1,21.23,9.89.24.24,0,0,1-.2.43c-7.15-3.07-14.44-6-21.41-9.47A.47.47,0,0,1,356.57,372.49Z" style="fill:#263238"></path><path d="M354.3,323.42c0-.24.45-.3.45,0-.05,8.49.49,16,1.2,23.89.33,3.68,3.3,24,9.68,22.56,1.07-.25,1.62-1.31,1.79-2.92.2-1.94-.53-4.31-.85-6.24-.71-4.26-1.28-8.54-1.64-12.84a116.74,116.74,0,0,1,.25-24.08.21.21,0,0,1,.42,0c0,11.13.28,22.23,1.94,33.24.8,5.3,3.47,13.27-2.07,14.08s-9.29-12.52-10-16.17C353.57,344.74,353.5,333.74,354.3,323.42Z" style="fill:#263238"></path><path d="M365.46,370.38a33.31,33.31,0,0,1,1.44,4.22,9.64,9.64,0,0,1,.6,3.47.25.25,0,0,1-.44.09,12.15,12.15,0,0,1-1.49-3.37c-.48-1.3-1-2.6-1.45-3.92A.71.71,0,0,1,365.46,370.38Z" style="fill:#263238"></path><path d="M334.74,94c33-11.91,55.48,30.58,73.06,52.67,16.19,20.34,47.05,43.83,39.87,62.6-10.48,27.37-69.45,18.34-108.95-26.76C310.39,150.14,311.61,102.34,334.74,94Z" style="fill:#FDE047"></path><path d="M334.74,94c33-11.91,55.48,30.58,73.06,52.67,16.19,20.34,47.05,43.83,39.87,62.6-10.48,27.37-69.45,18.34-108.95-26.76C310.39,150.14,311.61,102.34,334.74,94Z" style="fill:#fff;opacity:0.4"></path><path d="M353.35,235.31c-34.84,7.9-97.42,2-98.94-14.35-1-11.34,6.23-49,27.11-67.64,3.08-2.75,31.14,30.57,27.19,34.79A44.66,44.66,0,0,0,300,203.17c-.63,2.17,35.45,9,50,12.31C376.8,221.65,363.05,233.11,353.35,235.31Z" style="fill:#d3766a"></path><path d="M345.88,236.73s-5.12-9.72,2.48-21.55c0,0-14.95-13.79-29.19-6.9,0,0-13.24,13-3.42,30.37C315.75,238.65,326.24,247.46,345.88,236.73Z" style="fill:#455a64"></path><path d="M335.37,240.4a5.81,5.81,0,0,0-.89.82c.44-.1.89-.21,1.35-.34a5,5,0,0,1,1.75-.83,3.71,3.71,0,0,1,1.24-.12c.41-.14.83-.3,1.25-.47A5.32,5.32,0,0,0,335.37,240.4Z" style="fill:#37474f"></path><path d="M325.5,236.48a3.69,3.69,0,0,0-3.05-2.11c-1.75-.08-3.11,1.15-4.66,1.72a3.89,3.89,0,0,1-2.23.25c-1-.24-1.32-1-1.61-1.93a3.93,3.93,0,0,0-.68-1.41,27.14,27.14,0,0,0,1.41,3.59,2.93,2.93,0,0,0,1.67.41,9.14,9.14,0,0,0,3.69-1.31c1.48-.72,3.14-1,4.36.34a3.44,3.44,0,0,1,.44,4,4.16,4.16,0,0,1-1.6,1.67c.29.06.6.11.91.15a4.9,4.9,0,0,0,1.25-1.52A4.13,4.13,0,0,0,325.5,236.48Z" style="fill:#37474f"></path><path d="M341.62,213.36a6.39,6.39,0,0,0,2.05-1.69l-.54-.33a5.48,5.48,0,0,1-1.54,1.33c-1.4.82-3.2,1.29-4.14,2.72-1.11,1.71-.23,3.79.9,5.24,1.27,1.61,2.94,3,3,5.23a4.26,4.26,0,0,1-3.22,4.43,3.85,3.85,0,0,1-4.37-2.22c-.68-1.44-.88-3-1.6-4.47a3.43,3.43,0,0,0-3.59-2c-2.13.31-3.46,2.08-5,3.42s-3.91,2.21-5.77,1-1.82-3.63-.85-5.28c1.09-1.84,3.16-2.7,5.16-3.13a3.39,3.39,0,0,0,2.21-1.2,3.15,3.15,0,0,0,.46-2.1c-.17-1.88-1.39-3.19-2.46-4.64a6.36,6.36,0,0,1-1.15-2.22,5,5,0,0,0-.5.18h0a10.11,10.11,0,0,0,2,3.42c1,1.28,2.48,3.88.83,5.26a3.48,3.48,0,0,1-1.66.61,12,12,0,0,0-1.66.45,8.23,8.23,0,0,0-2.59,1.51,5.45,5.45,0,0,0-1.83,5.19,4.09,4.09,0,0,0,3.92,3.22c2.31.11,4-1.29,5.52-2.82s4-3.4,5.86-1.33c1.1,1.25,1.28,3.14,1.89,4.65a4.56,4.56,0,0,0,8.25,1.06,5.45,5.45,0,0,0,.13-5.39c-1.1-2.06-3.53-3.51-3.76-6S339.91,214.27,341.62,213.36Zm-7.34-6c-.34-.1-.68-.19-1-.27a2.26,2.26,0,0,1-1.38-.3c-.45-.08-.91-.16-1.38-.21a4.35,4.35,0,0,0,1.89,1A2.61,2.61,0,0,0,334.28,207.32Z" style="fill:#37474f"></path><path d="M343.35,288.05l2.61,28h88.93s-25.34-70-50.56-93.64c-10-9.39-19.33-6.61-26.44.59-1.62,1.64-21.19,34-22.83,45.5C333.71,278,343.35,288.05,343.35,288.05Z" style="fill:#d3766a"></path><path d="M343.36,288.05l.63,6.87,81.56-2.26c-9.65-22.59-25.45-55.46-41.22-70.21-10-9.41-19.33-6.62-26.44.59-1.62,1.63-21.19,34-22.84,45.49C333.72,278,343.36,288.05,343.36,288.05Z" style="fill:#FDE047"></path><path d="M343.36,288.05l.09,1.08.11,1.15v.08a1.72,1.72,0,0,0,.06.44l.09,1.14.28,3,66.82-1.85h.41l4-.12h.43l9.85-.28C419.29,278,410.43,259,400.7,243.46h0l-.23-.39h0c-.66-1.06-1.33-2.1-2-3.11-.09-.13-.16-.26-.24-.37a97.71,97.71,0,0,0-13.87-17.15c-10-9.4-19.34-6.61-26.43.6a28.51,28.51,0,0,0-2.14,3.11,1.75,1.75,0,0,1-.23.35c-.59,1-1.3,2.12-2.06,3.41h0l-.23.39h0c-2.63,4.39-6,10.27-9.11,16.25a3,3,0,0,1-.24.43v0l-1.55,3c-.07.15-.14.3-.22.45-3.54,7.11-6.44,13.93-7,18.08C333.71,278,343.36,288.05,343.36,288.05Z" style="fill:#455a64"></path><path d="M355.2,250.77a5.71,5.71,0,0,0-4.6-2.23,9.81,9.81,0,0,0-3,.39c-1,.28-2.3,1.15-3.32.58a2.28,2.28,0,0,1-1-1.48l-.43.83a2.45,2.45,0,0,0,3.42,1.28c1.91-.68,3.85-1.26,5.88-.66a4.2,4.2,0,0,1,3.09,3.86,3,3,0,0,1-3.05,3.2c-1.67.12-3.41-.34-5,.17a3.75,3.75,0,0,0-2.57,3.55c-.14,2,.74,3.78,1.09,5.7a4.47,4.47,0,0,1-.47,3.36,3.71,3.71,0,0,1-2.27,1.47,3.93,3.93,0,0,1-4.42-2.73c-.55-1.63.1-3.42-.44-5.06a2.41,2.41,0,0,0-1.05-1.37c-.1.26-.2.51-.28.76a1.76,1.76,0,0,1,.26.28,4.11,4.11,0,0,1,.48,2.54,11.81,11.81,0,0,0,.13,2.66,5,5,0,0,0,3.55,3.69,4.53,4.53,0,0,0,4.61-1.68c1.34-1.81.72-4.13.13-6.09-.53-1.75-1.22-4.24.28-5.73s3.69-.77,5.42-.76,3.36-.5,4.06-2.14A4.77,4.77,0,0,0,355.2,250.77Zm28.35-29a24,24,0,0,0-4.65-3.28,6,6,0,0,0-1.27.06c-2.9.45-4.29,3.42-6.91,4.42a2.89,2.89,0,0,1-3.55-.82,8.12,8.12,0,0,1-1.08-3.34c-.08-.42-.16-.83-.25-1.25l-.71.29c.39,1.9.49,4.3,2.18,5.55,2.18,1.61,4.75-.06,6.41-1.59a9.87,9.87,0,0,1,3.36-2.45,4.77,4.77,0,0,1,3.54.25A4.72,4.72,0,0,1,382.7,226c-1.29,2.5-4.42,2.75-6.5,4.3-1.79,1.34-2.7,3.6-1.15,5.49,1.39,1.7,3.67,2.42,4.69,4.44a6.78,6.78,0,0,1-.07,5.93,5.73,5.73,0,0,1-5.11,3.26,7.24,7.24,0,0,1-5.67-2.71,6.82,6.82,0,0,1-1.27-3,9.38,9.38,0,0,0-1-3.3c-1.38-2.18-4.21-1.75-6.16-.68-2.26,1.25-4.31,3.57-7.14,2.7a4.93,4.93,0,0,1-3.12-6.3c.87-2.81,3.73-3.69,5.75-5.48,1.64-1.46,2.83-4.08,1.18-6a3.45,3.45,0,0,0-.26-.28c-.14.22-.31.46-.49.73a2.33,2.33,0,0,1,.61,2.38c-.61,2.48-3.16,3.5-5.08,4.94-.88,1.5-1.82,3.11-2.78,4.82a5.82,5.82,0,0,0,.6,3.19,5.55,5.55,0,0,0,6.19,2.83c2.72-.73,4.56-3.48,7.48-3.65a2.83,2.83,0,0,1,3,2.2c.36,1.2.39,2.49.86,3.66,1.62,4,7.27,6.27,11,3.61,3.4-2.45,4-8.11.8-11-1.58-1.41-5.09-2.88-3.91-5.58s4.78-2.86,6.87-4.61A5.54,5.54,0,0,0,383.55,221.74Zm25.66,36.52a4.48,4.48,0,0,1-2.3,1,5.13,5.13,0,0,1-4.57-2c-1.39-1.88-.6-4.09-.65-6.22,0-1.5-.61-3.25-2.12-3.85s-2.9.26-4.09,1.06c-1.49,1-3.12,2.18-5,1.3a4,4,0,0,1-1.89-5c.83-2.22,2.86-3,4.85-3.93a6,6,0,0,0,3.33-3l-.47-.68a3.54,3.54,0,0,1-1.14,1.82c-1.69,1.52-4.16,1.76-5.81,3.37a5.56,5.56,0,0,0-1.63,5.21,4.53,4.53,0,0,0,3.84,3.3c1.84.16,3.33-1.15,4.79-2.06a3.77,3.77,0,0,1,2.42-.78,2.52,2.52,0,0,1,1.94,1.95c.65,2.16-.47,4.44.26,6.61a5.62,5.62,0,0,0,3.5,3.4,5.22,5.22,0,0,0,5-.82C409.43,258.66,409.33,258.46,409.21,258.26Zm-61.6,25.89c-1.05-3.57-5.19-4.78-8.3-3a4.85,4.85,0,0,0-.74.51l.37.61a5.19,5.19,0,0,1,6.93.22,5.13,5.13,0,0,1,1.06,4.88c-.54,1.68-1.95,2.47-3.34,3.3a.9.9,0,0,0,0,.16l.05.64a10.32,10.32,0,0,0,3.24-2.45A5.64,5.64,0,0,0,347.61,284.15Zm40.45-8.84c-2.52-.84-6.6,1.24-8.16-1.72-1.37-2.59.36-5.57,1.52-7.85s2.22-5.31.42-7.71a6.8,6.8,0,0,0-6-2.56,7.49,7.49,0,0,0-5.75,4.27,10.26,10.26,0,0,0-1.05,3.75c-.15,1.66.34,3.27.27,4.92-.07,1.4-1,3.38-2.74,3a4.82,4.82,0,0,1-1.87-1.19,14.46,14.46,0,0,0-1.9-1.39c-2.38-1.43-5.53-2-7.82-.07a6.7,6.7,0,0,0-2.06,6.83,9.28,9.28,0,0,0,5.23,5.75c1.16.53,2.65.93,3.43,2,.95,1.33,0,2.8-.84,3.88a12.36,12.36,0,0,0-2.22,3.38,7.11,7.11,0,0,0-.2,4,.14.14,0,0,0,0,.06l.63,0a6.73,6.73,0,0,1,1.37-5.8c1.37-1.7,3.51-4,1.6-6.16a8,8,0,0,0-3-1.75,10.42,10.42,0,0,1-3.41-2.26,6.63,6.63,0,0,1-1.6-7.34,5.19,5.19,0,0,1,2.44-2.6,5.63,5.63,0,0,1,4.53.11,14.73,14.73,0,0,1,3.64,2.4c1,.81,2.2,1.45,3.47.86,2.94-1.35,1.81-5,1.73-7.5a8.78,8.78,0,0,1,2.91-7,6,6,0,0,1,6.72-.61,5,5,0,0,1,2.31,2.49,5.69,5.69,0,0,1-.17,4.06c-.95,2.57-2.72,4.73-2.88,7.55-.14,2.34,1,4.52,3.5,4.86,1.44.2,2.89-.17,4.34-.1a4.91,4.91,0,0,1,3.43,1.65,5.16,5.16,0,0,1-.18,7.13,5.89,5.89,0,0,1-3.42,1.75,9.34,9.34,0,0,1-4.52-.91c-2.38-.95-4.7-2-7.32-1.35a3.88,3.88,0,0,0-3.17,4.45c.38,2,2.14,3.65,2.52,5.62l.75,0a4.29,4.29,0,0,0-.13-.6c-.64-2.2-3.54-4.85-2-7.23,1.4-2.17,4.69-1.79,6.74-1,2.82,1,5.72,2.73,8.77,1.53a6.41,6.41,0,0,0,4.2-5.86A6.25,6.25,0,0,0,388.06,275.31Zm34.49,14.81a10.18,10.18,0,0,0-2.17-2.8,5.87,5.87,0,0,1-2.06-3.5,2.58,2.58,0,0,1,2.05-2.61l.12,0c-.09-.2-.19-.41-.28-.62a3.3,3.3,0,0,0-2.58,2.91c-.12,2.43,2.06,3.91,3.44,5.58a6,6,0,0,1,1.33,3.7l.75,0A6.91,6.91,0,0,0,422.55,290.12Zm-5.61-16.55c-.71.66-1.46,1.26-2.39.47a7.61,7.61,0,0,1-1.74-2.9,11.73,11.73,0,0,0-4.43-5.42,6.86,6.86,0,0,0-6.33-.47,5.24,5.24,0,0,0-2.91,5c.08,2.12,1.32,3.52,2.95,4.72s3.88,2.66,2.53,4.84a6.65,6.65,0,0,1-3.31,2.28,10,10,0,0,0-3.2,1.9,4.79,4.79,0,0,0-1.05,5.86c1.31,2.17,3.9,2,5.92,1s4.42-3,6.87-2.31c1.94.56,2.08,2.65,2.21,4.48l.71,0a9.69,9.69,0,0,0-.51-3.13c-.8-1.94-2.78-2.48-4.69-2-2.32.56-4.12,2.34-6.46,2.84a3,3,0,0,1-3.25-1.08,3.54,3.54,0,0,1-.46-3.06c.82-2.69,3.57-3.29,5.76-4.46,1.69-.89,3.24-2.72,2.47-4.73-.64-1.65-2.4-2.52-3.7-3.56a4.75,4.75,0,0,1-1.78-5.21,4.66,4.66,0,0,1,5.19-3.11,7.94,7.94,0,0,1,5.64,3.89,22.45,22.45,0,0,1,1.52,3,6.23,6.23,0,0,0,1.61,2.31,2.09,2.09,0,0,0,2.29.31,3.62,3.62,0,0,0,.9-.71Z" style="fill:#37474f"></path><path d="M355.74,282.73a71.8,71.8,0,0,1,13.32,1.61c2.2.51,4.36,1.15,6.53,1.85,1.09.35,2.17.66,3.26.95a11.31,11.31,0,0,0,3.44.52c.1,0,.12.19,0,.2a14.81,14.81,0,0,1-6.41-.26c-2.23-.49-4.45-1.12-6.67-1.64-4.49-1.06-9-2.11-13.5-2.75C355.52,283.18,355.53,282.72,355.74,282.73Z" style="fill:#263238"></path><path d="M345.34,288.75a75,75,0,0,1,10.85-1.66,52.85,52.85,0,0,1,5.49-.07c.87,0,1.75.09,2.63.15s1.93.31,2.89.36c.1,0,.12.21,0,.21-.91,0-1.82.16-2.72.21s-1.83.1-2.74.15c-1.82.11-3.64.24-5.46.33-3.66.16-7.29.38-10.93.71C345.17,289.16,345.15,288.79,345.34,288.75Z" style="fill:#263238"></path><path d="M364.3,305a4.24,4.24,0,0,1,2.47,2.25,6.32,6.32,0,0,1,.57,1.63,6.93,6.93,0,0,1,.2,1.72,2.65,2.65,0,0,1-.17.9,1.11,1.11,0,0,1-.74.69,1,1,0,0,1-1-.27,2,2,0,0,1-.46-.8,4.19,4.19,0,0,1,.25-3.33,3.34,3.34,0,0,0-.23,1.62,4.64,4.64,0,0,0,.33,1.58c.2.48.57.92,1,.75s.54-.65.55-1.16a8.58,8.58,0,0,0-.66-3.15,5.63,5.63,0,0,0-.83-1.39A3.36,3.36,0,0,0,364.3,305Z" style="fill:#263238"></path><path d="M395.35,228.93c33.16,27,65.32,79.75,59.71,93.42-6.24,15.23-43.57-16.48-43.67-19-.09-1.88-17.48-32.76-29.7-63.31C370.4,211.83,387.16,222.24,395.35,228.93Z" style="fill:#d3766a"></path><path d="M454.7,323.52c-4.81,6.41-19.26,13.11-66,11.46-6.47-.23-13.77-47.68-6.85-47.8,8.72-.14,37.73,2.23,40.17,2.77C440.16,294,459.5,317.11,454.7,323.52Z" style="fill:#d3766a"></path><path d="M328.75,289.43c-1.78,4.69,2.3,7.92,2.3,7.92a10.69,10.69,0,0,0-3.94,6.12c-.79,4.34,5.68,7.48,5.68,7.48a13.2,13.2,0,0,0-3.13,7.12c-.33,4.23,5.74,8.32,5.74,8.32a11.61,11.61,0,0,0,1.19,8c3.85,6.37,15.22,6.53,22.44,6.71S386.9,335,391,334.22L389.8,288s-29.47-10.13-38-9.13C344.64,279.71,330.75,284.16,328.75,289.43Z" style="fill:#d3766a"></path><path d="M331.4,296.61c7.42-2.72,15.23-3.1,23-3.93a.14.14,0,0,1,0,.27c-7.75.73-15.25,3-23,4C331.27,297,331.2,296.69,331.4,296.61Z" style="fill:#263238"></path><path d="M333,310.34a20.4,20.4,0,0,1,5.34-.66c1.91-.11,3.82-.18,5.73-.23,3.82-.08,7.64-.08,11.46,0,.17,0,.2.26,0,.27-3.81.09-7.62.24-11.42.5-1.9.12-3.8.27-5.7.42a23.74,23.74,0,0,1-5.39.19A.27.27,0,0,1,333,310.34Z" style="fill:#263238"></path><path d="M335.56,326.38c1.46-.55,3.31-.34,4.85-.34,1.74,0,3.48,0,5.22,0,3.48-.05,7-.09,10.45-.26.17,0,.2.26,0,.27-3.53.19-7.06.42-10.6.58-1.74.08-3.47.14-5.21.2-1.48,0-3.32.28-4.73-.23A.1.1,0,0,1,335.56,326.38Z" style="fill:#263238"></path><path d="M387.49,287.21c4.25.41,8.5.72,12.75,1.06s8.5.61,12.72,1.06a53.69,53.69,0,0,1,12.44,2.17A112.76,112.76,0,0,1,437.33,296a66.06,66.06,0,0,0-11.6-5.46c-4-1.56-8.43-2.08-12.64-2.54s-8.53-.62-12.79-.74S391.76,287.06,387.49,287.21Z" style="fill:#263238"></path><path d="M403.7,235.56s-5.51,10.43-19.51,11.82c0,0-1.53,20.27,12.71,27.17,0,0,18.42,2.29,25.93-16.17C422.83,258.38,424.31,244.3,403.7,235.56Z" style="fill:#455a64"></path><path d="M414.13,242.05l.27-.1-.56-.47a33.07,33.07,0,0,0-3.48,1.17,3.68,3.68,0,0,0-2.27,3.41c.06,1.79,1.28,3.34,2.12,4.84a5.73,5.73,0,0,1,.58,5.19,5,5,0,0,1-3.88,3.17,5.13,5.13,0,0,1-4.57-2c-1.39-1.88-.6-4.09-.65-6.22,0-1.5-.61-3.25-2.12-3.85s-2.9.26-4.09,1.06c-1.49,1-3.12,2.18-5,1.3a3.75,3.75,0,0,1-2.12-2.92c-.24.07-.48.13-.73.18a3.58,3.58,0,0,0,.09.45,4.53,4.53,0,0,0,3.84,3.3c1.84.16,3.33-1.15,4.79-2.06a3.77,3.77,0,0,1,2.42-.78,2.52,2.52,0,0,1,1.94,1.95c.65,2.16-.47,4.44.26,6.61a5.62,5.62,0,0,0,3.5,3.4c3.51,1.24,6.92-1.41,7.32-5,.22-1.95-.65-3.56-1.61-5.19s-2.31-3.78-.75-5.49C410.63,242.77,412.6,242.58,414.13,242.05Zm-5.75,23.67a6.86,6.86,0,0,0-6.33-.47,5.24,5.24,0,0,0-2.91,5,5.7,5.7,0,0,0,2.38,4.28l1.14-.14c-.26-.18-.5-.36-.73-.55a4.75,4.75,0,0,1-1.78-5.21,4.66,4.66,0,0,1,5.19-3.11,7.94,7.94,0,0,1,5.64,3.89,13.84,13.84,0,0,1,1,1.86l.69-.42A11.43,11.43,0,0,0,408.38,265.72Zm12.76-7.78a4.15,4.15,0,0,1-1.81-3.48,4.62,4.62,0,0,1,1.9-3.7l-.29-.62-.25.18a5.22,5.22,0,0,0-1.24,7,4,4,0,0,0,3.07,1.8c.11-.24.21-.48.31-.73A3.57,3.57,0,0,1,421.14,257.94Z" style="fill:#37474f"></path><path d="M382.48,254.67c0-.06.08-.1.11,0,.49,1.06,1,2.1,1.57,3.12a16.93,16.93,0,0,0,.91,1.46,69.8,69.8,0,0,1-1.38-8.9.05.05,0,1,1,.1,0,58.12,58.12,0,0,0,4.48,14.3c1.88,3.91,4.74,7.92,8.7,9.91a.18.18,0,1,1-.16.32,21.81,21.81,0,0,1-9.39-9.19,26.16,26.16,0,0,1-2.19-5.72c-.43-.66-.88-1.31-1.28-2A16.87,16.87,0,0,1,382.48,254.67Z" style="fill:#263238"></path><path d="M378.15,221.27c-.72,1.64-11,11.26-18.76,9.44-2.53-.6.12-14.57.12-14.57l0-1.08L358.92,200l19-7.75,2.72-1s-.12,4.13-.33,9.27c0,.24,0,.48,0,.74s0,.56,0,.83c0,.77,0,1.56-.09,2.34,0,.59-.05,1.17-.1,1.79s-.09,1.24-.13,1.86A96,96,0,0,1,378.15,221.27Z" style="fill:#d3766a"></path><path d="M380.32,200.54a30.19,30.19,0,0,1-20.85,14.52L358.92,200l19-7.75,2.72-1S380.53,195.4,380.32,200.54Z" style="fill:#263238"></path><path d="M345.8,169c-11.28,23.92,1.78,33.38,6.94,35.8,4.69,2.21,20.92,9.11,34.61-13.52s6.12-35.44-4.32-41S357.08,145.06,345.8,169Z" style="fill:#d3766a"></path><path d="M353.48,165.55c.59.19,1.17.28,1.78.42a2.92,2.92,0,0,0,1.89.08.93.93,0,0,0,.49-1,2.32,2.32,0,0,0-1.84-1.47,3.4,3.4,0,0,0-2.47.18A1,1,0,0,0,353.48,165.55Z" style="fill:#263238"></path><path d="M369.17,173.15a17.26,17.26,0,0,1-1.45-1.1,2.94,2.94,0,0,1-1.27-1.41.93.93,0,0,1,.49-1,2.33,2.33,0,0,1,2.31.49,3.4,3.4,0,0,1,1.43,2A1,1,0,0,1,369.17,173.15Z" style="fill:#263238"></path><path d="M363.14,177.68c0-.06.08.14.05.2-.86,1.59-1.57,3.55-.39,4.81,0,0,0,.12-.05.08C361.09,181.63,362.07,179,363.14,177.68Z" style="fill:#263238"></path><path d="M365.42,176.72c2.68,1.1.28,6.39-2.21,5.37S363.16,175.8,365.42,176.72Z" style="fill:#263238"></path><path d="M366.33,177.47c.33.51.54,1.24,1.07,1.55s1.36,0,2-.32c.07,0,.09,0,.06.1-.44,1-1.3,1.89-2.46,1.55s-1.36-1.54-1.15-2.67C365.91,177.47,366.2,177.26,366.33,177.47Z" style="fill:#263238"></path><path d="M353.82,173c0-.06-.16,0-.19.09-.68,1.67-1.74,3.47-3.47,3.36-.05,0-.08.08,0,.09C352.07,177.08,353.45,174.68,353.82,173Z" style="fill:#263238"></path><path d="M353.11,170.62c-2.55-1.37-5.12,3.84-2.75,5.12S355.26,171.78,353.11,170.62Z" style="fill:#263238"></path><path d="M351.86,170.43c-.55.08-1.2.38-1.71.17s-.74-1-.84-1.74c0-.07-.07-.05-.1,0-.52,1-.7,2.18.16,2.85s1.85.06,2.58-.82C352.08,170.75,352.08,170.4,351.86,170.43Z" style="fill:#263238"></path><path d="M356.63,190.58a2.76,2.76,0,0,1-1.8.42,4.72,4.72,0,0,1-1.63-1.14.07.07,0,0,0-.11.06,2.44,2.44,0,0,0,1.76,1.75,1.92,1.92,0,0,0,1.91-.95C356.83,190.63,356.71,190.55,356.63,190.58Z" style="fill:#263238"></path><path d="M352.57,181.49s-1.48,2.28-2,3.43c-.05.11.21.29.59.5l0,0a6,6,0,0,0,6.26.44.13.13,0,0,0-.1-.24,9.1,9.1,0,0,1-5.65-.9c.06-.36,2.65-3.82,2.48-3.92a10.9,10.9,0,0,0-2.89-.63c2.94-4.84,6.63-9.16,9.48-14a.18.18,0,0,0-.27-.22c-4.18,4.26-7.68,9.76-10.85,14.67C349.25,181.23,352,181.48,352.57,181.49Z" style="fill:#263238"></path><path d="M352.33,185.43a6.54,6.54,0,0,0,1.48,2.89,3,3,0,0,0,1.54.83c1.29.24,1.81-.8,2-1.8a7.26,7.26,0,0,0,.13-1.62A8.27,8.27,0,0,1,352.33,185.43Z" style="fill:#263238"></path><path d="M353.81,188.32a3,3,0,0,0,1.54.83c1.29.24,1.81-.8,2-1.8A3,3,0,0,0,353.81,188.32Z" style="fill:#ff9cbd"></path><path d="M383.14,192.5c-4.68-1.42-1.27-12.09-1.27-12.09s-17.45-11.67-12.16-27.77c0,0-7.63,8.35-19.52,8.36,0,0,8.22-16.57,23.06-13.85,0,0,19.3,1.39,22.72,18.74S386.28,193.46,383.14,192.5Z" style="fill:#263238"></path><path d="M370.15,151.47a18.4,18.4,0,0,0-2.3,7.4,19.14,19.14,0,0,0,.78,7.81,15.28,15.28,0,0,0,.7,1.85l.38.91c.15.3.31.58.48.87.33.56.64,1.14,1,1.69s.79,1.05,1.2,1.56c.2.26.39.52.61.77l.68.69,1.38,1.39c1,.82,2,1.6,3.08,2.35-.88-1-1.83-1.81-2.67-2.76l-1.23-1.46-.61-.73c-.18-.26-.35-.53-.52-.79-.35-.53-.7-1.05-1.06-1.57s-.58-1.11-.88-1.66l-.44-.83-.34-.87a14.27,14.27,0,0,1-.64-1.76,21.75,21.75,0,0,1-1-7.4,22.9,22.9,0,0,1,.42-3.76A22.24,22.24,0,0,1,370.15,151.47Z" style="fill:#263238"></path><path d="M381,190.64s8.28-5.74,11.08-2.51-5.42,13-10.11,13a4.47,4.47,0,0,1-4.79-4.33Z" style="fill:#d3766a"></path><path d="M389.61,190.86c.07,0,.05.11,0,.11-3.32.11-5.84,2.23-7.93,4.61,1.26-.75,2.64-.9,3.7.65.05.08-.06.17-.14.13a2.72,2.72,0,0,0-3.17-.15,13.53,13.53,0,0,0-2.21,1.79c-.23.21-.64-.1-.44-.36l.05-.06C380.74,193.87,385.51,189.76,389.61,190.86Z" style="fill:#263238"></path><path d="M276.27,158.72s21.21-24.18,37.5-30.36c6.82-2.59,37.42-7,38.73.38,1.2,6.67-25.5,7.44-25.5,7.44s26.87-3.16,26.83,5.13-30.32,5.15-30.32,5.15,27.68-2.63,26.28,5.91c-1.05,6.45-28.63,5.16-28.63,5.16s23.8-2.1,23,4.58c-.88,7.39-26.42,7.8-26.42,7.8-1.48,12.43-6,18.41-13,21.85C303.05,192.6,276.27,158.72,276.27,158.72Z" style="fill:#d3766a"></path><path d="M317.64,136.68c3.14-.48,6.32-1,9.49-1.2s6.36-.3,9.54-.21A54.05,54.05,0,0,1,349,136.8c-7.3-1.21-18.67-.65-21.85-.45s-6.35.25-9.52.45C317.56,136.81,317.56,136.69,317.64,136.68Z" style="fill:#263238"></path><path d="M318.17,148.16c4-.45,8-1,12.09-1.31s7.9-.16,11.95-.15c.31,0,.21.17-.1.18-4.05.15-7.78.6-11.82.8s-8.1.23-12.12.58C318.11,148.26,318.11,148.17,318.17,148.16Z" style="fill:#263238"></path><path d="M316.85,158.1a90.84,90.84,0,0,1,18.65-.59c.31,0,.15.22-.16.22-6.21.08-11.07.09-18.45.58C316.77,158.32,316.73,158.12,316.85,158.1Z" style="fill:#263238"></path></g></svg>
