<svg width="372" height="326" viewBox="0 0 372 326" fill="none" xmlns="http://www.w3.org/2000/svg">
<g filter="url(#filter0_bdd_2_462)">
<mask id="path-1-inside-1_2_462" fill="white">
<path fill-rule="evenodd" clip-rule="evenodd" d="M247.339 38.4559C250.792 37.9445 252.853 42.0182 250.943 44.9406C238.004 64.7383 235.781 90.7365 247.373 113.271C262.668 143.007 296.856 156.682 327.736 147.177C331.075 146.149 334.421 149.261 332.97 152.44C325.671 168.424 313.149 182.162 296.311 190.823C256.481 211.311 207.583 195.63 187.096 155.8C166.608 115.97 182.289 67.0726 222.119 46.5851C230.254 42.4009 238.767 39.7252 247.339 38.4559Z"/>
</mask>
<path fill-rule="evenodd" clip-rule="evenodd" d="M247.339 38.4559C250.792 37.9445 252.853 42.0182 250.943 44.9406C238.004 64.7383 235.781 90.7365 247.373 113.271C262.668 143.007 296.856 156.682 327.736 147.177C331.075 146.149 334.421 149.261 332.97 152.44C325.671 168.424 313.149 182.162 296.311 190.823C256.481 211.311 207.583 195.63 187.096 155.8C166.608 115.97 182.289 67.0726 222.119 46.5851C230.254 42.4009 238.767 39.7252 247.339 38.4559Z" fill="url(#paint0_linear_2_462)"/>
<path d="M247.339 38.4559L247.632 40.4343L247.339 38.4559ZM249.151 112.357C237.902 90.487 240.056 65.2549 252.617 46.0347L249.269 43.8464C235.953 64.2217 233.66 90.9859 245.594 114.186L249.151 112.357ZM327.148 145.265C297.178 154.49 263.995 141.215 249.151 112.357L245.594 114.186C261.34 144.799 296.534 158.873 328.324 149.088L327.148 145.265ZM331.15 151.609C324.032 167.199 311.821 180.596 295.396 189.045L297.226 192.602C314.477 183.728 327.311 169.649 334.789 153.27L331.15 151.609ZM295.396 189.045C256.548 209.027 208.857 193.733 188.874 154.885L185.317 156.715C206.31 197.528 256.413 213.595 297.226 192.602L295.396 189.045ZM188.874 154.885C168.892 116.037 184.186 68.3459 223.034 48.3637L221.204 44.8066C180.392 65.7994 164.325 115.902 185.317 156.715L188.874 154.885ZM223.034 48.3637C230.971 44.281 239.274 41.672 247.632 40.4343L247.046 36.4775C238.26 37.7785 229.537 40.5208 221.204 44.8066L223.034 48.3637ZM328.324 149.088C329.247 148.804 330.168 149.091 330.752 149.662C331.306 150.203 331.478 150.89 331.15 151.609L334.789 153.27C335.912 150.811 335.137 148.353 333.546 146.8C331.986 145.276 329.564 144.521 327.148 145.265L328.324 149.088ZM252.617 46.0347C253.999 43.9202 253.945 41.3855 252.915 39.4649C251.864 37.5069 249.719 36.0816 247.046 36.4775L247.632 40.4343C248.412 40.3187 249.024 40.6746 249.39 41.3562C249.776 42.0752 249.797 43.0386 249.269 43.8464L252.617 46.0347Z" fill="url(#paint1_linear_2_462)" mask="url(#path-1-inside-1_2_462)"/>
</g>
<g filter="url(#filter1_bd_2_462)">
<mask id="path-3-inside-2_2_462" fill="white">
<path fill-rule="evenodd" clip-rule="evenodd" d="M247.556 260.618C247.708 260.619 247.859 260.62 248.011 260.62C269.569 260.62 287.045 243.144 287.045 221.587C287.045 200.029 269.569 182.554 248.011 182.554C247.859 182.554 247.708 182.555 247.556 182.556V182.554H237.473C237.838 179.882 238.026 177.155 238.026 174.384C238.026 141.295 211.202 114.472 178.114 114.472C145.026 114.472 118.203 141.295 118.203 174.384C118.203 177.506 118.442 180.572 118.902 183.566C116.053 182.904 113.084 182.554 110.033 182.554C88.4758 182.554 71 200.029 71 221.587C71 243.144 88.4758 260.62 110.033 260.62C110.185 260.62 110.337 260.619 110.488 260.618L110.486 260.62H247.556V260.618Z"/>
</mask>
<path fill-rule="evenodd" clip-rule="evenodd" d="M247.556 260.618C247.708 260.619 247.859 260.62 248.011 260.62C269.569 260.62 287.045 243.144 287.045 221.587C287.045 200.029 269.569 182.554 248.011 182.554C247.859 182.554 247.708 182.555 247.556 182.556V182.554H237.473C237.838 179.882 238.026 177.155 238.026 174.384C238.026 141.295 211.202 114.472 178.114 114.472C145.026 114.472 118.203 141.295 118.203 174.384C118.203 177.506 118.442 180.572 118.902 183.566C116.053 182.904 113.084 182.554 110.033 182.554C88.4758 182.554 71 200.029 71 221.587C71 243.144 88.4758 260.62 110.033 260.62C110.185 260.62 110.337 260.619 110.488 260.618L110.486 260.62H247.556V260.618Z" fill="url(#paint2_linear_2_462)" shape-rendering="crispEdges"/>
<path d="M247.556 260.618L247.579 258.618C247.045 258.612 246.53 258.82 246.15 259.195C245.77 259.571 245.556 260.083 245.556 260.618H247.556ZM247.556 182.556H245.556C245.556 183.091 245.77 183.603 246.15 183.979C246.53 184.354 247.045 184.562 247.579 184.556L247.556 182.556ZM247.556 182.554H249.556C249.556 181.449 248.661 180.554 247.556 180.554V182.554ZM237.473 182.554L235.492 182.283C235.414 182.856 235.587 183.434 235.967 183.869C236.346 184.304 236.896 184.554 237.473 184.554V182.554ZM118.902 183.566L118.449 185.514C119.096 185.664 119.775 185.484 120.262 185.032C120.749 184.581 120.98 183.918 120.879 183.262L118.902 183.566ZM110.488 260.618L112.058 261.857C112.536 261.252 112.623 260.427 112.283 259.735C111.943 259.044 111.236 258.609 110.466 258.618L110.488 260.618ZM110.486 260.62L108.917 259.381C108.442 259.982 108.352 260.802 108.687 261.492C109.021 262.182 109.72 262.62 110.486 262.62V260.62ZM247.556 260.62V262.62C248.661 262.62 249.556 261.725 249.556 260.62H247.556ZM247.534 262.617C247.693 262.619 247.852 262.62 248.011 262.62V258.62C247.867 258.62 247.723 258.619 247.579 258.618L247.534 262.617ZM248.011 262.62C270.673 262.62 289.045 244.249 289.045 221.587H285.045C285.045 242.04 268.464 258.62 248.011 258.62V262.62ZM289.045 221.587C289.045 198.925 270.673 180.554 248.011 180.554V184.554C268.464 184.554 285.045 201.134 285.045 221.587H289.045ZM248.011 180.554C247.852 180.554 247.693 180.555 247.534 180.556L247.579 184.556C247.723 184.555 247.867 184.554 248.011 184.554V180.554ZM245.556 182.554V182.556H249.556V182.554H245.556ZM237.473 184.554H247.556V180.554H237.473V184.554ZM239.455 182.824C239.831 180.063 240.026 177.246 240.026 174.384H236.026C236.026 177.064 235.844 179.701 235.492 182.283L239.455 182.824ZM240.026 174.384C240.026 140.191 212.307 112.472 178.114 112.472V116.472C210.098 116.472 236.026 142.4 236.026 174.384H240.026ZM178.114 112.472C143.922 112.472 116.203 140.191 116.203 174.384H120.203C120.203 142.4 146.131 116.472 178.114 116.472V112.472ZM116.203 174.384C116.203 177.608 116.449 180.776 116.925 183.87L120.879 183.262C120.434 180.368 120.203 177.404 120.203 174.384H116.203ZM119.355 181.618C116.358 180.921 113.237 180.554 110.033 180.554V184.554C112.93 184.554 115.748 184.886 118.449 185.514L119.355 181.618ZM110.033 180.554C87.3712 180.554 69 198.925 69 221.587H73C73 201.134 89.5804 184.554 110.033 184.554V180.554ZM69 221.587C69 244.249 87.3712 262.62 110.033 262.62V258.62C89.5804 258.62 73 242.04 73 221.587H69ZM110.033 262.62C110.193 262.62 110.352 262.619 110.511 262.617L110.466 258.618C110.322 258.619 110.178 258.62 110.033 258.62V262.62ZM112.056 261.86L112.058 261.857L108.919 259.378L108.917 259.381L112.056 261.86ZM247.556 258.62H110.486V262.62H247.556V258.62ZM245.556 260.618V260.62H249.556V260.618H245.556Z" fill="url(#paint3_linear_2_462)" mask="url(#path-3-inside-2_2_462)"/>
</g>
<defs>
<filter id="filter0_bdd_2_462" x="107.098" y="0.411987" width="264.22" height="264.41" filterUnits="userSpaceOnUse" color-interpolation-filters="sRGB">
<feFlood flood-opacity="0" result="BackgroundImageFix"/>
<feGaussianBlur in="BackgroundImageFix" stdDeviation="7"/>
<feComposite in2="SourceAlpha" operator="in" result="effect1_backgroundBlur_2_462"/>
<feColorMatrix in="SourceAlpha" type="matrix" values="0 0 0 0 0 0 0 0 0 0 0 0 0 0 0 0 0 0 127 0" result="hardAlpha"/>
<feOffset dx="-21" dy="15"/>
<feGaussianBlur stdDeviation="25"/>
<feComposite in2="hardAlpha" operator="out"/>
<feColorMatrix type="matrix" values="0 0 0 0 0.113438 0 0 0 0 0.148981 0 0 0 0 0.275 0 0 0 0.25 0"/>
<feBlend mode="normal" in2="effect1_backgroundBlur_2_462" result="effect2_dropShadow_2_462"/>
<feColorMatrix in="SourceAlpha" type="matrix" values="0 0 0 0 0 0 0 0 0 0 0 0 0 0 0 0 0 0 127 0" result="hardAlpha"/>
<feOffset/>
<feGaussianBlur stdDeviation="19"/>
<feComposite in2="hardAlpha" operator="out"/>
<feColorMatrix type="matrix" values="0 0 0 0 0.619608 0 0 0 0 0.423529 0 0 0 0 1 0 0 0 0.4 0"/>
<feBlend mode="normal" in2="effect2_dropShadow_2_462" result="effect3_dropShadow_2_462"/>
<feBlend mode="normal" in="SourceGraphic" in2="effect3_dropShadow_2_462" result="shape"/>
</filter>
<filter id="filter1_bd_2_462" x="0" y="79.472" width="316.045" height="246.148" filterUnits="userSpaceOnUse" color-interpolation-filters="sRGB">
<feFlood flood-opacity="0" result="BackgroundImageFix"/>
<feGaussianBlur in="BackgroundImageFix" stdDeviation="7"/>
<feComposite in2="SourceAlpha" operator="in" result="effect1_backgroundBlur_2_462"/>
<feColorMatrix in="SourceAlpha" type="matrix" values="0 0 0 0 0 0 0 0 0 0 0 0 0 0 0 0 0 0 127 0" result="hardAlpha"/>
<feOffset dx="-21" dy="15"/>
<feGaussianBlur stdDeviation="25"/>
<feComposite in2="hardAlpha" operator="out"/>
<feColorMatrix type="matrix" values="0 0 0 0 0.113438 0 0 0 0 0.148981 0 0 0 0 0.275 0 0 0 0.25 0"/>
<feBlend mode="normal" in2="effect1_backgroundBlur_2_462" result="effect2_dropShadow_2_462"/>
<feBlend mode="normal" in="SourceGraphic" in2="effect2_dropShadow_2_462" result="shape"/>
</filter>
<linearGradient id="paint0_linear_2_462" x1="206.961" y1="55.9889" x2="281.152" y2="200.227" gradientUnits="userSpaceOnUse">
<stop offset="0.0001" stop-color="#D4C0FF"/>
<stop offset="1" stop-color="#7E2FFF"/>
</linearGradient>
<linearGradient id="paint1_linear_2_462" x1="215.038" y1="-23.3227" x2="261.183" y2="165.98" gradientUnits="userSpaceOnUse">
<stop stop-color="white"/>
<stop offset="1" stop-color="white" stop-opacity="0"/>
</linearGradient>
<linearGradient id="paint2_linear_2_462" x1="189.071" y1="118.868" x2="189.071" y2="277.134" gradientUnits="userSpaceOnUse">
<stop stop-color="white"/>
<stop offset="1" stop-color="white" stop-opacity="0"/>
</linearGradient>
<linearGradient id="paint3_linear_2_462" x1="179.022" y1="114.472" x2="179.022" y2="260.62" gradientUnits="userSpaceOnUse">
<stop stop-color="white"/>
<stop offset="1" stop-color="white" stop-opacity="0"/>
</linearGradient>
</defs>
</svg>
